<?xml version="1.0" encoding="UTF-8"?>
<svg width="830px" height="400px" viewBox="0 0 830 400" version="1.1" xmlns="http://www.w3.org/2000/svg" xmlns:xlink="http://www.w3.org/1999/xlink">
    <!-- Generator: Sketch 61.2 (89653) - https://sketch.com -->
    <title>logo</title>
    <desc>Created with Sketch.</desc>
    <g id="logo" stroke="none" stroke-width="1" fill="none" fill-rule="evenodd">
        <g id="Group" transform="translate(380.000000, 0.000000)">
            <rect id="Rectangle" fill="#FF9900" x="0" y="0" width="450" height="400" rx="60"></rect>
            <path d="M349.59432,327.161478 C346.411488,327.161478 343.69642,327.414703 341.032196,327.110833 C335.632566,326.492965 330.232936,326.614513 324.823138,326.45245 C321.335242,326.361289 321.436929,326.361289 321.142035,322.998468 C320.277687,312.737814 319.331989,302.487288 318.406629,292.236763 C317.603294,283.232102 316.840635,274.217312 315.955949,265.22278 C315.152614,256.977792 314.186579,248.753062 313.312063,240.518203 C312.478222,232.779665 311.705393,225.030997 310.841046,217.302587 C309.744624,207.574677 308.612491,197.850793 307.444669,188.131131 C306.397283,179.541758 305.360066,170.932127 304.200823,162.352883 C302.384619,149.05122 300.52711,135.755185 298.628324,122.464969 C296.594565,108.304659 294.154055,94.2152506 291.601687,80.1461007 C291.144092,77.6239853 291.205105,77.5328246 293.625277,77.1276655 C303.692384,75.4158682 313.810334,73.9572955 324.05031,74.1801329 C325.158708,74.2105198 326.277276,74.2307779 327.375505,74.3725833 C329.175382,74.5954207 330.110911,75.466513 330.212599,77.5530824 C330.568507,84.8256885 331.076946,92.0982943 331.615892,99.3607713 C332.48024,111.26232 333.415769,123.163869 334.310623,135.055288 C334.880075,142.712795 335.368178,150.350044 335.947799,157.987294 C336.873159,170.263615 337.849363,182.529807 338.784892,194.806128 C339.354345,202.3117 339.852616,209.83753 340.432237,217.343103 C341.316922,228.36343 342.282958,239.373629 343.177811,250.383828 C343.747264,257.39308 344.255703,264.412461 344.855662,271.421714 C345.740347,281.803916 346.696214,292.186118 347.601237,302.56832 C348.282546,310.671502 348.902842,318.794943 349.59432,327.161478 L349.59432,327.161478 Z M279.7074,201.772429 C288.321936,201.772429 288.52559,201.833267 289.910432,209.54959 C291.610937,219.070782 292.80231,228.673092 293.932586,238.275401 C295.123958,248.506374 296.325513,258.737346 297.425241,268.978458 C298.311133,277.222046 299.054467,285.485913 299.889446,293.729501 C300.765155,302.368538 301.691778,310.977156 302.598036,319.606053 C303.096986,324.483256 303.565389,329.360459 304.125436,334.227522 C304.288358,335.636942 303.860686,336.387281 302.465661,336.549516 C299.52287,336.884127 296.600444,337.269436 293.667836,337.583767 C288.291388,338.161731 282.904757,338.729555 277.518126,339.226401 C274.738258,339.479894 274.55497,339.327798 274.035654,336.650913 C269.310896,312.366297 264.575956,288.101959 259.891929,263.807203 C256.776033,247.654638 253.741598,231.491932 250.686798,215.339367 C250.276971,213.117133 249.896784,210.889579 249.546339,208.657295 C249.342686,207.379691 249.688897,206.558374 251.145018,206.213624 C260.8491,203.952467 270.655009,202.208436 279.7074,201.772429 L279.7074,201.772429 Z M399.97528,301.606426 L399.97528,338.8198 C399.97528,339.448301 399.955054,340.076803 399.985393,340.715442 C400.116862,342.347518 399.358386,342.925334 397.811096,342.915197 C394.008605,342.884785 390.216226,342.915197 386.423848,342.965883 C382.135932,343.006431 377.858129,342.986157 373.580326,343.452464 C370.758797,343.776852 370.738571,343.563973 370.485746,340.75599 C369.32275,327.871708 368.099075,314.987426 366.925966,302.082871 C365.853987,290.192027 364.862913,278.291046 363.770708,266.390065 C362.648164,254.11401 361.424489,241.868367 360.322171,229.60245 C359.776069,223.459354 359.320983,217.316258 358.865898,211.173162 C358.683864,208.496962 358.977141,208.020517 361.990818,207.777226 C367.229357,207.361604 372.447669,206.652006 377.72666,206.74324 C382.985425,206.844612 388.254303,206.550635 393.482728,207.55421 C397.912226,208.405728 398.134712,208.659156 398.39765,213.403329 C399.156126,227.362146 398.923527,241.361511 399.419064,255.320328 C399.924715,270.181348 399.57076,285.042369 399.97528,301.606426 Z M270.798467,134.420131 C273.871016,134.602792 276.290899,134.450575 278.700741,134.988408 C280.237016,135.343581 281.010173,136.043779 281.160789,137.708019 C281.883741,145.714633 282.66694,153.731395 283.460179,161.748157 C284.092763,168.252897 284.76551,174.757637 285.418176,181.262377 L285.478422,181.637845 C286.000555,185.737556 285.880063,185.849182 281.933946,186.072434 C278.419593,186.265242 274.915281,186.579824 271.400928,186.792928 C269.091496,186.934997 268.358502,187.330761 267.976944,183.931248 C266.661572,171.936548 265.135338,159.972292 263.679392,147.98774 C263.275957,144.619453 262.827417,141.25684 262.333897,137.900827 C262.042708,136.003188 262.775701,134.957965 264.532878,134.805748 C266.84231,134.592644 269.151742,134.531757 270.798467,134.420131 L270.798467,134.420131 Z M397.825443,166.779121 C397.825443,174.115236 397.845523,181.441162 397.815404,188.767088 C397.815404,191.844181 397.765205,191.86456 394.723192,191.844181 C390.728449,191.807029 386.736515,191.616698 382.755935,191.273595 C380.778125,191.120759 380.195825,190.275068 380.32634,188.451228 C380.346419,188.196502 380.32634,187.941775 380.32634,187.687049 C380.025151,173.544649 379.723962,159.412438 379.442851,145.270038 C379.432812,144.516048 379.392653,143.762058 379.422772,142.99788 C379.462931,140.144946 379.47297,140.073623 382.294111,140.094001 C386.179454,140.114379 390.034678,140.31816 393.909981,140.705344 C398.638654,141.184229 397.805364,141.775194 397.825443,145.56552 C397.845523,152.626531 397.835483,159.70792 397.825443,166.779121 L397.825443,166.779121 Z M238.861916,140.383276 C243.780172,139.58753 248.739159,138.781712 253.698145,138.006111 C255.480122,137.734147 256.019806,138.842148 256.254009,140.413495 C257.099175,146.215389 258.158178,151.976993 258.850603,157.78896 C259.868876,166.209766 261.263909,174.59028 261.52866,183.081595 C261.549025,183.94785 261.538843,184.834251 261.559208,185.700506 C261.610122,187.050252 260.927879,187.745271 259.665221,188.03738 C256.304922,188.782763 252.944623,189.528145 249.594507,190.323891 C247.985637,190.706655 247.445952,190.031782 247.181202,188.480581 C246.173112,182.577959 245.012281,176.705555 243.983826,170.823078 C242.24258,161.133108 240.552248,151.433066 238.861916,141.733023 C238.821185,141.380477 238.861916,141.007786 238.861916,140.383276 L238.861916,140.383276 Z M372.993589,169.779616 C372.993589,175.852762 373.064518,181.925907 372.983456,187.999052 C372.932792,191.157903 372.578146,191.433028 369.609247,191.708154 C366.670746,191.98328 363.75251,192.207456 360.824142,192.523341 C359.172502,192.696569 358.402412,192.207456 358.301085,190.301956 C357.875509,182.231602 357.297941,174.161248 356.74064,166.101083 C356.304931,159.416548 355.808425,152.742202 355.342318,146.067856 C355.291654,145.303618 355.332186,144.53938 355.281522,143.785331 C355.210593,142.450462 355.615903,141.665845 357.105419,141.614895 C361.259851,141.472237 365.383885,140.66724 369.568715,140.820088 C372.122171,140.911796 372.162702,140.952556 372.355225,143.622294 C372.973324,152.324418 373.03412,161.046922 372.993589,169.779616 L372.993589,169.779616 Z M246.138995,274.263317 C252.627688,279.943821 254.989977,286.900161 253.144755,295.506986 C251.613829,302.605085 248.146434,308.569108 243.52324,313.905339 C236.101798,322.481787 227.088598,329.002722 217.335281,334.450336 C198.213915,345.14305 177.845502,352.089264 156.432816,356.099031 C144.745918,358.313569 132.95756,359.955891 121.109994,361.02011 C114.398252,361.597273 107.656095,362.316196 100.123128,361.850415 L91.3228381,361.850415 C89.6094176,361.850415 88.6361138,361.313755 88.4941736,359.278494 C87.8453043,350.38815 87.0950492,341.507932 86.294101,332.627714 C85.4424601,323.251338 84.499572,313.874962 83.6073767,304.498586 C82.7962902,295.881636 82.046035,287.244434 81.1639784,278.627484 C80.3528919,270.506691 79.4201421,262.40615 78.5380855,254.295484 C77.7168603,246.680976 76.9260508,239.066467 76.0237168,231.462084 C74.9388885,222.247719 73.7932285,213.033353 72.6475688,203.818988 C71.5728792,195.222289 70.5083279,186.635716 69.3626682,178.049143 C68.1444942,168.845948 66.8602407,159.651597 65.5100068,150.466801 C63.7053391,138.54888 61.7688699,126.671462 59.8628161,114.773792 C57.2044868,97.9253261 54.1281709,81.1452969 50.6367061,64.4491823 C50.4947659,63.7100081 50.4237958,62.9505823 50.2007471,62.2316592 C49.6735407,60.6115512 50.1804701,59.7508686 51.7722274,59.1230766 C67.3552289,53.0375453 82.4414396,45.6964303 98.1663813,39.9045435 C100.224514,39.1349923 102.302923,38.2743097 104.523273,38.0515447 C106.520573,37.8490312 107.027503,38.1730526 106.834869,40.2994448 C105.780457,51.8325897 106.388772,63.426489 105.841288,74.9697598 C105.395191,84.3866387 105.445884,93.8338943 105.922397,103.260899 C106.033922,105.650558 106.125169,108.050343 106.104891,110.429878 C105.983229,121.750384 106.581405,133.060764 107.159304,144.361018 C107.89942,159.29639 108.984249,174.201386 110.089354,189.116507 C110.890303,199.8801 111.934576,210.623443 112.948435,221.376911 C113.48578,227.259929 114.063679,233.132821 114.793657,238.985462 C115.189062,242.215552 115.351279,242.245929 118.524655,241.820651 C124.121153,241.061225 129.727789,240.443559 135.385118,240.524564 C155.236463,240.777706 174.692403,243.90654 193.783354,249.344028 C206.710047,253.009523 219.292028,257.586328 231.174447,263.995881 C236.534974,266.842783 241.55519,270.28724 246.138995,274.263317 L246.138995,274.263317 Z M192.805351,296.208108 C193.713449,295.2249 193.612549,294.464688 192.381572,293.917335 C189.929706,292.79222 187.49802,291.596153 185.015884,290.5724 C171.767737,285.129279 158.45905,279.858473 144.807304,275.560739 C143.616686,275.195837 142.395798,274.364672 140.872211,275.074203 L148.227808,330.032492 C149.317526,330.27576 149.741305,329.768952 150.225625,329.424323 C162.626213,320.281501 175.107522,311.250178 187.013701,301.418097 C189.021608,299.776038 191.009334,298.123843 192.805351,296.208108 L192.805351,296.208108 Z" id="bili-right" fill="#000000" fill-rule="nonzero"></path>
        </g>
        <path d="M270.252283,74.2604348 C271.725012,74.2604348 273.949339,74.0983992 276.143197,74.3009438 C278.936302,74.5541246 279.47461,75.2731574 279.647275,78.0682721 C280.449658,90.8488329 281.201257,103.639521 282.054424,116.430209 C282.988844,130.223492 284.014676,143.996521 285.040507,157.76955 C285.985085,170.418457 286.929663,183.067363 287.945337,195.71627 C289.052423,209.610826 290.281389,223.485127 291.398631,237.379683 C292.241641,248.023398 292.96277,258.667114 293.83625,269.320957 C294.669104,279.205131 295.644151,289.06905 296.537945,298.943097 C297.299701,307.43984 298.071614,315.946711 298.813057,324.453582 C299.046662,327.147424 298.853684,327.319587 295.938697,327.248697 C288.31098,327.066406 280.72389,326.175211 273.096172,326.387882 C271.349212,326.438518 270.841374,325.638467 270.546829,323.987729 C269.91711,320.392564 270.018678,316.736635 269.632722,313.10096 C268.586577,303.490221 267.987329,293.838974 267.103692,284.207981 C266.311465,275.458057 265.356731,266.728387 264.45278,257.98859 C263.650397,249.998208 262.858171,242.007825 262.005004,234.007316 C261.151838,226.158715 260.247887,218.299987 259.354094,210.441258 C258.531397,203.210418 257.729014,195.979578 256.855534,188.748738 C255.565627,178.155658 254.285877,167.562579 252.884245,156.989753 C251.594339,147.28787 250.131767,137.616368 248.760606,127.924611 C246.891765,114.759216 244.789318,101.624202 242.463423,88.5398251 C241.931773,85.577019 241.369737,82.6197138 240.777402,79.668374 C240.4727,78.1796717 240.746932,77.3188573 242.453266,77.0859311 C246.942548,76.4884249 251.421674,75.5567199 255.93127,75.1212492 C260.440865,74.7060328 264.950461,73.8654731 270.252283,74.2604348 L270.252283,74.2604348 Z M229.079766,201.772429 C238.218212,201.772429 238.177821,201.80284 239.591503,210.125338 C241.772613,223.009496 243.317565,235.964614 244.700954,248.960281 C246.05405,261.57074 247.528319,274.171062 248.851122,286.781521 C249.74982,295.408129 250.456661,304.055012 251.294772,312.671483 C251.890538,318.804383 252.59738,324.917009 253.243634,331.039772 C253.324416,331.789912 253.364807,332.540052 253.415296,333.300329 C253.546566,336.300889 253.415296,336.544177 250.537442,336.838151 C244.832225,337.436235 239.11691,337.93295 233.411692,338.500623 C231.341657,338.703364 229.28172,339.007474 227.231881,339.210215 C224.505494,339.463641 224.414614,339.453503 223.879435,336.686096 C221.960866,326.964688 220.102884,317.223007 218.224706,307.5016 C213.721118,284.085073 209.167042,260.688819 204.693747,237.27229 C202.906449,227.905679 201.371594,218.49852 199.614589,209.121772 C199.291462,207.408615 199.533807,206.60779 201.30091,206.192172 C210.833167,203.962026 220.426011,202.218458 229.079766,201.772429 L229.079766,201.772429 Z M349.959256,299.82165 L349.959256,339.11417 C349.959256,339.489157 349.918831,339.874278 349.969362,340.249265 C350.161377,342.154602 349.464057,342.995789 347.503475,342.914711 C344.92642,342.803228 342.369578,342.874171 339.792524,342.93498 C334.416081,343.036328 329.029533,342.823497 323.663196,343.441719 C320.692004,343.786301 320.75264,343.603875 320.459564,340.462095 C319.580334,330.570555 318.620254,320.68915 317.720812,310.79761 C316.892112,301.666179 316.144261,292.514477 315.295349,283.383046 C314.436331,273.98811 313.476252,264.623578 312.607128,255.238777 C312.010868,248.975487 311.485351,242.722331 310.959834,236.45904 C310.27262,228.310682 309.635936,220.172458 308.918403,212.024099 C308.61522,208.58841 308.867872,208.101941 312.26352,207.747224 C321.02411,206.779993 329.847007,206.505507 338.650535,206.926307 C340.843558,207.047925 343.026474,207.473585 345.148754,207.990459 C347.826869,208.62895 348.119946,209.024206 348.261432,211.831538 C348.554508,217.486742 348.847585,223.141946 348.999177,228.807285 C349.17098,235.10098 349.029495,241.40481 349.261935,247.698505 C349.848089,265.059374 349.757134,282.440512 349.959256,299.82165 L349.959256,299.82165 Z M220.940071,134.420131 C223.335008,134.552386 225.800981,134.369264 228.216214,134.928803 C229.596347,135.24418 230.296562,135.824067 230.428486,137.400951 C230.722779,141.165125 231.301217,144.919126 231.656399,148.6833 C232.782831,160.23016 233.848375,171.787193 234.903771,183.344226 C235.127027,185.857066 235.076287,185.907933 232.732091,186.080882 C228.571395,186.386085 224.400552,186.691289 220.229709,186.864237 C217.804328,186.976145 217.499886,186.681115 217.195445,184.198795 C216.14005,175.693795 215.145542,167.178622 214.130738,158.663449 C213.308747,151.643773 212.61868,144.624096 211.624173,137.624766 C211.350176,135.691812 211.979354,135.162793 213.521856,134.847416 C215.967533,134.348917 218.423358,134.511692 220.940071,134.420131 L220.940071,134.420131 Z M347.84973,166.600957 C347.84973,173.92404 347.870183,181.236938 347.839503,188.570206 C347.839503,191.859991 347.798597,191.880362 344.51589,191.839621 C340.566807,191.860349 336.61976,191.656315 332.694052,191.228515 C330.157879,190.912777 330.106747,190.994258 330.035161,188.315578 C329.779498,179.36288 329.513609,170.410182 329.329532,161.457484 C329.196588,155.397353 329.125002,149.357592 328.756848,143.297461 C328.562545,140.170637 328.736395,140.140082 331.753214,140.099341 C336.201743,140.048416 340.640045,140.252118 345.057894,140.924334 C347.716785,141.331738 347.839503,141.331738 347.84973,144.265045 C347.870183,151.710349 347.870183,159.155653 347.870183,166.611142 L347.84973,166.611142 L347.84973,166.600957 Z M211.539247,183.421141 C211.629909,187.396769 211.629909,187.386705 207.822104,188.312673 C205.2332,188.946761 202.644295,189.641238 200.035244,190.214936 C197.808987,190.71818 197.416118,190.436363 197.033323,188.252284 C194.373903,173.43678 191.724558,158.61121 189.085285,143.78564 C188.551387,140.715852 188.692417,140.524619 191.714484,139.99118 C195.431627,139.336963 199.138697,138.692811 202.85584,138.119112 C205.223126,137.746712 205.525333,137.877555 205.99879,140.484359 C206.935631,145.748292 207.822104,151.032354 208.51718,156.336547 C209.595051,164.730657 210.481524,173.154963 211.448586,181.559138 C211.529174,182.173096 211.509027,182.807184 211.539247,183.421141 L211.539247,183.421141 Z M323.732252,174.851861 C323.588692,180.068644 323.906574,184.612951 323.188776,189.157258 C322.973436,190.593911 322.553012,191.521113 320.994364,191.65357 C317.651475,191.928674 314.318841,192.193589 310.996461,192.529827 C309.386542,192.70304 308.935355,192.010186 308.668744,190.441076 C307.920183,185.805067 308.053488,181.107925 307.602301,176.451538 C306.751198,167.658406 306.392298,158.804139 305.81806,149.980439 C305.6745,147.830554 305.45916,145.701047 305.284838,143.551162 C305.19255,142.348856 305.6745,141.67638 306.966537,141.625435 C311.293835,141.452222 315.600624,140.667666 319.94843,140.820502 C322.491486,140.912203 322.706826,141.075228 322.891402,143.622485 C323.004199,145.385187 322.973436,147.168267 323.014453,148.941158 L323.732252,174.851861 L323.732252,174.851861 Z M199.012407,277.388677 C204.264262,283.162142 204.527869,289.999141 202.794148,297.150135 C201.050289,304.301129 197.075912,310.196141 192.260021,315.483419 C184.179463,324.315808 174.415878,330.838811 164.033832,336.379312 C146.159273,345.920724 127.210011,352.261407 107.439512,356.009095 C93.2148914,358.69325 78.8990226,360.759543 64.4310729,361.549596 C60.0207307,361.792689 55.6205274,361.995267 51.2101856,361.96488 C48.0164897,361.96488 44.8126551,362.05604 41.6290977,361.944622 C38.9220601,361.843334 38.5266502,361.377405 38.3035986,358.551445 C37.4823625,348.41243 36.7827911,338.263285 35.8804451,328.12427 C34.8260186,316.374761 33.589095,304.635382 32.4535585,292.885873 C31.6221836,284.387737 30.9023346,275.869344 29.9898501,267.391466 C28.9354236,257.404383 27.7491937,247.437559 26.59338,237.450477 C25.5389534,228.23319 24.5250817,218.995645 23.4098226,209.768229 C22.1627605,199.548183 20.8751432,189.348394 19.5064166,179.148605 C18.1667361,169.325836 16.7709498,159.510785 15.3191261,149.703932 C12.9589702,133.563162 10.390281,117.453513 7.61370095,101.379014 C5.36692687,88.2722117 2.86557163,75.2102377 0.111050126,62.2004803 C-0.253943603,60.4583118 0.273269526,59.7594188 1.80421613,59.1212987 C16.4749402,53.0439666 31.0949705,46.855217 45.7555557,40.7474982 C48.4828706,39.6130628 51.2811566,38.6609475 54.1808298,38.1241166 C56.1882958,37.7493478 56.7053704,38.1646322 56.6445382,40.1802807 C56.4924573,45.3358841 56.7053704,50.5117451 56.1984346,55.6470906 C56.0747514,57.0246848 56.0071042,58.4067277 55.9956603,59.7898051 C55.7624698,78.2750231 55.5394179,96.7703703 56.0260764,115.265717 C56.4519027,131.471936 57.3035549,147.668026 58.2464555,163.864115 C58.9865818,176.64677 60.0511472,189.429425 61.1461287,202.191822 C62.2208326,214.700998 63.5287272,227.189915 64.755512,239.69909 C64.9887024,242.079378 65.2016156,242.302214 67.9086529,241.937574 C73.2431332,241.136572 78.6253105,240.693286 84.0190749,240.610689 C100.778375,240.570174 117.263929,242.869431 133.566986,246.728537 C147.832162,250.111585 161.712066,254.618939 175.014063,260.919107 C181.604229,264.038804 187.910511,267.644688 193.659164,272.222945 C195.615937,273.762535 197.359796,275.535091 199.012407,277.388677 Z M97.6646234,330.09628 C104.994857,326.584314 140.582936,298.70174 143.407708,294.154455 C126.135087,286.694065 108.801718,279.761484 90.1622718,274.087527 L97.6646234,330.09628 Z" id="bili-left" fill="#FFFFFF" fill-rule="nonzero"></path>
    </g>
</svg>