<?xml version="1.0" encoding="UTF-8"?>
<svg width="742px" height="796px" viewBox="0 0 742 796" version="1.1" xmlns="http://www.w3.org/2000/svg" xmlns:xlink="http://www.w3.org/1999/xlink">
    <!-- Generator: Sketch 61.2 (89653) - https://sketch.com -->
    <title>bili-guochuang</title>
    <desc>Created with Sketch.</desc>
    <g id="icons" stroke="none" stroke-width="1" fill="none" fill-rule="evenodd">
        <g id="Artboard" transform="translate(-7993.000000, -7521.000000)" fill-rule="nonzero">
            <g id="bili-guochuang" transform="translate(7993.000000, 7521.000000)">
                <path d="M732.472,201.792 C686.392,155.2 630.072,128.32 570.936,161.6 C582.399023,102.554328 563.118993,41.7258324 519.736,0.064 C519.736,0.064 436.28,107.584 504.632,219.712 C492.344,233.28 480.312,246.848 468.28,259.136 C441.4,286.272 482.872,328.256 509.496,301.12 L578.104,231.488 C618.808,190.528 654.904,207.68 691,243.776 C717.624,270.656 759.096,228.672 732.472,201.792 L732.472,201.792 Z" id="Path" fill="#FFB340"></path>
                <path d="M564.024,224.576 C528.349604,188.206066 479.545408,167.714155 428.6,167.714155 C377.654592,167.714155 328.850396,188.206066 293.176,224.576 C275.534757,242.542183 261.53858,263.753781 251.96,287.04 C185.144111,287.038466 121.128926,313.880568 74.296,361.536 C-24.1159491,461.234483 -24.1159491,621.517517 74.296,721.216 C121.039729,768.843472 184.970558,795.675863 251.704,795.675863 C318.437442,795.675863 382.368271,768.843472 429.112,721.216 C476.125192,673.409297 502.505905,609.066093 502.584,542.016 C525.597388,532.261395 546.472066,518.084009 564.024,500.288 C639.676284,423.952605 639.676284,300.911395 564.024,224.576 L564.024,224.576 Z" id="Path" fill="#FFCC80"></path>
                <path d="M373.304,688.704 C337.425188,723.939778 288.874855,743.252669 238.596416,742.289481 C188.317977,741.326292 140.542953,720.168088 106.04,683.584 C33.5777097,606.92226 35.8547865,486.351042 111.16,412.48 C111.16,412.48 66.104,533.312 154.936,626.752 C209.3578,688.311957 294.66255,712.513305 373.304,688.704" id="Path" fill="#FF9900"></path>
            </g>
        </g>
    </g>
</svg>