<?xml version="1.0" encoding="UTF-8"?>
<svg width="700px" height="762px" viewBox="0 0 700 762" version="1.1" xmlns="http://www.w3.org/2000/svg" xmlns:xlink="http://www.w3.org/1999/xlink">
    <!-- Generator: Sketch 61.2 (89653) - https://sketch.com -->
    <title>bili-icon_dingdao_gerenzhongxin</title>
    <desc>Created with Sketch.</desc>
    <g id="icons" stroke="none" stroke-width="1" fill="none" fill-rule="evenodd">
        <g id="Artboard" transform="translate(-11271.000000, -7386.000000)" fill="#6A6A6A" fill-rule="nonzero">
            <g id="bili-icon_dingdao_gerenzhongxin" transform="translate(11271.000000, 7386.000000)">
                <path d="M262.820364,399.984727 C173.269815,358.992262 124.374309,261.148817 145.351927,164.921884 C166.329544,68.6949512 251.513031,0.0809302607 350,0.0809302607 C448.486969,0.0809302607 533.670456,68.6949512 554.648073,164.921884 C575.625691,261.148817 526.730185,358.992262 437.179636,399.984727 C591.354184,439.798082 699.076394,578.858707 699.090909,738.090909 C699.090909,750.944081 688.671354,761.363636 675.818182,761.363636 C662.96501,761.363636 652.545455,750.944081 652.545455,738.090909 C652.545455,570.999668 517.091241,435.545454 350,435.545454 C182.908759,435.545454 47.454545,570.999668 47.454545,738.090909 C47.454545,750.944081 37.0349902,761.363636 24.181818,761.363636 C11.3286458,761.363636 0.909091,750.944081 0.909091,738.090909 C0.923606225,578.858707 108.645816,439.798082 262.820364,399.984727 Z M350,372.383273 C408.201813,372.383273 461.982507,341.332977 491.083413,290.928728 C520.18432,240.52448 520.18432,178.423884 491.083413,128.019636 C461.982507,77.6153873 408.201813,46.565091 350,46.565091 C260.027795,46.565091 187.090912,119.501977 187.090912,209.474182 C187.090912,299.446387 260.027795,372.383273 350,372.383273 L350,372.383273 Z" id="Shape"></path>
            </g>
        </g>
    </g>
</svg>