<?xml version="1.0" encoding="UTF-8"?>
<svg width="762px" height="732px" viewBox="0 0 762 732" version="1.1" xmlns="http://www.w3.org/2000/svg" xmlns:xlink="http://www.w3.org/1999/xlink">
    <!-- Generator: Sketch 61.2 (89653) - https://sketch.com -->
    <title>bili-information</title>
    <desc>Created with Sketch.</desc>
    <g id="icons" stroke="none" stroke-width="1" fill="none" fill-rule="evenodd">
        <g id="Artboard" transform="translate(-13226.000000, -5244.000000)" fill-rule="nonzero">
            <g id="bili-information" transform="translate(13226.000000, 5244.000000)">
                <path d="M629.685714,622 C629.686257,633.302355 638.271904,642.755431 649.522057,643.840457 L651.628571,643.942857 C662.930926,643.942315 672.384003,635.356667 673.469029,624.106514 L673.571429,622 L673.571429,175.828571 L702.828571,175.828571 C735.145119,175.828571 761.342857,202.026309 761.342857,234.342857 L761.342857,673.2 C761.342857,705.516548 735.145119,731.714286 702.828571,731.714286 L59.171429,731.714286 C26.8548812,731.714286 0.657143,705.516548 0.657143,673.2 L0.657143,58.8 C0.657143,26.4834522 26.8548812,0.285714 59.171429,0.285714 L571.171429,0.285714 C603.487976,0.285714 629.685714,26.4834526 629.685714,58.8 L629.685714,622 Z" id="Path" fill="#FFCC80"></path>
                <path d="M117.685714,88.057143 L512.657143,88.057143 C532.161905,88.057143 541.914286,97.809524 541.914286,117.314286 L541.914286,380.628571 C541.914286,400.133333 532.161905,409.885714 512.657143,409.885714 L117.685714,409.885714 C98.180952,409.885714 88.428571,400.133333 88.428571,380.628571 L88.428571,117.314286 C88.428571,97.809524 98.180952,88.057143 117.685714,88.057143 Z" id="Path" fill="#FFB340"></path>
                <path d="M273.772571,154.514743 L403.235429,235.44 C407.906616,238.351823 410.745643,243.467003 410.745643,248.971429 C410.745643,254.475854 407.906616,259.591034 403.235429,262.502857 L273.772571,343.428114 C268.854115,346.519232 262.643754,346.690888 257.562059,343.876177 C252.480364,341.061466 249.33153,335.705825 249.342827,329.896686 L249.342827,168.046171 C249.33153,162.237032 252.480364,156.881391 257.562059,154.06668 C262.643754,151.251969 268.854115,151.423625 273.772571,154.514743 L273.772571,154.514743 Z" id="Path" fill="#FF9900"></path>
                <path d="M117.685714,468.4 L512.657143,468.4 C532.161905,468.4 541.914286,478.152381 541.914286,497.657143 L541.914286,497.657143 C541.914286,517.161905 532.161905,526.914286 512.657143,526.914286 L117.685714,526.914286 C98.180952,526.914286 88.428571,517.161905 88.428571,497.657143 L88.428571,497.657143 C88.428571,478.152381 98.180952,468.4 117.685714,468.4 Z" id="Path" fill="#FFB340"></path>
                <path d="M117.257143,585 L336.685715,585 C356.190477,585 365.942858,594.752381 365.942858,614.257143 L365.942858,614.257143 C365.942858,633.761905 356.190477,643.514286 336.685715,643.514286 L117.257143,643.514286 C97.752381,643.514286 88,633.761905 88,614.257143 L88,614.257143 C88,594.752381 97.752381,585 117.257143,585 Z" id="Path" fill="#FFB340"></path>
            </g>
        </g>
    </g>
</svg>