<?xml version="1.0" encoding="UTF-8"?>
<svg width="932px" height="560px" viewBox="0 0 932 560" version="1.1" xmlns="http://www.w3.org/2000/svg" xmlns:xlink="http://www.w3.org/1999/xlink">
    <!-- Generator: Sketch 61.2 (89653) - https://sketch.com -->
    <title>bili-icon_youdaohang_huidaodingbu</title>
    <desc>Created with Sketch.</desc>
    <g id="icons" stroke="none" stroke-width="1" fill="none" fill-rule="evenodd">
        <g id="Artboard" transform="translate(-8973.000000, -2774.000000)" fill="#FFFFFF" fill-rule="nonzero">
            <g id="bili-icon_youdaohang_huidaodingbu" transform="translate(8973.000000, 2774.000000)">
                <path d="M466,188.398545 L129.010909,536.465455 C115.13363,551.006178 95.9094914,559.233222 75.8094545,559.233222 C55.7094176,559.233222 36.4852786,551.006178 22.608,536.465455 C-6.76749052,505.7054 -6.76749052,457.285146 22.608,426.525091 L412.798545,23.441455 C426.675824,8.90073173 445.899963,0.673687268 466,0.673687268 C486.100037,0.673687268 505.324176,8.90073173 519.201455,23.441455 L909.392,426.525091 C938.767491,457.285146 938.767491,505.7054 909.392,536.465455 C895.514721,551.006178 876.290582,559.233222 856.190545,559.233222 C836.090509,559.233222 816.86637,551.006178 802.989091,536.465455 L466,188.305455 L466,188.398545 Z" id="Path"></path>
            </g>
        </g>
    </g>
</svg>