<?xml version="1.0" encoding="UTF-8"?>
<svg width="896px" height="768px" viewBox="0 0 896 768" version="1.1" xmlns="http://www.w3.org/2000/svg" xmlns:xlink="http://www.w3.org/1999/xlink">
    <!-- Generator: Sketch 61.2 (89653) - https://sketch.com -->
    <title>bili-PC</title>
    <desc>Created with Sketch.</desc>
    <g id="icons" stroke="none" stroke-width="1" fill="none" fill-rule="evenodd">
        <g id="Artboard" transform="translate(-4595.000000, -7074.000000)" fill="#FFFFFF" fill-rule="nonzero">
            <g id="bili-PC" transform="translate(4595.000000, 7074.000000)">
                <path d="M608,704 C625.673112,704 640,718.326888 640,736 C640,753.673112 625.673112,768 608,768 L288,768 C270.326888,768 256,753.673112 256,736 C256,718.326888 270.326888,704 288,704 L608,704 Z M768,0 C838.692448,0 896,57.307552 896,128 L896,512 C896,582.692448 838.692448,640 768,640 L128,640 C57.307552,640 0,582.692448 0,512 L0,128 C0,57.307552 57.307552,0 128,0 L768,0 Z M768,64 L128,64 C95.5536109,64 68.2442273,88.2884552 64.448,120.512 L64,128 L64,512 C64,544.446389 88.2884552,571.755773 120.512,575.552 L128,576 L768,576 C800.446389,576 827.755773,551.711545 831.552,519.488 L832,512 L832,128 C832,92.653776 803.346224,64 768,64 Z M304,160 C365.855892,160 416,210.144108 416,272 C416,333.855892 365.855892,384 304,384 L224,384 L224,480 L160,480 L160,160 L304,160 Z M608,160 C660.352,160 706.816,185.152 736,224 L682.624,259.584 C657.032048,227.981648 614.305352,215.932049 575.972782,229.506684 C537.640211,243.081318 512.018994,279.334822 512.018994,320 C512.018994,360.665178 537.640211,396.918682 575.972782,410.493316 C614.305352,424.067951 657.032048,412.018352 682.624,380.416 L736,416 C690.854997,476.193337 609.869443,496.798796 541.446032,465.501097 C473.022621,434.203398 435.650854,359.459865 451.666741,285.942516 C467.682629,212.425168 532.758328,160 608,160 L608,160 Z M304,224 L224,224 L224,320 L304,320 C330.509667,320 352,298.509667 352,272 C352,245.490333 330.509667,224 304,224 L304,224 Z" id="Shape"></path>
            </g>
        </g>
    </g>
</svg>