<?xml version="1.0" encoding="UTF-8"?>
<svg width="803px" height="696px" viewBox="0 0 803 696" version="1.1" xmlns="http://www.w3.org/2000/svg" xmlns:xlink="http://www.w3.org/1999/xlink">
    <!-- Generator: Sketch 61.2 (89653) - https://sketch.com -->
    <title>bili-teleplay</title>
    <desc>Created with Sketch.</desc>
    <g id="icons" stroke="none" stroke-width="1" fill="none" fill-rule="evenodd">
        <g id="Artboard" transform="translate(-4641.000000, -4147.000000)" fill-rule="nonzero">
            <g id="bili-teleplay" transform="translate(4641.500000, 4147.000000)">
                <path d="M169.616,75.808 C128.274566,123.203595 110.084286,186.494517 119.952,248.608 L145.552,375.328 C202.384,397.088 205.712,462.88 212.88,524.576 C275.792743,514.704625 339.407494,509.995592 403.088,510.496 C468.721954,510.023302 534.290854,514.731252 599.184,524.576 C606.864,462.88 603.536,397.856 659.088,375.84 L684.688,247.84 C694.400874,185.850684 676.116571,122.746395 634.768,75.552 C593.135929,27.9179089 532.911058,0.653316058 469.648,0.799411161 L334.736,0.799411161 C271.472942,0.653316058 211.248071,27.9179089 169.616,75.552" id="Path" fill="#FFB340"></path>
                <path d="M403.088,240.672 L368.272,206.112 C360.538964,199.718828 349.212393,200.254784 342.117589,207.349589 C335.022784,214.444393 334.486828,225.770964 340.88,233.504 L366.48,259.104 L340.88,284.704 C334.486828,292.437036 335.022784,303.763607 342.117589,310.858411 C349.212393,317.953216 360.538964,318.489172 368.272,312.096 L403.088,277.536 L438.16,312.096 C441.724226,315.746767 446.626143,317.781525 451.728,317.72903 C459.526936,317.679895 466.543484,312.979268 469.555007,305.785073 C472.566531,298.590877 470.990984,290.29356 465.552,284.704 L439.952,259.104 L465.552,233.504 C470.990984,227.91444 472.566531,219.617123 469.555007,212.422927 C466.543484,205.228732 459.526936,200.528105 451.728,200.47897 C446.626143,200.426475 441.724226,202.461233 438.16,206.112 L403.088,240.672 Z" id="Path" fill="#FFE6C0"></path>
                <path d="M720.016,310.56 C685.275349,309.7361 651.63449,322.768821 626.516125,346.782555 C601.39776,370.796288 586.866284,403.817424 586.128,438.56 L586.128,507.424 L218,508.96 L218,439.584 C217.006417,372.231555 164.842318,316.737833 97.68,311.584 L84.112,311.584 C39.0595409,310.580719 1.65624484,346.153885 0.4,391.2 C0.0147062514,395.62897 0.0147062514,400.08303 0.4,404.512 C4.5843693,427.648755 18.8441769,447.725063 39.312,459.296 L48.272,463.648 L50.576,463.648 C59.4417075,467.498461 65.3828417,476.014086 65.936,485.664 L65.936,549.408 C66.9915866,598.453092 99.7371028,641.146613 146.832,654.88 C151.429884,677.651998 170.783433,694.47426 193.97384,695.856071 C217.164248,697.237883 238.378489,682.832873 245.648,660.768 L558.736,660.768 C566.005511,682.832873 587.219752,697.237883 610.41016,695.856071 C633.600567,694.47426 652.954116,677.651998 657.552,654.88 C703.938385,640.506107 735.84525,597.96362 736.656,549.408 L736.656,478.752 C738.251355,474.219257 741.09026,470.227047 744.848,467.232 L746.384,467.232 L750.992,464.416 C777.75871,454.481861 797.2475,431.095313 802.192,402.976 L802.192,390.944 C800.935755,345.897885 763.532459,310.324719 718.48,311.328" id="Path" fill="#FF9900"></path>
            </g>
        </g>
    </g>
</svg>