<?xml version="1.0" encoding="UTF-8"?>
<svg width="802px" height="779px" viewBox="0 0 802 779" version="1.1" xmlns="http://www.w3.org/2000/svg" xmlns:xlink="http://www.w3.org/1999/xlink">
    <!-- Generator: Sketch 61.2 (89653) - https://sketch.com -->
    <title>bili-ad</title>
    <desc>Created with Sketch.</desc>
    <g id="icons" stroke="none" stroke-width="1" fill="none" fill-rule="evenodd">
        <g id="Artboard" transform="translate(-10113.000000, -5683.000000)" fill-rule="nonzero">
            <g id="bili-ad" transform="translate(10113.000000, 5683.000000)">
                <path d="M465.768,11.6 C498.536,-20.912 597.864,25.424 687.72,115.28 C777.576,205.136 824.168,304.464 791.4,337.232 C789.576345,339.04635 787.508399,340.597309 785.256,341.84 C747.624,364.624 145.256,719.44 145.256,719.44 C126.680877,713.557168 109.989679,702.871269 96.872,688.464 C81.9373562,674.768264 70.14696,657.999701 62.312,639.312 C62.312,639.312 443.496,50.512 461.672,18.512 C462.763963,16.0565901 464.138583,13.7369186 465.768,11.6 Z" id="Path" fill="#FFCC80"></path>
                <path d="M61.288,638.032 C56.424,641.36 25.96,658 10.088,666.96 C3.0161504,670.695554 -0.894666946,678.517188 0.36,686.416 C4.21854464,708.782279 15.2748591,729.276911 31.848,744.784 C47.9606366,761.401358 68.6221794,772.889888 91.24,777.808 C99.0012575,779.379157 106.930966,776.024281 111.208,769.36 C121.96,752.208 143.208,718.16 144.232,718.16 C125.656877,712.277168 108.965679,701.591269 95.848,687.184 C80.9133562,673.488264 69.12296,656.719701 61.288,638.032 L61.288,638.032 Z" id="Path" fill="#FFCC80"></path>
                <path d="M465.768,11.6 C498.536,-20.912 597.864,25.424 687.72,115.28 C777.576,205.136 824.168,304.464 791.4,337.232 C789.576345,339.04635 787.508399,340.597309 785.256,341.84 C747.624,364.624 682.856,402 682.856,402 C682.856,402 618.856,397.904 509.544,288.336 C407.144,185.936 397.416,117.328 397.416,117.328 C397.416,117.328 437.352,55.632 459.88,18.512 C461.530146,15.9590806 463.509894,13.6350277 465.768,11.6 Z" id="Path" fill="#FF9900"></path>
                <path d="M569.45816,232.49224 C627.60023,290.639018 692.612331,333.087782 740.001856,343.846418 C787.391381,354.605053 809.957618,332.038816 799.198983,284.649291 C788.440347,237.259766 745.991583,172.247665 687.844805,114.105595 C629.702735,55.958817 564.690634,13.5100533 517.301109,2.75141744 C469.911584,-8.00721843 447.345347,14.5590194 458.103982,61.9485443 C468.862618,109.338069 511.311382,174.35017 569.45816,232.49224 L569.45816,232.49224 Z" id="Path" fill="#FFCC80"></path>
            </g>
        </g>
    </g>
</svg>