<?xml version="1.0" encoding="UTF-8"?>
<svg width="834px" height="840px" viewBox="0 0 834 840" version="1.1" xmlns="http://www.w3.org/2000/svg" xmlns:xlink="http://www.w3.org/1999/xlink">
    <!-- Generator: Sketch 61.2 (89653) - https://sketch.com -->
    <title>bili-icon_youdaohang_paixu</title>
    <desc>Created with Sketch.</desc>
    <g id="icons" stroke="none" stroke-width="1" fill="none" fill-rule="evenodd">
        <g id="Artboard" transform="translate(-13190.000000, -10015.000000)" fill="#FFFFFF" fill-rule="nonzero">
            <g id="bili-icon_youdaohang_paixu" transform="translate(13190.000000, 10015.000000)">
                <path d="M368.220364,362.469818 L368.220364,765.739636 C368.220364,806.162863 335.450864,838.932364 295.027637,838.932364 C254.604409,838.932364 221.834909,806.162863 221.834909,765.739636 L221.834909,362.469818 L48.918545,362.469818 C29.0724695,362.489024 11.1932058,350.482571 3.70111929,332.104983 C-3.79096724,313.727396 0.597889698,292.642783 14.800727,278.781091 L285.322909,14.635636 C299.365076,0.930236813 320.252392,-3.02714887 338.334751,4.59182255 C356.41711,12.210794 368.174068,29.9227897 368.173818,49.544727 L368.173818,362.469818 L368.220364,362.469818 Z M465.779636,477.530182 L465.779636,74.260364 C465.779636,33.8371377 498.549137,1.06763868 538.972363,1.06763868 C579.39559,1.06763868 612.16509,33.8371377 612.165091,74.260364 L612.165091,477.530182 L785.081455,477.530182 C804.927531,477.510976 822.806794,489.517429 830.298881,507.895017 C837.790967,526.272604 833.40211,547.357217 819.199273,561.218909 L548.677091,825.364364 C534.634924,839.069763 513.747608,843.027149 495.665249,835.408177 C477.58289,827.789206 465.825932,810.07721 465.826182,790.455273 L465.826182,477.530182 L465.779636,477.530182 Z" id="Shape"></path>
            </g>
        </g>
    </g>
</svg>