<?xml version="1.0" encoding="UTF-8"?>
<svg width="769px" height="749px" viewBox="0 0 769 749" version="1.1" xmlns="http://www.w3.org/2000/svg" xmlns:xlink="http://www.w3.org/1999/xlink">
    <!-- Generator: Sketch 61.2 (89653) - https://sketch.com -->
    <title>bili-icon_fenqudaohang_shouye</title>
    <desc>Created with Sketch.</desc>
    <g id="icons" stroke="none" stroke-width="1" fill="none" fill-rule="evenodd">
        <g id="Artboard" transform="translate(-5765.000000, -5957.000000)" fill="#6A6A6A" fill-rule="nonzero">
            <g id="bili-icon_fenqudaohang_shouye" transform="translate(5765.500000, 5957.000000)">
                <path d="M690.797714,339.821714 L690.797714,564.150857 C690.797714,665.380571 614.729143,748.690286 519.094857,748.690286 L248.905143,748.690286 C153.307429,748.690286 77.202286,665.380572 77.202286,564.150857 L77.202286,413.257143 C77.2056255,393.061662 93.5782336,376.691761 113.773715,376.691761 C133.969195,376.691761 150.341803,393.061662 150.345143,413.257143 L150.345143,564.150857 C150.345143,626.395428 195.254857,675.547428 248.905143,675.547429 L519.094857,675.547429 C572.745143,675.547429 617.654857,626.395429 617.654857,564.150857 L617.654857,278.893714 L384,84.187429 L59.977143,354.194286 C49.9361425,362.556342 36.1967715,364.926391 23.9345179,360.411658 C11.6722644,355.896925 2.75005646,345.183305 0.528803435,332.306515 C-1.69244959,319.429725 3.12471351,306.346056 13.165714,297.984 L360.594286,8.484571 C374.154279,-2.80990916 393.845721,-2.80990916 407.405714,8.484571 L754.834286,297.984 C764.875287,306.346056 769.69245,319.429725 767.471198,332.306515 C765.249945,345.183305 756.327736,355.896925 744.065483,360.411659 C731.803229,364.926392 718.063857,362.556343 708.022857,354.194286 L690.797714,339.821714 Z M287.451429,580.571429 C274.827777,580.571429 264.594286,570.337938 264.594286,557.714286 C264.594286,545.090634 274.827777,534.857143 287.451429,534.857143 L480.475429,534.857143 C493.099081,534.857143 503.332572,545.090634 503.332572,557.714286 C503.332572,570.337938 493.099081,580.571429 480.475429,580.571429 L287.451429,580.571429 L287.451429,580.571429 Z" id="Shape"></path>
            </g>
        </g>
    </g>
</svg>