<?xml version="1.0" encoding="UTF-8"?>
<svg width="705px" height="748px" viewBox="0 0 705 748" version="1.1" xmlns="http://www.w3.org/2000/svg" xmlns:xlink="http://www.w3.org/1999/xlink">
    <!-- Generator: Sketch 61.2 (89653) - https://sketch.com -->
    <title>bili-life</title>
    <desc>Created with Sketch.</desc>
    <g id="icons" stroke="none" stroke-width="1" fill="none" fill-rule="evenodd">
        <g id="Artboard" transform="translate(-6905.000000, -1555.000000)" fill-rule="nonzero">
            <g id="bili-life" transform="translate(6904.500000, 1555.000000)">
                <path d="M704.408,532.064 L704.408,372.32 C704.059681,295.194767 651.299732,228.189632 576.408,209.76 L568.472,207.968 L568.472,352.864 C568.385761,356.474797 566.71532,359.864799 563.904604,362.133096 C561.093888,364.401393 557.427573,365.318247 553.88,364.64 C543.83005,362.791679 533.634471,361.84923 523.416,361.824 L384.664,361.824 L384.664,334.176 C384.579588,323.724569 388.84556,313.708808 396.44,306.528 C434.675239,271.964142 455.823996,222.367501 454.296,170.848 C449.912544,78.562295 376.085705,4.73545646 283.8,0.352 C236.230738,-1.03351157 190.130553,16.9176511 156.024578,50.1070587 C121.918602,83.2964663 102.718556,128.890649 102.808,176.48 L102.808,277.6 L135.064,277.6 C139.996908,284.28752 145.295655,290.697295 150.936,296.8 C157.275599,303.793101 160.669073,312.96465 160.408,322.4 L160.408,364.896 C58.38858,383.038249 -11.3093454,478.224413 2.2,580.96 C17.3395479,677.791076 101.319595,748.792389 199.32,747.616 L524.44,747.616 C539.856216,747.94656 555.229843,745.873711 570.008,741.472 C593.037465,734.523746 614.751986,723.796254 634.264,709.728 C640.668675,704.939487 646.741271,699.722187 652.44,694.112 L657.048,689.76 C687.287167,660.390121 704.368,620.042423 704.408,577.888 L704.408,542.048 C704.92,538.976 704.664,535.392 704.408,532.064 L704.408,532.064 Z" id="Path" fill="#FFCC80"></path>
                <path d="M291.736,106.592 C269.538571,106.592 251.544,124.586571 251.544,146.784 C251.544,168.981429 269.538571,186.976 291.736,186.976 C313.933429,186.976 331.928,168.981429 331.928,146.784 C331.928,136.124419 327.693498,125.901426 320.156036,118.363964 C312.618574,110.826502 302.395581,106.592 291.736,106.592 L291.736,106.592 Z M146.584,230.752 L40.6,230.752 C27.4957294,229.625209 14.8749968,235.979295 7.97574025,247.177144 C1.07648374,258.374993 1.07648374,272.505007 7.97574025,283.702856 C14.8749968,294.900705 27.4957294,301.254791 40.6,300.128 L146.84,300.128 C159.944271,301.254791 172.565003,294.900705 179.46426,283.702856 C186.363516,272.505007 186.363516,258.374993 179.46426,247.177144 C172.565003,235.979295 159.944271,229.625209 146.84,230.752 L146.584,230.752 Z" id="Shape" fill="#FF9900"></path>
            </g>
        </g>
    </g>
</svg>