<?xml version="1.0" encoding="UTF-8"?>
<svg width="842px" height="806px" viewBox="0 0 842 806" version="1.1" xmlns="http://www.w3.org/2000/svg" xmlns:xlink="http://www.w3.org/1999/xlink">
    <!-- Generator: Sketch 61.2 (89653) - https://sketch.com -->
    <title>bili-icon_dingdao_wenzhangtougao</title>
    <desc>Created with Sketch.</desc>
    <g id="icons" stroke="none" stroke-width="1" fill="none" fill-rule="evenodd">
        <g id="Artboard" transform="translate(-5729.000000, 0.000000)" fill="#6A6A6A" fill-rule="nonzero">
            <g id="bili-icon_dingdao_wenzhangtougao" transform="translate(5729.000000, 0.000000)">
                <path d="M658.571429,527.854857 L658.571429,659 C658.571429,679.197843 642.197843,695.571429 622,695.571429 C601.802157,695.571429 585.428571,679.197843 585.428571,659 L585.428571,527.854857 L538.141714,575.141714 C523.791855,589.001253 500.982053,588.803034 486.875223,574.696205 C472.768394,560.589375 472.570175,537.779573 486.429714,523.429714 L596.144,413.715429 C610.425138,399.438604 633.574862,399.438604 647.856,413.715429 L757.570286,523.429714 C771.429825,537.779573 771.231606,560.589375 757.124777,574.696205 C743.017947,588.803034 720.208145,589.001253 705.858286,575.141714 L658.571429,527.854857 Z M768.285714,695.571429 L747.696,695.571429 C727.498157,695.571429 711.124571,679.197843 711.124571,659 C711.124571,638.802157 727.498157,622.428571 747.696,622.428571 L782,622.428571 C813.268571,622.428571 841.428571,644.956571 841.428571,677.285714 L841.428571,750.428571 C841.428571,782.757714 813.268571,805.285714 782,805.285714 L462,805.285714 C430.731429,805.285714 402.571429,782.757714 402.571429,750.428571 L402.571429,677.285714 C402.571429,644.956571 430.731429,622.428571 462,622.428571 L496.304,622.428571 C516.501843,622.428571 532.875429,638.802157 532.875429,659 C532.875429,679.197843 516.501843,695.571429 496.304,695.571429 L475.714286,695.571429 L475.714286,732.142857 L768.285714,732.142857 L768.285714,695.571429 L768.285714,695.571429 Z M292.857143,732.142857 C313.052624,732.146197 329.422525,748.518805 329.422525,768.714286 C329.422525,788.909766 313.052624,805.285748 292.857143,805.285748 L78.658286,805.285748 C57.8856515,805.305121 37.9566339,797.069329 23.2578719,782.391144 C8.55910989,767.712959 0.295407395,747.795498 0.285714,727.022857 L0.285714,78.977143 C0.285714,35.749714 35.394286,0.714286 78.658286,0.714286 L580.198857,0.714286 C623.462857,0.714286 658.571429,35.749714 658.571429,78.977143 L658.571429,293.285714 C658.571429,313.483557 642.197843,329.857143 622,329.857143 C601.802157,329.857143 585.428571,313.483557 585.428571,293.285714 L585.428571,78.977143 C585.388445,76.1233523 583.052857,73.8367621 580.198857,73.857143 L78.658286,73.857143 C75.8042856,73.8367615 73.4686965,76.1233519 73.428571,78.977143 L73.428571,727.022857 C73.428571,729.838857 75.732571,732.142857 78.658286,732.142857 L292.857143,732.142857 Z M169.428571,220.142857 L489.428571,220.142857 C497.594642,220.142857 505.140403,224.499403 509.223438,231.571428 C513.306474,238.643453 513.306474,247.356547 509.223438,254.428572 C505.140403,261.500597 497.594642,265.857143 489.428571,265.857143 L169.428571,265.857143 C161.2625,265.857143 153.716739,261.500597 149.633704,254.428572 C145.550668,247.356547 145.550668,238.643453 149.633704,231.571428 C153.716739,224.499403 161.2625,220.142857 169.428571,220.142857 Z M169.428571,329.857143 L489.428571,329.857143 C502.052223,329.857143 512.285714,340.090634 512.285714,352.714286 C512.285714,365.337938 502.052223,375.571429 489.428571,375.571429 L169.428571,375.571429 C156.804919,375.571429 146.571428,365.337938 146.571428,352.714286 C146.571428,340.090634 156.804919,329.857143 169.428571,329.857143 Z M169.428571,439.571428 L343.142857,439.571428 C351.310066,439.569721 358.85761,443.925894 362.941708,450.99862 C367.025805,458.071346 367.025805,466.785797 362.941708,473.858523 C358.85761,480.931249 351.310066,485.287422 343.142857,485.285715 L169.428571,485.285715 C161.261362,485.287422 153.713818,480.931249 149.62972,473.858523 C145.545623,466.785797 145.545623,458.071346 149.62972,450.99862 C153.713818,443.925894 161.261362,439.569721 169.428571,439.571428 L169.428571,439.571428 Z" id="Shape"></path>
            </g>
        </g>
    </g>
</svg>