<?xml version="1.0" encoding="UTF-8"?>
<svg width="842px" height="806px" viewBox="0 0 842 806" version="1.1" xmlns="http://www.w3.org/2000/svg" xmlns:xlink="http://www.w3.org/1999/xlink">
    <!-- Generator: Sketch 61.2 (89653) - https://sketch.com -->
    <title>bili-icon_dingdao_yinpintougao</title>
    <desc>Created with Sketch.</desc>
    <g id="icons" stroke="none" stroke-width="1" fill="none" fill-rule="evenodd">
        <g id="Artboard" transform="translate(-6836.000000, 0.000000)" fill="#6A6A6A" fill-rule="nonzero">
            <g id="bili-icon_dingdao_yinpintougao" transform="translate(6836.000000, 0.000000)">
                <path d="M658.571429,527.854857 L658.571429,659 C658.571429,679.197843 642.197843,695.571429 622,695.571429 C601.802157,695.571429 585.428571,679.197843 585.428571,659 L585.428571,527.854857 L538.141714,575.141714 C523.791855,589.001253 500.982053,588.803034 486.875223,574.696205 C472.768394,560.589375 472.570175,537.779573 486.429714,523.429714 L596.144,413.715429 C610.425138,399.438604 633.574862,399.438604 647.856,413.715429 L757.570286,523.429714 C771.429825,537.779573 771.231606,560.589375 757.124777,574.696205 C743.017947,588.803034 720.208145,589.001253 705.858286,575.141714 L658.571429,527.854857 Z M0.285714,653.88 L0.285714,359.114286 C0.285714,161.189714 165.332571,0.711900096 367.353143,0.711900096 C466.72137,0.3558035 561.966171,40.4074635 631.216,111.672 C663.530116,144.95141 689.056355,184.203437 706.370286,227.237714 C714.784178,248.250895 721.152684,270.026285 725.387429,292.261714 C728.66858,311.861944 715.697171,330.495213 696.17684,334.222364 C676.656508,337.949515 657.732356,325.406285 653.561143,305.976 C650.192419,288.366437 645.134369,271.12253 638.457143,254.483429 C624.690204,220.261356 604.393541,189.046229 578.699429,162.579429 C523.225541,105.526941 446.928324,73.4976883 367.353143,73.857143 C205.305143,73.857143 73.428571,202.04 73.428571,359.114286 L73.428571,439.754286 C75.147428,439.644572 76.866285,439.571429 78.548571,439.571429 L136.258286,439.571429 C202.547604,439.57143 256.285714,493.309539 256.285714,559.598857 L256.285714,612.115429 C256.285714,678.404747 202.547604,732.142866 136.258286,732.142866 L78.585143,732.142866 C57.822207,732.152559 37.9063463,723.911316 23.2213027,709.233131 C8.53625916,694.554947 0.285714,674.642938 0.285714,653.88 Z M73.428571,517.907429 L73.428571,653.88 C73.428571,656.732571 75.732571,659.036571 78.548571,659.036571 L136.258286,659.036571 C162.150857,659 183.142857,638.008 183.142857,612.115429 L183.142857,559.598857 C183.142857,533.706286 162.150857,512.714155 136.258286,512.714155 L78.585143,512.714155 C77.2209091,512.704541 75.9092019,513.239663 74.9410913,514.200908 C73.9729806,515.162152 73.428571,516.470017 73.428571,517.834286 L73.428571,517.907429 Z M768.285714,695.571429 L747.696,695.571429 C727.498157,695.571429 711.124571,679.197843 711.124571,659 C711.124571,638.802157 727.498157,622.428571 747.696,622.428571 L782,622.428571 C813.268571,622.428571 841.428571,644.956571 841.428571,677.285714 L841.428571,750.428571 C841.428571,782.757714 813.268571,805.285714 782,805.285714 L462,805.285714 C430.731429,805.285714 402.571429,782.757714 402.571429,750.428571 L402.571429,677.285714 C402.571429,644.956571 430.731429,622.428571 462,622.428571 L496.304,622.428571 C516.501843,622.428571 532.875429,638.802157 532.875429,659 C532.875429,679.197843 516.501843,695.571429 496.304,695.571429 L475.714286,695.571429 L475.714286,732.142857 L768.285714,732.142857 L768.285714,695.571429 L768.285714,695.571429 Z" id="Shape"></path>
            </g>
        </g>
    </g>
</svg>