<?xml version="1.0" encoding="UTF-8"?>
<svg width="744px" height="730px" viewBox="0 0 744 730" version="1.1" xmlns="http://www.w3.org/2000/svg" xmlns:xlink="http://www.w3.org/1999/xlink">
    <!-- Generator: Sketch 61.2 (89653) - https://sketch.com -->
    <title>bili-technology</title>
    <desc>Created with Sketch.</desc>
    <g id="icons" stroke="none" stroke-width="1" fill="none" fill-rule="evenodd">
        <g id="Artboard" transform="translate(-5778.000000, -4478.000000)" fill-rule="nonzero">
            <g id="bili-technology" transform="translate(5778.000000, 4478.000000)">
                <path d="M352.270933,0.72820325 C466.536075,0.433367903 567.087243,76.0877186 598.4611,185.961698 C629.834958,295.835677 584.392715,413.177573 487.2,473.2624 L487.2,524.4624 C486.588382,540.054335 476.397005,553.642839 461.6,558.595733 L239.733333,558.595733 C225.964764,552.294209 216.327597,539.444653 214.133333,524.4624 L214.133333,473.2624 C118.435633,411.740891 74.6601732,294.560456 106.582113,185.363681 C138.504052,76.1669064 238.504229,1.01699088 352.270933,0.72820325 L352.270933,0.72820325 Z" id="Path" fill="#FF9900"></path>
                <path d="M410.4,387.929067 L410.4,311.129067 L461.6,311.129067 C508.209067,311.129067 512.8,284.342934 512.8,268.4624 L512.8,140.4624 C512.8,117.3456 495.5968,97.795733 461.6,97.795733 L248.266667,97.795733 C206.1632,97.795733 188.533333,118.9072 188.533333,140.4624 L188.533333,217.2624 L290.933333,217.2624 L290.933333,148.995733 L410.4,148.995733 L410.4,268.4624 L359.2,268.4624 C298.698667,267.8992 282.4,292.867733 282.4,311.129067 L282.4,387.929067 L410.4,387.929067 Z M347.7312,412.4624 C380.721009,412.4624 407.464533,439.205924 407.464533,472.195733 C407.464533,505.185542 380.721009,531.929066 347.7312,531.929066 C314.741391,531.929066 287.997867,505.185542 287.997867,472.195733 C287.997867,439.205924 314.741391,412.4624 347.7312,412.4624 L347.7312,412.4624 Z" id="Shape" fill="#FFE6C0"></path>
                <path d="M214.133333,592.7376 L487.2,592.7376 L487.2,601.270933 C487.2,671.963381 429.892448,729.270933 359.2,729.270933 L342.133333,729.270933 C271.440885,729.270933 214.133333,671.963381 214.133333,601.270933 L214.133333,592.7376 Z" id="Path" fill="#FFE6C0"></path>
                <path d="M606.666667,63.6624 L726.133333,63.6624 C735.557379,63.6646812 743.195869,71.3050199 743.195869,80.7290665 C743.195869,90.1531131 735.557379,97.7934518 726.133333,97.795733 L606.666667,97.795733 C597.242621,97.7934518 589.604131,90.1531131 589.604131,80.7290665 C589.604131,71.3050199 597.242621,63.6646812 606.666667,63.6624 L606.666667,63.6624 Z M666.4,3.929067 C675.82566,3.929067 683.466667,11.5700735 683.466667,20.995733 L683.466667,140.4624 C683.466667,149.88806 675.82566,157.529067 666.4,157.529067 C656.97434,157.529067 649.333333,149.88806 649.333333,140.4624 L649.333333,20.995733 C649.333333,11.5700735 656.97434,3.929067 666.4,3.929067 L666.4,3.929067 Z" id="Shape" fill="#FFCC80"></path>
                <path d="M17.866667,515.929067 L137.333333,515.929067 C146.757379,515.931348 154.395869,523.571687 154.395869,532.995733 C154.395869,542.41978 146.757379,550.060119 137.333333,550.0624 L17.866667,550.0624 C8.44262065,550.060119 0.804131182,542.41978 0.804131182,532.995733 C0.804131182,523.571687 8.44262065,515.931348 17.866667,515.929067 L17.866667,515.929067 Z M77.6,456.195733 C87.0256599,456.195733 94.666667,463.83674 94.666667,473.2624 L94.666667,592.729067 C94.666667,602.154727 87.0256599,609.795734 77.6,609.795734 C68.1743401,609.795734 60.533333,602.154727 60.533333,592.729067 L60.533333,473.2624 C60.533333,463.83674 68.1743401,456.195733 77.6,456.195733 L77.6,456.195733 Z" id="Shape" fill="#FFCC80"></path>
                <polygon id="Path" fill="#FFCC80" points="60.533333 515.9376 94.666667 515.9376 94.666667 550.070933 60.533333 550.070933"></polygon>
                <polygon id="Path" fill="#FFCC80" points="649.333333 63.670933 683.466667 63.670933 683.466667 97.804267 649.333333 97.804267"></polygon>
            </g>
        </g>
    </g>
</svg>