<?xml version="1.0" encoding="UTF-8"?>
<svg width="955px" height="739px" viewBox="0 0 955 739" version="1.1" xmlns="http://www.w3.org/2000/svg" xmlns:xlink="http://www.w3.org/1999/xlink">
    <!-- Generator: Sketch 61.2 (89653) - https://sketch.com -->
    <title>bili-icon_xinxi_renqi</title>
    <desc>Created with Sketch.</desc>
    <g id="icons" stroke="none" stroke-width="1" fill="none" fill-rule="evenodd">
        <g id="Artboard" transform="translate(-8961.000000, -10002.000000)" fill="#6A6A6A" fill-rule="nonzero">
            <g id="bili-icon_xinxi_renqi" transform="translate(8961.500000, 10002.000000)">
                <path d="M675.56,504.128 C780.648,504.128 865.32,422.848 865.32,323.136 C865.32,246.464 814.76,178.624 740.008,152.896 C723.289237,147.152238 714.39224,128.942764 720.136001,112.224 C725.879762,95.5052367 744.089236,86.6082392 760.808,92.352 C860.904,126.784 929.32,218.56 929.32,323.136 C929.32,409.536 883.112,485.312 813.352,528.896 C862.12,547.136 906.6,574.976 944.168,611.008 C956.927987,623.255467 957.343467,643.528013 945.096,656.288 C932.848533,669.047987 912.575987,669.463467 899.816,657.216 C839.413868,599.651624 759.062061,567.72193 675.624,568.128 C657.950888,568.128 643.624,553.801112 643.624,536.128 C643.624,518.454888 657.950888,504.128 675.624,504.128 L675.56,504.128 Z M194.28,572.352 C97.96,519.936 32.744,420.352 32.744,305.792 C32.68,136.576 174.952,0 349.8,0 C524.648,0 666.856,136.576 666.856,305.792 C666.856,420.352 601.64,519.936 505.256,572.352 C573.887553,594.847849 636.592394,632.466379 688.744,682.432 C696.998264,690.354722 700.398797,702.079216 697.664651,713.188979 C694.930505,724.298743 686.477061,733.105938 675.488651,736.292979 C664.500241,739.480021 652.646264,736.562722 644.392,728.64 C565.03256,652.97714 459.447246,610.999924 349.8,611.52 C240.130654,610.983348 134.519413,652.961752 55.144,728.64 C46.9947813,737.04539 34.9059724,740.329644 23.6238463,737.203309 C12.3417201,734.076975 3.66742053,725.039157 1.00662558,713.638257 C-1.65416936,702.237358 2.12332505,690.293482 10.856,682.496 C63.0012702,632.507293 125.706599,594.866599 194.344,572.352 L194.28,572.352 Z M349.8,547.584 C489.832,547.584 602.856,439.04 602.856,305.792 C602.856,172.544 489.832,64 349.8,64 C209.704,64 96.68,172.544 96.68,305.792 C96.68,439.04 209.704,547.584 349.8,547.584 Z" id="Shape"></path>
            </g>
        </g>
    </g>
</svg>