<?xml version="1.0" encoding="UTF-8"?>
<svg width="746px" height="746px" viewBox="0 0 746 746" version="1.1" xmlns="http://www.w3.org/2000/svg" xmlns:xlink="http://www.w3.org/1999/xlink">
    <!-- Generator: Sketch 61.2 (89653) - https://sketch.com -->
    <title>bili-icon_dingdao_yuyanshezhi</title>
    <desc>Created with Sketch.</desc>
    <g id="icons" stroke="none" stroke-width="1" fill="none" fill-rule="evenodd">
        <g id="Artboard" transform="translate(-3563.000000, -5759.000000)" fill="#6A6A6A" fill-rule="nonzero">
            <g id="bili-icon_dingdao_yuyanshezhi" transform="translate(3563.000000, 5759.000000)">
                <path d="M684.761455,467.952727 C694.109156,437.169378 698.846124,405.171312 698.818305,373 C698.846124,340.828688 694.109156,308.830622 684.761455,278.047273 C681.848899,279.290941 678.712386,279.92458 675.545455,279.909091 L553.317091,279.909091 C557.133818,309.698182 559.181818,340.883636 559.181818,373 C559.181818,405.116364 557.133818,436.301818 553.317091,466.090909 L675.545455,466.090909 C678.803637,466.090909 681.922182,466.789091 684.761455,467.952727 L684.761455,467.952727 Z M667.446545,512.636364 L545.683636,512.636364 C531.72,581.802909 507.609454,640.636364 477.075636,681.875636 C560.811211,653.533405 629.492195,592.476178 667.446545,512.636364 L667.446545,512.636364 Z M61.238545,467.952727 C64.1511009,466.709059 67.2876141,466.07542 70.454545,466.090909 L192.682909,466.090909 C188.866182,436.301818 186.818182,405.116364 186.818182,373 C186.818182,340.883636 188.866182,309.698182 192.682909,279.909091 L70.454545,279.909091 C67.2876141,279.92458 64.1511009,279.290941 61.238545,278.047273 C51.8908443,308.830622 47.1538758,340.828688 47.1816951,373 C47.1538758,405.171312 51.8908443,437.169378 61.238545,467.952727 L61.238545,467.952727 Z M78.553455,512.636364 C116.507805,592.476178 185.188789,653.533405 268.924364,681.875636 C238.483636,640.636364 214.419636,581.802909 200.409455,512.636364 L78.553455,512.636364 L78.553455,512.636364 Z M506.306182,466.090909 C510.546538,435.242283 512.661583,404.138685 512.636587,373 C512.661583,341.861315 510.546538,310.757717 506.306182,279.909091 L239.693818,279.909091 C235.453462,310.757717 233.338417,341.861315 233.363413,373 C233.363413,405.488727 235.597818,436.720727 239.693818,466.090909 L506.306182,466.090909 L506.306182,466.090909 Z M498.067636,512.636364 L247.932364,512.636364 C272.275637,623.786909 323.429091,698.818182 373,698.818182 C422.570909,698.818182 473.724364,623.786909 498.067636,512.636364 L498.067636,512.636364 Z M667.493091,233.363636 C629.517328,153.504967 560.799658,92.444985 477.029091,64.124364 C507.562909,105.363637 531.626909,164.197091 545.637091,233.363636 L667.446545,233.363636 L667.493091,233.363636 Z M78.506909,233.363636 L200.316364,233.363636 C214.28,164.197091 238.390546,105.363636 268.924364,64.124364 C185.188789,92.4665954 116.507805,153.523822 78.553455,233.363636 L78.506909,233.363636 Z M498.021091,233.363636 C473.724364,122.213091 422.570909,47.181818 373,47.181818 C323.429091,47.181818 272.275636,122.213091 247.932364,233.363636 L498.067636,233.363636 L498.021091,233.363636 Z M373,745.363636 C239.967285,745.363636 117.039985,674.39153 50.5236272,559.18182 C-15.9927311,443.972109 -15.9927311,302.027891 50.5236272,186.81818 C117.039985,71.6084697 239.967285,0.636364 373,0.636364 C578.650758,0.636364 745.363636,167.349242 745.363636,373 C745.363636,578.650758 578.650758,745.363636 373,745.363636 L373,745.363636 Z" id="Shape"></path>
            </g>
        </g>
    </g>
</svg>