<?xml version="1.0" encoding="UTF-8"?>
<svg width="625px" height="813px" viewBox="0 0 625 813" version="1.1" xmlns="http://www.w3.org/2000/svg" xmlns:xlink="http://www.w3.org/1999/xlink">
    <!-- Generator: Sketch 61.2 (89653) - https://sketch.com -->
    <title>bili-fashion</title>
    <desc>Created with Sketch.</desc>
    <g id="icons" stroke="none" stroke-width="1" fill="none" fill-rule="evenodd">
        <g id="Artboard" transform="translate(-4730.000000, -8591.000000)" fill-rule="nonzero">
            <g id="bili-fashion" transform="translate(4730.500000, 8591.000000)">
                <path d="M491.2,89.8 C506.70995,94.7405177 518.228965,107.834782 521.152,123.848 C525.638829,150.187839 521.034774,177.270513 508.096,200.648 C508.096,200.648 488.896,230.6 483.776,240.584 C466.895298,273.72506 458.121518,310.39946 458.176,347.592 L458.176,388.296 L165.312,388.296 L165.312,348.872 C165.366482,311.67946 156.592702,275.00506 139.712,241.864 C134.592,231.88 115.392,201.928 115.392,201.928 C102.453226,178.550513 97.8491711,151.467839 102.336,125.128 C105.668025,107.455108 119.300598,93.5195891 136.896,89.8 L136.896,32.712 C135.857117,16.5296486 147.88505,2.45923659 164.032,0.968 C180.383672,2.19716493 192.707199,16.3463989 191.68,32.712 L191.68,106.44 C228.168798,127.815364 269.711341,139.040689 312,138.952 C356.150009,138.928449 399.44815,126.797886 437.184,103.88 L437.184,32.712 C435.732939,22.223006 440.51566,11.8480435 449.433759,6.13909589 C458.351858,0.430148308 469.776142,0.430148308 478.694241,6.13909589 C487.61234,11.8480435 492.395061,22.223006 490.944,32.712 L491.2,89.8 Z" id="Path" fill="#FF9900"></path>
                <path d="M458.432,372.936 L165.312,372.936 L4.8,665.288 C-3.87922848,681.199732 0.488715185,701.073875 15.04,711.88 C191.028141,845.526738 434.507859,845.526738 610.496,711.88 C624.832725,700.491369 628.55056,680.26197 619.2,664.52 L458.432,372.936 Z" id="Path" fill="#FFCC80"></path>
                <path d="M209.6,422.6 C207.196646,421.370223 204.397709,421.16616 201.841399,422.034341 C199.285088,422.902522 197.189332,424.768933 196.032,427.208 L71.872,677.832 C69.6017377,682.862763 71.6155575,688.792344 76.48,691.4 C78.0066408,691.639797 79.5613592,691.639797 81.088,691.4 C84.9058336,691.390219 88.3838232,689.204054 90.048,685.768 L214.208,434.888 C215.843473,430.21664 213.903785,425.044139 209.6,422.6 Z M255.936,528.072 C253.355739,527.457301 250.636928,527.894624 248.379579,529.287456 C246.122231,530.680288 244.511911,532.914131 243.904,535.496 L203.456,706.248 C202.164252,711.683395 205.46761,717.151022 210.88,718.537439 L213.184,718.537439 C217.928126,718.617069 222.038647,715.263749 222.912,710.6 L263.36,539.848 C264.48113,534.560182 261.190426,529.340445 255.936,528.072 L255.936,528.072 Z M550.848,676.808 L426.688,426.184 C423.997283,422.175477 418.823795,420.666543 414.4,422.6 C409.570989,425.108157 407.547028,430.955156 409.792,435.912 L533.952,686.792 C535.616177,690.228054 539.094166,692.414219 542.912,692.424 C544.438641,692.663797 545.993359,692.663797 547.52,692.424 C550.220672,690.960609 552.144771,688.387632 552.785011,685.383429 C553.425251,682.379226 552.71737,679.245334 550.848,676.808 Z M379.84,535.496 C378.567536,530.123374 373.180626,526.799536 367.808,528.072 C362.435374,529.344464 359.111536,534.731374 360.384,540.104 L400.832,710.856 C401.705353,715.519749 405.815874,718.873069 410.56,718.793439 L412.864,718.793439 C418.27639,717.407022 421.579748,711.939395 420.288,706.504 L379.84,535.496 Z" id="Shape" fill="#FF9900"></path>
            </g>
        </g>
    </g>
</svg>