<?xml version="1.0" encoding="UTF-8"?>
<svg width="2240px" height="1024px" viewBox="0 0 2240 1024" version="1.1" xmlns="http://www.w3.org/2000/svg" xmlns:xlink="http://www.w3.org/1999/xlink">
    <!-- Generator: Sketch 61.2 (89653) - https://sketch.com -->
    <title>bili-Navbar_logo</title>
    <desc>Created with Sketch.</desc>
    <g id="icons" stroke="none" stroke-width="1" fill="none" fill-rule="evenodd">
        <g id="Artboard" transform="translate(-1101.000000, 0.000000)" fill="#FF9900" fill-rule="nonzero">
            <g id="bili-Navbar_logo" transform="translate(1101.000000, 0.000000)">
                <path d="M2079.81005,913.566175 C2069.79696,913.566175 2061.25544,914.365943 2052.87388,913.406221 C2035.88681,911.454788 2018.89975,911.838677 2001.8807,911.326826 C1990.90788,911.03891 1991.22779,911.03891 1990.30006,900.417996 C1987.58085,868.011414 1984.60572,835.636823 1981.69456,803.262232 C1979.1673,774.822497 1976.76799,746.350772 1973.9848,717.943028 C1971.45754,691.902596 1968.41842,665.926145 1965.66722,639.917704 C1963.04398,615.476807 1960.61269,591.00392 1957.89348,566.595013 C1954.44417,535.871016 1950.88252,505.159737 1947.20859,474.46179 C1943.91354,447.333674 1940.65049,420.141577 1937.00355,393.045451 C1931.28983,351.034346 1925.44617,309.041016 1919.47265,267.066064 C1913.07451,222.343062 1905.39674,177.843994 1897.36707,133.408908 C1895.92749,125.443223 1896.11943,125.155307 1903.73322,123.875679 C1935.40402,118.46925 1967.23477,113.862589 1999.4494,114.566384 C2002.93639,114.662356 2006.45537,114.726338 2009.91036,115.174207 C2015.57272,115.878002 2018.51586,118.629203 2018.83577,125.219288 C2019.95544,148.188613 2021.55498,171.157937 2023.25049,194.095271 C2025.9697,231.684347 2028.91284,269.273422 2031.72802,306.830507 C2033.5195,331.015478 2035.05506,355.136468 2036.87853,379.257458 C2039.78968,418.03019 2042.86079,456.770931 2045.80393,495.543663 C2047.59541,519.248774 2049.16296,543.017866 2050.98643,566.722976 C2053.76962,601.528861 2056.80873,636.302754 2059.62391,671.076648 C2061.41539,693.214214 2063.01493,715.383771 2064.90238,737.521338 C2067.68557,770.311808 2070.6927,803.102279 2073.53987,835.892749 C2075.68325,861.485311 2077.63468,887.141855 2079.81005,913.566175 L2079.81005,913.566175 Z M853.670395,114.918282 C858.309047,114.918282 865.315011,114.406431 872.225002,115.046245 C881.022445,115.846013 882.717952,118.117352 883.261795,126.946786 C885.789061,167.319053 888.156373,207.72331 890.843591,248.127568 C893.786736,291.698905 897.017797,335.206261 900.248858,378.713616 C903.223993,418.670004 906.199129,458.626391 909.398199,498.582779 C912.885186,542.474023 916.756061,586.301286 920.275038,630.19253 C922.930266,663.814759 925.201606,697.436987 927.952806,731.091207 C930.576044,762.314133 933.647151,793.473077 936.462333,824.664012 C938.861636,851.504212 941.292929,878.376402 943.628251,905.248592 C944.364037,913.758119 943.756214,914.301961 934.574882,914.078026 C910.549864,913.502193 886.652809,910.687012 862.627791,911.358816 C857.12539,911.51877 855.525855,908.991504 854.598125,903.77702 C852.614701,892.420321 852.934608,880.871677 851.718962,869.387014 C848.42392,839.027837 846.536468,808.540697 843.753277,778.11754 C841.258002,750.477573 838.250876,722.901587 835.403703,695.29361 C832.876437,670.052946 830.381163,644.812281 827.693944,619.539626 C825.006725,594.746831 822.159552,569.922046 819.344371,545.097261 C816.753124,522.255899 814.225859,499.414538 811.474658,476.573176 C807.411839,443.110901 803.38101,409.648626 798.966293,376.250332 C794.903474,345.603239 790.296813,315.052118 785.978068,284.437015 C780.091779,242.849101 773.469703,201.35716 766.143832,160.025173 C764.469297,150.666022 762.699052,141.324247 760.833375,132.001317 C759.873654,127.298684 760.737403,124.579474 766.111841,123.843688 C780.251732,121.956237 794.359631,119.013092 808.563504,117.637492 C822.767376,116.325873 836.971248,113.670645 853.670395,114.918282 L853.670395,114.918282 Z M1859.746,518.257062 C1886.81014,518.257062 1887.44995,518.449006 1891.80069,542.793931 C1897.14314,572.833201 1900.88605,603.128396 1904.43702,633.423591 C1908.17993,665.70221 1911.95483,697.980829 1915.40983,730.291439 C1918.19302,756.29988 1920.52834,782.372303 1923.15158,808.380744 C1925.90278,835.636823 1928.81393,862.796929 1931.6611,890.021018 C1933.22865,905.408546 1934.70022,920.796074 1936.45971,936.151611 C1936.97156,940.598319 1935.62795,942.965631 1931.24522,943.477482 C1921.99991,944.533175 1912.81858,945.748822 1903.60526,946.740534 C1886.71417,948.564004 1869.79108,950.355483 1852.868,951.923027 C1844.13454,952.722795 1843.55871,952.242934 1841.92718,943.797389 C1827.0835,867.179656 1812.20782,790.625904 1797.4921,713.976181 C1787.70294,663.014992 1778.16971,612.021811 1768.5725,561.060622 C1767.28495,554.049494 1766.09053,547.021584 1764.98954,539.978749 C1764.34973,535.94792 1765.43741,533.356674 1770.01208,532.268989 C1800.49922,525.135062 1831.30627,519.632661 1859.746,518.257062 L1859.746,518.257062 Z M722.668467,518.257062 C751.620053,518.257062 751.49209,518.353034 755.970789,544.617401 C762.880781,585.277584 767.775358,626.161702 772.158084,667.173783 C776.444838,706.970217 781.115481,746.734661 785.306263,786.531094 C788.153436,813.755182 790.392785,841.043251 793.048013,868.235349 C794.935464,887.589724 797.174814,906.880118 799.222219,926.202502 C799.478145,928.569814 799.606107,930.937126 799.766061,933.336429 C800.18194,942.805677 799.766061,943.573454 790.64871,944.501184 C772.573963,946.388635 754.467225,947.95618 736.392478,949.74766 C729.834384,950.387474 723.308281,951.347195 716.814168,951.987009 C708.176678,952.786777 707.888762,952.754786 706.193255,944.021324 C700.115021,913.34224 694.228732,882.599175 688.278462,851.920091 C674.010609,778.021568 659.582802,704.187026 645.41092,630.288502 C639.748566,600.729093 634.885979,571.041721 629.319597,541.450321 C628.295895,536.043892 629.063671,533.516627 634.662044,532.205008 C664.861267,525.167053 695.252435,519.664653 722.668467,518.257062 L722.668467,518.257062 Z M1104.79741,828.119008 L1104.79741,952.146962 C1104.79741,953.330618 1104.66945,954.546265 1104.8294,955.729921 C1105.43722,961.744173 1103.22987,964.399401 1097.02367,964.143476 C1088.86604,963.791578 1080.77239,964.015513 1072.61476,964.207457 C1055.59571,964.527364 1038.54467,963.855559 1021.5576,965.806992 C1012.15234,966.894676 1012.34428,966.318843 1011.41655,956.401726 C1008.63336,925.1788 1005.59424,893.987865 1002.74707,862.764939 C1000.12383,833.941316 997.756519,805.053711 995.069301,776.230088 C992.350091,746.574707 989.310975,717.015297 986.559774,687.391907 C984.672323,667.621653 983.008806,647.883389 981.345289,628.113135 C979.169921,602.39261 977.154507,576.704076 974.883167,550.98355 C973.923446,540.138702 974.723213,538.603148 985.47209,537.483474 C1013.20361,534.430382 1041.13237,533.563959 1068.99981,534.892227 C1075.9418,535.276115 1082.85179,536.619725 1089.56984,538.251251 C1098.04737,540.266665 1098.9751,541.514303 1099.42297,550.375727 C1100.3507,568.226539 1101.27843,586.077351 1101.75829,603.960154 C1102.30214,623.82638 1101.85427,643.724597 1102.59005,663.590824 C1104.44551,718.390898 1104.1576,773.254953 1104.79741,828.119008 L1104.79741,828.119008 Z M2239.60361,833.749372 L2239.60361,951.187241 C2239.60361,953.170665 2239.53963,955.154088 2239.6356,957.169503 C2240.05148,962.320006 2237.65217,964.143476 2232.7576,964.111485 C2220.72909,964.015513 2208.73258,964.111485 2196.73607,964.271439 C2183.17201,964.399402 2169.63994,964.33542 2156.10787,965.806992 C2147.18247,966.830694 2147.11849,966.15889 2146.31872,957.297465 C2142.63979,916.637282 2138.76891,875.977099 2135.05799,835.252935 C2131.66698,797.727841 2128.53189,760.170756 2125.07689,722.61367 C2121.52592,683.872929 2117.65505,645.22816 2114.16806,606.51941 C2112.44056,587.133044 2111.00098,567.746678 2109.5614,548.360313 C2108.98557,539.914767 2109.9133,538.411204 2119.44653,537.643427 C2136.01771,536.331808 2152.52492,534.092459 2169.22406,534.380376 C2185.85923,534.700283 2202.52638,533.772553 2219.06558,536.939632 C2233.07751,539.626851 2233.7813,540.426619 2234.61306,555.398267 C2237.01236,599.449465 2236.27658,643.628625 2237.84412,687.679823 C2239.44365,734.578193 2238.32398,781.476563 2239.60361,833.749372 Z M1831.49821,305.135 C1841.28737,305.710833 1848.99713,305.230972 1856.6749,306.926479 C1861.56947,308.046154 1864.03276,310.253512 1864.51262,315.499988 C1866.81595,340.740652 1869.31122,366.013308 1871.83849,391.285963 C1873.8539,411.792003 1875.99728,432.298044 1878.07668,452.804084 L1878.26862,453.98774 C1879.93214,466.911984 1879.54825,467.263882 1866.9759,467.967677 C1855.77916,468.5755 1844.6144,469.567212 1833.41766,470.239017 C1826.05979,470.686887 1823.72447,471.934524 1822.50883,461.217639 C1818.31804,423.404628 1813.45546,385.68759 1808.8168,347.90657 C1807.53146,337.288124 1806.10241,326.687566 1804.53005,316.107811 C1803.60232,310.12555 1805.93764,306.830507 1811.53601,306.350647 C1818.89388,305.678842 1826.25174,305.486898 1831.49821,305.135 L1831.49821,305.135 Z M698.099607,305.294954 C705.649413,305.710833 713.423154,305.135 721.036941,306.894489 C725.387677,307.886201 727.595035,309.709671 728.010914,314.66823 C728.938644,326.50479 730.762114,338.309359 731.881789,350.145919 C735.432757,386.455367 738.791781,422.796805 742.118814,459.138243 C742.822609,467.039947 742.662656,467.1999 735.272804,467.743742 C722.156616,468.703463 709.008437,469.663184 695.860258,470.207026 C688.21448,470.558924 687.254759,469.631193 686.295038,461.825462 C682.968005,435.081235 679.832916,408.305016 676.633846,381.528798 C674.042599,359.455213 671.867231,337.381628 668.732142,315.372025 C667.868393,309.293791 669.851817,307.630275 674.714404,306.638563 C682.424163,305.071019 690.165913,305.58287 698.099607,305.294954 L698.099607,305.294954 Z M1097.24761,405.29789 C1097.24761,428.299205 1097.31159,451.26853 1097.21561,474.301836 C1097.21561,484.634833 1097.08765,484.698814 1086.81864,484.570852 C1074.46505,484.635957 1062.11784,483.995098 1049.83738,482.651409 C1041.90369,481.659697 1041.74374,481.915623 1041.5198,473.502068 C1040.72003,445.38224 1039.88828,417.262413 1039.31244,389.142585 C1038.89656,370.108117 1038.67263,351.13763 1037.52096,332.103163 C1036.91314,322.282017 1037.45698,322.186045 1046.89424,322.058082 C1060.8102,321.898128 1074.69416,322.537943 1088.51414,324.649329 C1096.83173,325.928957 1097.21561,325.928957 1097.2476,335.142279 C1097.31159,358.527483 1097.31159,381.912686 1097.31159,405.329881 L1097.2476,405.329881 L1097.24761,405.29789 Z M2232.62964,405.905714 C2232.62964,428.93902 2232.69362,451.940335 2232.59764,474.94165 C2232.59764,484.602842 2232.43769,484.666824 2222.74451,484.602842 C2210.01551,484.486194 2197.29546,483.888608 2184.61159,482.811363 C2178.30942,482.331502 2176.45396,479.676274 2176.86984,473.949938 C2176.93382,473.15017 2176.86984,472.350403 2176.86984,471.550636 C2175.91012,427.147541 2174.9504,382.776436 2174.05466,338.37334 C2174.02267,336.006028 2173.8947,333.638716 2173.99068,331.239414 C2174.11864,322.282017 2174.15063,322.058082 2183.14002,322.122063 C2195.52042,322.186044 2207.80485,322.825858 2220.15326,324.041505 C2235.22088,325.545068 2232.56565,327.400529 2232.62964,339.301071 C2232.69362,361.470628 2232.66163,383.704166 2232.62964,405.905714 L2232.62964,405.905714 Z M667.036635,459.90602 C667.324551,472.542348 667.324551,472.510357 655.232066,475.453501 C647.010455,477.468915 638.788845,479.676274 630.503253,481.499744 C623.433308,483.099279 622.18567,482.203539 620.970023,475.261557 C612.524477,428.171243 604.110923,381.048938 595.729359,333.926633 C594.033852,324.169469 594.481722,323.561645 604.078932,321.866138 C615.883501,319.786742 627.65608,317.739337 639.460649,315.915867 C646.978464,314.732211 647.938185,315.14809 649.441749,323.433682 C652.416884,340.16482 655.232066,356.959938 657.439424,373.819039 C660.862429,400.499285 663.677611,427.275503 666.748719,453.98774 C667.004645,455.939173 666.940663,457.954587 667.036635,459.90602 L667.036635,459.90602 Z M1731.17537,323.209747 C1746.62688,320.682481 1762.20635,318.123225 1777.78582,315.659941 C1783.3842,314.796192 1785.0797,318.315169 1785.81549,323.305719 C1788.47072,341.732364 1791.79775,360.031046 1793.97312,378.489681 C1797.17219,405.233908 1801.55492,431.850173 1802.38667,458.818336 C1802.45065,461.569536 1802.41866,464.384718 1802.48265,467.135919 C1802.6426,471.422673 1800.49922,473.630032 1796.53238,474.557762 C1785.97544,476.925074 1775.41851,479.292386 1764.89357,481.819651 C1759.83904,483.035298 1758.14353,480.891921 1757.31177,475.965353 C1754.14469,457.218801 1750.49775,438.568222 1747.26669,419.885651 C1741.79628,389.110595 1736.48583,358.303548 1731.17537,327.496501 C1731.04741,326.376826 1731.17537,325.19317 1731.17537,323.209747 L1731.17537,323.209747 Z M1020.5339,431.24235 C1020.08603,447.62159 1021.07774,461.889443 1018.83839,476.157297 C1018.16659,480.667986 1016.85497,483.57914 1011.99238,483.995019 C1001.56341,484.858768 991.166435,485.690526 980.801447,486.746219 C975.778907,487.290061 974.371316,485.114693 973.539558,480.188125 C971.204237,465.632355 971.620116,450.884641 970.212525,436.264891 C967.557297,408.656915 966.437622,380.856994 964.646142,353.153045 C964.198272,346.403007 963.526467,339.71695 962.982626,332.966911 C962.69471,329.192008 964.198273,327.080622 968.229101,326.920669 C981.729178,326.376827 995.165273,323.913543 1008.72933,324.393403 C1016.66303,324.681319 1017.33483,325.193171 1017.91066,333.190846 C1018.26256,338.725238 1018.16659,344.323611 1018.29455,349.889993 L1020.5339,431.24235 L1020.5339,431.24235 Z M2155.43607,415.374962 C2155.43607,434.441421 2155.66,453.50788 2155.40408,472.574338 C2155.24412,482.491456 2154.12445,483.355205 2144.75117,484.218954 C2135.47387,485.082703 2126.26055,485.786498 2117.01524,486.77821 C2111.80075,487.322052 2109.36946,485.786498 2109.04955,479.804237 C2107.70594,454.4676 2105.88247,429.130964 2104.12298,403.826318 C2102.74738,382.840417 2101.17984,361.886507 2099.70827,340.932596 C2099.54831,338.533293 2099.67627,336.133991 2099.51632,333.766679 C2099.29239,329.575897 2100.57201,327.112613 2105.27465,326.952659 C2118.39084,326.504789 2131.41105,323.977524 2144.62321,324.457385 C2152.68487,324.745301 2152.81283,324.873264 2153.42066,333.254828 C2155.37209,360.574888 2155.56403,387.95893 2155.43607,415.374962 L2155.43607,415.374962 Z M628.295894,756.171918 C644.867078,774.406619 645.698836,796.000343 640.228426,818.585779 C634.726025,841.171215 622.18567,859.789804 606.990086,876.48895 C581.493496,904.384843 550.686449,924.986855 517.92797,942.48577 C461.528361,972.621012 401.737738,992.647192 339.355867,1004.48375 C294.472911,1012.96129 249.302039,1019.48739 203.651306,1021.98267 C189.73535,1022.75044 175.851385,1023.39026 161.93543,1023.29428 C151.858359,1023.29428 141.749297,1023.5822 131.704216,1023.2303 C123.162698,1022.9104 121.915061,1021.43882 121.211266,1012.51342 C118.620019,980.490725 116.412661,948.43604 113.565488,916.413347 C110.238455,879.304132 106.335589,842.226907 102.75263,805.117693 C100.129392,778.277493 97.858052,751.373312 94.978889,724.597094 C91.651856,693.054261 87.908944,661.57541 84.262004,630.032577 C80.934971,600.921038 77.735901,571.745517 74.216923,542.601986 C70.282067,510.323367 66.219247,478.108729 61.900503,445.894092 C57.673408,414.870218 53.2692826,383.870722 48.688342,352.897119 C41.2413403,301.918706 33.1363533,251.038584 24.375408,200.269477 C17.28616,158.873436 9.39363187,117.618978 0.702288,76.529439 C-0.449377,71.027038 1.214139,68.81968 6.044736,66.804265 C52.335283,47.609843 98.465876,28.063524 144.724432,8.77313 C153.329931,5.190171 162.159365,2.183045 171.308706,0.487538 C177.642865,-0.696118 179.274391,0.615501 179.082447,6.981651 C178.602586,23.264919 179.274391,39.612168 177.674856,55.831454 C177.284598,60.1823968 177.071151,64.5473904 177.035042,68.915651 C176.299256,127.298683 175.59546,185.713707 177.131014,244.12873 C178.474624,295.313854 181.161843,346.466988 184.136978,397.620122 C186.472299,437.992389 189.831323,478.364656 193.286319,518.672941 C196.677333,558.181459 200.804134,597.625995 204.675009,637.134513 C205.410795,644.652328 206.0826,645.356124 214.624117,644.204458 C231.456007,641.674604 248.438395,640.274546 265.457344,640.013676 C318.337976,639.885713 370.354858,647.147603 421.795908,659.33606 C466.806827,670.020955 510.602099,684.256817 552.573901,704.155035 C573.367858,714.008171 593.266075,725.396862 611.404803,739.856659 C617.579009,744.719246 623.081409,750.317619 628.295894,756.171918 Z M1755.13641,746.574707 C1775.61046,764.521491 1783.06429,786.499104 1777.24198,813.691201 C1772.41139,836.116684 1761.47057,854.959207 1746.8828,871.818308 C1723.46561,898.914433 1695.02588,919.516446 1664.25082,936.727444 C1603.91636,970.509626 1539.64703,992.455248 1472.08267,1005.12357 C1435.2065,1012.1201 1398.01019,1017.30879 1360.62706,1020.67105 C1339.44921,1022.49452 1318.1754,1024.76586 1294.40631,1023.29429 L1266.63838,1023.29429 C1261.23195,1023.29429 1258.16084,1021.59878 1257.71297,1015.16865 C1255.66556,987.08081 1253.29825,959.024964 1250.77099,930.969117 C1248.08377,901.345726 1245.10863,871.722336 1242.29345,842.098945 C1239.73419,814.874857 1237.36688,787.586788 1234.58369,760.3627 C1232.02444,734.706156 1229.08129,709.113594 1226.2981,683.489041 C1223.70685,659.432033 1221.21158,635.375024 1218.3644,611.350006 C1214.9414,582.238467 1211.32645,553.126927 1207.7115,524.015388 C1204.32049,496.855281 1200.96146,469.727166 1197.34651,442.59905 C1193.50276,413.522801 1189.4505,384.474495 1185.19005,355.456375 C1179.4957,317.803318 1173.38548,280.278224 1167.37123,242.689148 C1158.98328,189.4587 1149.27645,136.44447 1138.25969,83.695356 C1137.81182,81.360035 1137.58788,78.960732 1136.88409,76.689392 C1135.22057,71.57088 1136.82011,68.85167 1141.84265,66.868246 C1191.01236,47.641834 1238.61452,24.448575 1288.2321,6.149893 C1294.72621,3.7186 1301.28431,0.99939 1308.29027,0.295594 C1314.59244,-0.34422 1316.19197,0.679482 1315.58415,7.39753 C1312.25712,43.83494 1314.17656,80.464295 1312.44906,116.933696 C1311.04147,146.68505 1311.20142,176.532375 1312.70499,206.315719 C1313.05689,213.865525 1313.3448,221.447321 1313.28082,228.965137 C1312.89693,264.730743 1314.78438,300.464358 1316.60785,336.165982 C1318.94317,383.352268 1322.36618,430.442583 1325.85317,477.564888 C1328.38043,511.571005 1331.67547,545.513141 1334.87454,579.487267 C1336.57005,598.073865 1338.39352,616.628473 1340.69685,635.119099 C1341.94449,645.324133 1342.45634,645.420105 1352.46943,644.076495 C1370.1283,641.677192 1387.81916,639.725759 1405.66997,639.981685 C1468.30777,640.781453 1529.69792,650.66658 1589.93642,667.845587 C1630.72456,679.426221 1670.42502,693.886019 1707.91813,714.136134 C1724.83243,723.130535 1740.67293,734.01283 1755.13641,746.574707 L1755.13641,746.574707 Z M308.676783,922.811488 C331.838052,911.742705 444.285372,823.864245 453.210778,809.53241 C398.634639,786.019244 343.866556,764.169594 284.971673,746.28679 L308.676783,922.811488 Z M1585.8736,815.290736 C1588.75276,812.187638 1588.43285,809.788335 1584.52999,808.060837 C1576.75625,804.509869 1569.04649,800.734966 1561.17678,797.503905 C1519.17298,780.324898 1476.97725,763.689732 1433.69383,750.125675 C1429.91892,748.97401 1426.04805,746.350772 1421.21745,748.590121 L1444.53867,922.043711 C1447.99367,922.811488 1449.33728,921.211953 1450.87283,920.124269 C1490.18941,891.268655 1529.76191,862.764939 1567.51094,831.733957 C1573.87709,826.551463 1580.17925,821.336979 1585.8736,815.290736 L1585.8736,815.290736 Z" id="Shape"></path>
            </g>
        </g>
    </g>
</svg>