<?xml version="1.0" encoding="UTF-8"?>
<svg width="893px" height="544px" viewBox="0 0 893 544" version="1.1" xmlns="http://www.w3.org/2000/svg" xmlns:xlink="http://www.w3.org/1999/xlink">
    <!-- Generator: Sketch 61.2 (89653) - https://sketch.com -->
    <title>bili-movie</title>
    <desc>Created with Sketch.</desc>
    <g id="icons" stroke="none" stroke-width="1" fill="none" fill-rule="evenodd">
        <g id="Artboard" transform="translate(-4597.000000, -1556.000000)" fill-rule="nonzero">
            <g id="bili-movie" transform="translate(4596.500000, 1556.000000)">
                <path d="M878.624,208.864 L843.04,208.864 L843.04,39.904 C843.539675,23.3832511 833.129005,8.49599302 817.44,3.296 C806.55445,0.206433825 794.851963,2.3244574 785.739834,9.03338708 C776.627706,15.7423168 771.130211,26.2880162 770.848,37.6 L770.848,207.84 L123.936,207.84 L123.936,38.88 C124.35137,22.3845261 113.972334,7.54250604 98.336,2.272 C87.3046824,-0.879554585 75.43298,1.36135489 66.3095654,8.31732849 C57.1861507,15.2733021 51.8818169,26.1279341 52,37.6 L52,207.84 L16.16,207.84 C12.0181996,207.907342 8.07285393,209.617535 5.19217648,212.594235 C2.31149903,215.570935 0.731545239,219.570218 0.797863668,223.712 L0.797863668,306.4 C0.731358784,310.517899 2.31928656,314.490865 5.20731866,317.427031 C8.09535077,320.363197 12.0415294,322.016572 16.16,322.016 L43.04,322.016 L43.04,407.264 C42.7550348,481.900434 102.806338,542.752422 177.44,543.456 L291.872,543.456 C366.505662,542.752422 426.556965,481.900434 426.272,407.264 L426.272,386.272 C426.26977,381.987127 429.669356,378.474221 433.952,378.336 L459.552,378.336 C461.634003,378.334843 463.627262,379.17903 465.075132,380.675162 C466.523002,382.171295 467.3014,384.191153 467.232,386.272 L467.232,407.264 C467.086789,481.843322 527.057296,542.613436 601.632,543.456 L717.6,543.456 C792.233662,542.752422 852.284965,481.900434 852,407.264 L852,322.016 L877.6,322.016 C881.718471,322.016572 885.664649,320.363197 888.552681,317.427031 C891.440713,314.490865 893.028641,310.517899 892.962136,306.4 L892.962136,224.736 C893.028455,220.594218 891.448501,216.594935 888.567824,213.618235 C885.687146,210.641535 881.7418,208.931342 877.6,208.864" id="Path" fill="#FFFFFF"></path>
                <path d="M285.216,483.552 L182.816,483.552 C135.004507,482.851097 96.654638,443.816409 96.7994323,396 L96.7994323,316.128 C96.6567995,282.535005 123.625343,255.109368 157.216,254.688 L310.816,254.688 C344.406657,255.109368 371.375201,282.535005 371.232568,316.128 L371.232568,396 C371.374659,444.013673 332.716029,483.129802 284.704,483.552" id="Path" fill="#FF9900"></path>
                <path d="M609.568,483.552 L711.968,483.552 C759.779493,482.851097 798.129362,443.816409 797.984568,396 L797.984568,316.128 C798.127201,282.535005 771.158657,255.109368 737.568,254.688 L583.968,254.688 C550.377343,255.109368 523.408799,282.535005 523.551432,316.128 L523.551432,396 C523.409341,444.013673 562.067971,483.129802 610.08,483.552" id="Path" fill="#FFCC80"></path>
            </g>
        </g>
    </g>
</svg>