<?xml version="1.0" encoding="UTF-8"?>
<svg width="743px" height="749px" viewBox="0 0 743 749" version="1.1" xmlns="http://www.w3.org/2000/svg" xmlns:xlink="http://www.w3.org/1999/xlink">
    <!-- Generator: Sketch 61.2 (89653) - https://sketch.com -->
    <title>bili-music</title>
    <desc>Created with Sketch.</desc>
    <g id="icons" stroke="none" stroke-width="1" fill="none" fill-rule="evenodd">
        <g id="Artboard" transform="translate(-6886.000000, -7383.000000)" fill-rule="nonzero">
            <g id="bili-music" transform="translate(6885.500000, 7383.000000)">
                <path d="M742.92,335.8 C742.779857,151.084866 593.298326,1.25996267 408.584,0.696 L335.368,0.696 C150.612062,1.25949889 1.05699696,151.043417 0.776,335.8 L0.776,649.4 C0.776,659.621944 8.98701494,667.947973 19.208,668.088 L61.192,668.088 C74.76,714.424 99.08,748.472 149.768,748.472 L248.072,748.472 C268.515888,748.472 285.167947,732.04997 285.448,711.608 L286.728,426.936 C286.796753,417.070247 282.907989,407.58863 275.93168,400.61232 C268.95537,393.636011 259.473753,389.747247 249.608,389.816 L149.768,389.816 C131.923502,389.928465 114.36607,394.317823 98.568,402.616 L98.568,329.4 C98.9895919,196.107678 206.939678,88.1575919 340.232,87.736 L407.56,87.736 C540.810528,88.1582761 648.686954,196.149099 648.968,329.4 L648.968,403.896 C632.387167,394.618587 613.695796,389.769411 594.696,389.816 L494.856,389.816 C484.990247,389.747247 475.50863,393.636011 468.53232,400.61232 C461.556011,407.58863 457.667247,417.070247 457.736,426.936 L457.736,711.608 C458.016053,732.04997 474.668112,748.472 495.112,748.472 L593.416,748.472 C644.616,748.472 668.424,714.424 681.992,668.088 L723.976,668.088 C734.196985,667.947973 742.408959,659.621944 742.408,649.4 L742.92,335.8 Z" id="Path" fill="#FFCC80"></path>
                <path d="M507.186376,667.708994 L507.46024,471.613185 C507.490503,449.93854 518.342958,439.116349 540.017604,439.146549 L541.041603,439.146549 C562.716248,439.178305 573.538439,450.03076 573.508239,471.705406 L573.234374,667.801215 C573.204111,689.47586 562.351656,700.298051 540.677011,700.267851 L539.653012,700.267851 C517.978367,700.236095 507.156176,689.38364 507.186376,667.708994 Z" id="Path" fill="#FF9900"></path>
                <path d="M168.26794,667.734594 L168.541804,471.638785 C168.572067,449.96414 179.424522,439.141949 201.099168,439.172149 L202.123167,439.172149 C223.797812,439.203905 234.620003,450.05636 234.589803,471.731006 L234.315939,667.826815 C234.285676,689.50146 223.433221,700.323651 201.758575,700.293451 L200.734576,700.293451 C179.059931,700.261695 168.23774,689.40924 168.26794,667.734594 Z" id="Path" fill="#FF9900"></path>
            </g>
        </g>
    </g>
</svg>