<?xml version="1.0" encoding="UTF-8"?>
<svg width="572px" height="573px" viewBox="0 0 572 573" version="1.1" xmlns="http://www.w3.org/2000/svg" xmlns:xlink="http://www.w3.org/1999/xlink">
    <!-- Generator: Sketch 61.2 (89653) - https://sketch.com -->
    <title>bili-icon_sousuo_yichu</title>
    <desc>Created with Sketch.</desc>
    <g id="icons" stroke="none" stroke-width="1" fill="none" fill-rule="evenodd">
        <g id="Artboard" transform="translate(-223.000000, 0.000000)" fill="#FFFFFF" fill-rule="nonzero">
            <g id="bili-icon_sousuo_yichu" transform="translate(222.500000, 0.000000)">
                <path d="M287,219.16 L490.648,15.448 C509.490731,-2.73398764 539.428654,-2.4598148 557.935229,16.0642195 C576.441805,34.5882537 576.687747,64.5264225 558.488,83.352 L354.968,287 L558.616,490.648 C576.797988,509.490731 576.523815,539.428654 557.999781,557.935229 C539.475746,576.441805 509.537578,576.687747 490.712,558.488 L287,354.968 L83.352,558.616 C64.5092694,576.797988 34.5713458,576.523815 16.0647706,557.999781 C-2.44180461,539.475746 -2.68774733,509.537578 15.512,490.712 L219.032,287 L15.448,83.352 C2.97589713,71.2945149 -2.01987699,53.4456562 2.38079327,36.6655967 C6.78146353,19.8855371 19.8937374,6.78562161 36.6779392,2.40077608 C53.4621409,-1.98406945 71.3062808,3.02853305 83.352,15.512 L287,219.032 L287,219.16 Z" id="Path"></path>
            </g>
        </g>
    </g>
</svg>