<?xml version="1.0" encoding="UTF-8"?>
<svg width="764px" height="578px" viewBox="0 0 764 578" version="1.1" xmlns="http://www.w3.org/2000/svg" xmlns:xlink="http://www.w3.org/1999/xlink">
    <!-- Generator: Sketch 61.2 (89653) - https://sketch.com -->
    <title>bili-icon_dingdao_qianbao</title>
    <desc>Created with Sketch.</desc>
    <g id="icons" stroke="none" stroke-width="1" fill="none" fill-rule="evenodd">
        <g id="Artboard" transform="translate(-9057.000000, -1447.000000)" fill="#6A6A6A" fill-rule="nonzero">
            <g id="bili-icon_dingdao_qianbao" transform="translate(9057.000000, 1447.000000)">
                <path d="M420.677091,289.262545 C420.677091,268.31709 437.852364,251.373814 459.077091,251.373814 C480.1384,251.245559 497.323376,268.201402 497.477091,289.262545 C497.323376,310.323688 480.1384,327.279531 459.077091,327.151276 C438.015782,327.279531 420.830806,310.323688 420.677091,289.262545 L420.677091,289.262545 Z M660.386182,482.705455 C665.283241,470.816271 678.891179,465.148034 690.780363,470.045092 C702.669547,474.942151 708.337785,488.550089 703.440727,500.439273 C683.884297,547.399748 637.94673,577.939042 587.077091,577.798306 L126.277091,577.798306 C56.924364,577.798306 0.604364,522.222545 0.604364,453.474909 L0.604364,125.050182 C0.604364,56.302545 56.924364,0.727273 126.277091,0.727273 L587.077091,0.727273 C656.429818,0.727273 712.749818,56.302546 712.749818,125.050182 L712.749818,137.664 C712.749818,178.530909 679.330182,211.485091 638.277091,211.485091 L416.255273,211.485091 C408.839032,211.47769 401.717242,214.38659 396.426909,219.584 L345.226909,270.085818 C340.051786,275.124022 337.132642,282.039984 337.132642,289.262545 C337.132642,296.485107 340.051786,303.401069 345.226909,308.439273 L396.426909,358.941091 C401.717242,364.138501 408.839032,367.047401 416.255273,367.04 L663.877091,367.04 C693.146781,367.298372 717.097391,343.805947 717.404364,314.536727 L717.404364,231.592727 C717.404365,218.739556 727.82392,208.320002 740.677091,208.320002 C753.530262,208.320002 763.949818,218.739556 763.949818,231.592727 L763.949818,314.536727 C763.642144,369.512129 718.85275,413.843214 663.877091,413.585455 L416.255273,413.585455 C396.566546,413.585455 377.669091,405.85891 363.705455,392.081455 L312.505455,341.533091 C298.490377,327.75129 290.596879,308.918599 290.596879,289.262545 C290.596879,269.606492 298.490377,250.773801 312.505455,236.992 L363.705455,186.443636 C377.669091,172.666181 396.566546,164.939636 416.301818,164.939636 L638.277091,164.939636 C653.730182,164.939636 666.204364,152.651636 666.204364,137.664 L666.204364,125.096727 C666.204364,82.181818 630.829819,47.272727 587.077091,47.272727 L126.277091,47.272727 C82.524364,47.272727 47.149818,82.181818 47.149818,125.050182 L47.149818,453.474909 C47.149818,496.343273 82.524363,531.252364 126.277091,531.252364 L587.077091,531.252364 C619.09979,531.404549 648.057117,512.240531 660.432727,482.705455 L660.386182,482.705455 Z" id="Shape"></path>
            </g>
        </g>
    </g>
</svg>