<?xml version="1.0" encoding="UTF-8"?>
<svg width="1024px" height="1024px" viewBox="0 0 1024 1024" version="1.1" xmlns="http://www.w3.org/2000/svg" xmlns:xlink="http://www.w3.org/1999/xlink">
    <!-- Generator: Sketch 61.2 (89653) - https://sketch.com -->
    <title>bili-icon_download</title>
    <desc>Created with Sketch.</desc>
    <g id="icons" stroke="none" stroke-width="1" fill="none" fill-rule="evenodd">
        <g id="Artboard" transform="translate(-10002.000000, -13317.000000)" fill="#6A6A6A" fill-rule="nonzero">
            <g id="bili-icon_download" transform="translate(10002.000000, 13317.000000)">
                <path d="M512,0 C229.229714,0 0,229.229714 0,512 C0,794.770286 229.229714,1024 512,1024 C794.770286,1024 1024,794.770286 1024,512 C1024,229.229714 794.770286,0 512,0 Z M326.107429,463.067429 C329.571152,459.291655 334.460149,457.142353 339.584,457.142857 L420.571429,457.142857 L420.571429,310.857143 C420.571429,300.758222 428.758222,292.571429 438.857143,292.571429 L585.142857,292.571429 C595.241778,292.571429 603.428571,300.758222 603.428571,310.857143 L603.428571,457.142857 L684.416,457.142857 C691.956325,457.142048 698.723956,461.769787 701.458676,468.796722 C704.193395,475.823656 702.334363,483.808692 696.777143,488.905143 L524.361143,646.948571 C517.371327,653.351985 506.646959,653.351985 499.657143,646.948571 L327.241143,488.905143 C323.659678,485.632033 321.527441,481.068607 321.314757,476.221453 C321.102072,471.374299 322.826413,466.641652 326.107429,463.067429 Z M713.142857,731.428571 C713.142857,736.278244 711.216332,740.929287 707.787096,744.358524 C704.357859,747.787761 699.706816,749.714286 694.857143,749.714286 L329.142857,749.714286 C324.293184,749.714286 319.642141,747.787761 316.212904,744.358524 C312.783668,740.929287 310.857143,736.278244 310.857143,731.428571 L310.857143,694.857143 C310.857143,684.758222 319.043936,676.571429 329.142857,676.571429 L694.857143,676.571429 C704.956064,676.571429 713.142857,684.758222 713.142857,694.857143 L713.142857,731.428571 L713.142857,731.428571 Z" id="Shape"></path>
            </g>
        </g>
    </g>
</svg>