<?xml version="1.0" encoding="UTF-8"?>
<svg width="720px" height="770px" viewBox="0 0 720 770" version="1.1" xmlns="http://www.w3.org/2000/svg" xmlns:xlink="http://www.w3.org/1999/xlink">
    <!-- Generator: Sketch 61.2 (89653) - https://sketch.com -->
    <title>bili-yinpin</title>
    <desc>Created with Sketch.</desc>
    <g id="icons" stroke="none" stroke-width="1" fill="none" fill-rule="evenodd">
        <g id="Artboard" transform="translate(-9079.000000, -6956.000000)" fill-rule="nonzero">
            <g id="bili-yinpin" transform="translate(9079.000000, 6956.000000)">
                <path d="M718.4,308.992 C714.700515,353.811248 693.206126,395.282238 658.717146,424.143309 C624.228165,453.004381 579.617504,466.851425 534.848,462.592 C441.572956,451.635505 374.79032,367.212172 385.6,273.92 C389.299485,229.100752 410.793874,187.629762 445.282854,158.768691 C479.771835,129.907619 524.382496,116.060575 569.152,120.32 C662.427044,131.276495 729.20968,215.699828 718.4,308.992" id="Path" fill="#FFCC80"></path>
                <path d="M586.56,678.4 C735.552,547.328 756.032,317.952 640.064,148.992 C632.384,137.728 512.064,126.72 512.064,126.72 L42.304,537.6 C18.4525768,559.734973 16.5244492,596.823075 37.952,621.312 L37.952,622.848 C182.592,793.6 427.584,819.2 586.56,678.4" id="Path" fill="#FFCC80"></path>
                <path d="M219.2,517.12 C319.585521,505.053918 396.729724,422.50746 401.984,321.536 C402.481371,312.699119 399.078186,304.088681 392.673625,297.979715 C386.269065,291.87075 377.50754,288.877926 368.704,289.792 L27.2,327.424 C18.4620857,328.527362 10.6292894,333.358354 5.72124852,340.671335 C0.813207666,347.984315 -0.689714892,357.063545 1.6,365.568 C27.2236961,462.562984 119.337666,526.717655 219.2,517.12" id="Path" fill="#FF9900"></path>
                <path d="M571.2,210.432 C557.08553,208.753209 543.353484,215.759501 536.428953,228.172698 C529.504422,240.585896 530.756854,255.951071 539.600247,267.079009 C548.443641,278.206946 563.129061,282.8969 576.78534,278.954486 C590.44162,275.012072 600.367991,263.216973 601.92,249.088 C602.9993,239.883196 600.364042,230.627946 594.597923,223.372247 C588.831804,216.116547 580.410755,211.459277 571.2,210.432 M387.904,153.6 L442.176,177.152 C467.297803,188.771639 478.636755,218.252915 467.776,243.712 L461.888,258.048 C456.661311,270.066566 446.873657,279.516103 434.678839,284.317212 C422.484022,289.118321 408.881303,288.877593 396.864,283.648 L342.592,260.096 C340.148585,258.964369 338.584782,256.516743 338.584782,253.824 C338.584782,251.131257 340.148585,248.683631 342.592,247.552 L396.352,225.28 C399.778443,223.757361 401.452464,219.851313 400.192,216.32 L378.432,161.28 C377.226518,158.765172 377.716634,155.765476 379.659848,153.765109 C381.603061,151.764742 384.587294,151.187903 387.136,152.32" id="Shape" fill="#FF9900"></path>
                <path d="M290.112,14.336 C288.641077,6.12705514 281.554901,0.114542144 273.216,2.84217094e-14 L269.376,2.84217094e-14 C259.720562,0.139948524 251.966986,8.00754819 251.968,17.664 L251.968,130.816 C242.329417,128.950691 232.422583,128.950691 222.784,130.816 C187.010849,137.370033 159.64022,166.399489 155.2,202.496 C155.2,233.216 185.664,251.136 223.296,242.688 C258.926487,236.323175 286.354373,207.653272 291.136,171.776 L291.136,14.336 L290.112,14.336 Z" id="Path" fill="#FFB340"></path>
            </g>
        </g>
    </g>
</svg>