<?xml version="1.0" encoding="UTF-8"?>
<svg width="806px" height="806px" viewBox="0 0 806 806" version="1.1" xmlns="http://www.w3.org/2000/svg" xmlns:xlink="http://www.w3.org/1999/xlink">
    <!-- Generator: Sketch 61.2 (89653) - https://sketch.com -->
    <title>bili-icon_dingdao_dahuiyuan</title>
    <desc>Created with Sketch.</desc>
    <g id="icons" stroke="none" stroke-width="1" fill="none" fill-rule="evenodd">
        <g id="Artboard" transform="translate(-1818.000000, -8733.000000)" fill-rule="nonzero">
            <g id="bili-icon_dingdao_dahuiyuan" transform="translate(1818.000000, 8733.000000)">
                <path d="M0.714286,403 C0.714286,625.176265 180.823735,805.285714 403,805.285714 C625.176265,805.285714 805.285714,625.176265 805.285714,403 C805.285714,180.823735 625.176265,0.714286 403,0.714286 C180.823735,0.714286 0.714286,180.823735 0.714286,403 L0.714286,403 Z" id="Path" fill="#FF9900"></path>
                <path d="M328.430857,198.017143 C329.893714,189.934857 335.635428,185.4 345.656,184.485714 C360.76,183.096 378.826286,181.486857 396.636571,194.689143 C414.446857,207.854857 441.838857,237.294857 440.778286,252.545143 C440.083429,262.712 436.901715,279.973714 431.196571,304.366857 C486.529142,278.035428 514.945142,264.065143 516.408,262.565714 C518.565714,260.334857 539.886857,265.308571 547.859429,267.795429 C555.758858,270.282286 571.704,263.406858 576.897143,264.028571 C582.126857,264.650285 593.573714,284.069714 593.171429,290.542857 C592.732572,297.016 593.171429,308.353143 591.525714,315.118857 C589.88,321.884571 592.257143,337.098286 591.525714,346.058286 C590.794285,355.018286 585.198857,357.761143 582.126857,356.188571 C579.054857,354.542857 574.995428,360.430857 572.654857,364.234286 C570.350857,368.037715 550.163428,359.114286 543.507429,358.492571 C536.814858,357.870857 512.604572,356.115428 495.233143,358.492571 C483.676572,360.065142 462.099429,364.965714 430.501714,373.230857 C415.8,379.155428 407.169143,383.397714 404.609143,385.921143 C400.769143,389.688 357.029714,502.218286 352.970286,511.726857 C348.910857,521.125714 317.24,583.553143 311.937143,586.881143 C306.670857,590.245714 275.109714,606.081143 251.813714,607.361143 C228.554285,608.568 214.145143,608.129143 197.688,595.768 C181.230857,583.406857 175.123429,574.190857 201.966857,563.073143 C228.773714,551.918857 260.298286,510.739429 275.438857,488.321143 C290.579428,465.939429 330.552,406.437714 330.552,402.268571 C330.552,398.099428 332.380571,398.099428 317.825143,400.184 C303.306286,402.305143 279.717714,405.816 263.443429,408.778286 C247.169143,411.740572 225.774858,418.469715 218.350857,414.300571 C210.963428,410.168 192.933714,373.56 194.835429,359.809143 C196.737143,346.058286 188.142858,329.235429 196.737143,330.625143 C205.331429,332.014857 214.803429,338.195429 237.185143,340.682286 C259.566857,343.169143 342.218286,323.896 345.656,323.347429 C349.130286,322.798858 348.289143,310.181715 348.289143,302.867429 C348.289143,295.626286 347.118857,236.307429 338.853714,224.275429 C333.401109,216.443484 329.83386,207.456521 328.430857,198.017143 L328.430857,198.017143 Z M403,446.300571 L410.424,445.24 L405.011429,432.257143 L445.971429,450.323429 L445.971429,440.741714 C472.741715,444.984 489.966858,448.787428 497.573714,452.188571 C509.020571,457.272 607.324571,529.573714 618.076571,543.361143 C628.828571,557.148572 618.076571,592.366857 603.009143,612.627429 C587.941714,632.924572 575.580572,618.113143 564.206857,600.632 C556.636571,589.002286 502.876571,537.546286 403,446.300571 L403,446.300571 Z" id="Shape" fill="#FFFFFF"></path>
            </g>
        </g>
    </g>
</svg>