<?xml version="1.0" encoding="UTF-8"?>
<svg width="1016px" height="1016px" viewBox="0 0 1016 1016" version="1.1" xmlns="http://www.w3.org/2000/svg" xmlns:xlink="http://www.w3.org/1999/xlink">
    <!-- Generator: Sketch 61.2 (89653) - https://sketch.com -->
    <title>bili-icon_dingdao_yingbi</title>
    <desc>Created with Sketch.</desc>
    <g id="icons" stroke="none" stroke-width="1" fill="none" fill-rule="evenodd">
        <g id="Artboard" transform="translate(-11113.000000, -12096.000000)" fill="#FF9900" fill-rule="nonzero">
            <g id="bili-icon_dingdao_yingbi" transform="translate(11113.000000, 12096.000000)">
                <path d="M469.6,356.0896 L469.6,302.0224 L342.112,302.0224 C320.904266,302.0224 303.712,284.830134 303.712,263.6224 C303.712,242.414666 320.904266,225.2224 342.112,225.2224 L673.888,225.2224 C695.095734,225.2224 712.288,242.414666 712.288,263.6224 C712.288,284.830134 695.095734,302.0224 673.888,302.0224 L546.4,302.0224 L546.4,356.0896 C667.0784,374.3168 759.7504,476.9216 759.7504,601.0816 L759.7504,624.3776 C759.7504,645.585333 742.558133,662.777598 721.3504,662.777598 C700.142667,662.777598 682.950401,645.585333 682.9504,624.3776 L682.9504,601.0816 C682.9504,519.6736 624.6336,451.2704 546.4,434.1696 L546.4,764 C546.4,785.207734 529.207734,802.4 508,802.4 C486.792266,802.4 469.6,785.207734 469.6,764 L469.6,434.1696 C391.3664,451.2704 333.0496,519.6736 333.0496,601.0816 L333.0496,624.3776 C333.0496,645.585334 315.857334,662.7776 294.6496,662.7776 C273.441866,662.7776 256.2496,645.585334 256.2496,624.3776 L256.2496,601.0816 C256.2496,476.9216 348.9216,374.2656 469.6,356.0896 L469.6,356.0896 Z M508,1015.7504 C227.5776,1015.7504 0.2496,788.4224 0.2496,508 C0.2496,227.5776 227.5776,0.2496 508,0.2496 C788.4224,0.2496 1015.7504,227.5776 1015.7504,508 C1015.7504,788.4224 788.4224,1015.7504 508,1015.7504 Z M508,938.9504 C661.96375,938.9504 804.232124,856.811721 881.214,723.475202 C958.195875,590.138683 958.195875,425.861317 881.214,292.524798 C804.232124,159.188279 661.96375,77.0496 508,77.0496 C269.992666,77.0496 77.0496,269.992666 77.0496,508 C77.0496,746.007334 269.992666,938.9504 508,938.9504 L508,938.9504 Z" id="Shape"></path>
            </g>
        </g>
    </g>
</svg>