<?xml version="1.0" encoding="UTF-8"?>
<svg width="806px" height="806px" viewBox="0 0 806 806" version="1.1" xmlns="http://www.w3.org/2000/svg" xmlns:xlink="http://www.w3.org/1999/xlink">
    <!-- Generator: Sketch 61.2 (89653) - https://sketch.com -->
    <title>bili-icon_dingdao_dongtai</title>
    <desc>Created with Sketch.</desc>
    <g id="icons" stroke="none" stroke-width="1" fill="none" fill-rule="evenodd">
        <g id="Artboard" transform="translate(-3533.000000, -8771.000000)" fill="#6A6A6A" fill-rule="nonzero">
            <g id="bili-icon_dingdao_dongtai" transform="translate(3533.000000, 8771.000000)">
                <path d="M239.433143,366.428571 C181.745795,301.932155 167.349318,209.555843 202.674565,130.563788 C237.999812,51.5717325 316.449549,0.714286 402.980571,0.714286 C423.178413,0.714286 439.551999,17.0878719 439.552,37.285714 L439.552,239.452571 C504.048416,181.765222 596.424729,167.368745 675.416785,202.693992 C754.40884,238.019239 805.266286,316.468977 805.266286,403 C805.266286,423.197843 788.8927,439.571429 768.694857,439.571429 L566.528,439.571429 C624.215348,504.067845 638.611825,596.444158 603.286578,675.436213 C567.961331,754.428268 489.511593,805.285714 402.980571,805.285714 C382.782729,805.285714 366.409144,788.912128 366.409143,768.714286 L366.409143,566.547429 C301.912727,624.234778 209.536414,638.631255 130.544358,603.306008 C51.5523028,567.980761 0.694857,489.531023 0.694857,403 C0.694857,382.802157 17.0684435,366.428571 37.266286,366.428571 L239.433143,366.428571 L239.433143,366.428571 Z M256.694857,220.142857 C256.703729,286.853903 301.822911,345.117806 366.409143,361.820571 L366.409143,78.465143 C303.323429,94.702857 256.694857,151.973714 256.694857,220.142857 L256.694857,220.142857 Z M549.266286,585.857143 C549.257414,519.146097 504.138232,460.882194 439.552,444.179429 L439.552,727.534857 C502.637714,711.297143 549.266286,654.026286 549.266286,585.857143 L549.266286,585.857143 Z M585.837714,256.714286 C519.126668,256.723158 460.862766,301.842339 444.16,366.428571 L727.515429,366.428571 C710.812663,301.842339 652.54876,256.723158 585.837714,256.714286 L585.837714,256.714286 Z M220.123429,549.285714 C286.834475,549.276842 345.098377,504.157661 361.801143,439.571429 L78.445714,439.571429 C94.683428,502.657143 151.954285,549.285714 220.123429,549.285714 Z" id="Shape"></path>
            </g>
        </g>
    </g>
</svg>