<?xml version="1.0" encoding="UTF-8"?>
<svg width="1024px" height="1024px" viewBox="0 0 1024 1024" version="1.1" xmlns="http://www.w3.org/2000/svg" xmlns:xlink="http://www.w3.org/1999/xlink">
    <!-- Generator: Sketch 61.2 (89653) - https://sketch.com -->
    <title>bili-icon_dingdao_bangdingshouji</title>
    <desc>Created with Sketch.</desc>
    <g id="icons" stroke="none" stroke-width="1" fill="none" fill-rule="evenodd">
        <g id="Artboard" transform="translate(-13095.000000, -13249.000000)" fill="#FF9900" fill-rule="nonzero">
            <g id="bili-icon_dingdao_bangdingshouji" transform="translate(13095.000000, 13249.000000)">
                <path d="M512,1024 C229.2224,1024 0,794.7776 0,512 C0,229.2224 229.2224,0 512,0 C794.7776,0 1024,229.2224 1024,512 C1024,794.7776 794.7776,1024 512,1024 Z M307.2,614.4 L307.2,307.2 L716.8,307.2 L716.8,768 C716.8,781.579084 711.40573,794.602005 701.803867,804.203867 C692.202005,813.80573 679.179084,819.2 665.6,819.2 L358.4,819.2 C330.123021,819.2 307.2,796.276979 307.2,768 L307.2,665.6 L640,665.6 C654.13849,665.6 665.6,654.13849 665.6,640 C665.6,625.86151 654.13849,614.4 640,614.4 L307.2,614.4 Z M307.2,256 C307.2,227.723021 330.123021,204.8 358.4,204.8 L665.6,204.8 C693.876979,204.8 716.8,227.723021 716.8,256 L307.2,256 Z M358.4,153.6 C301.846042,153.6 256,199.446042 256,256 L256,768 C256,824.553958 301.846042,870.4 358.4,870.4 L665.6,870.4 C722.153958,870.4 768,824.553958 768,768 L768,256 C768,199.446042 722.153958,153.6 665.6,153.6 L358.4,153.6 Z M512,793.6 C540.276979,793.6 563.2,770.676979 563.2,742.4 C563.2,714.123021 540.276979,691.2 512,691.2 C483.723021,691.2 460.8,714.123021 460.8,742.4 C460.8,770.676979 483.723021,793.6 512,793.6 Z" id="Shape"></path>
            </g>
        </g>
    </g>
</svg>