<?xml version="1.0" encoding="UTF-8"?>
<svg width="718px" height="737px" viewBox="0 0 718 737" version="1.1" xmlns="http://www.w3.org/2000/svg" xmlns:xlink="http://www.w3.org/1999/xlink">
    <!-- Generator: Sketch 61.2 (89653) - https://sketch.com -->
    <title>bili-tebietuijian</title>
    <desc>Created with Sketch.</desc>
    <g id="icons" stroke="none" stroke-width="1" fill="none" fill-rule="evenodd">
        <g id="Artboard" transform="translate(-11262.000000, -4412.000000)" fill-rule="nonzero">
            <g id="bili-tebietuijian" transform="translate(11262.000000, 4412.000000)">
                <path d="M62.04,0.6 L655.96,0.6 C689.89024,0.6 717.4,28.10976 717.4,62.04 L717.4,705.4192 C717.4,716.370725 711.572057,726.494709 702.100176,731.991924 C692.628295,737.489139 680.946173,737.528182 671.43776,732.0944 L359,553.56 L46.56224,732.0944 C37.053827,737.528182 25.3717046,737.489139 15.8998236,731.991924 C6.42794266,726.494709 0.6,716.370725 0.6,705.4192 L0.6,62.04 C0.6,28.10976 28.10976,0.6 62.04,0.6 Z" id="Path" fill="#FFCC80"></path>
                <path d="M359,402.392 L268.94944,448.99936 C262.447229,452.363558 254.600318,451.753019 248.696722,447.42357 C242.793126,443.094122 239.852443,435.793495 241.10688,428.5808 L258.22816,330.3024 L185.98496,260.97248 C180.666649,255.869376 178.724805,248.179803 180.98261,241.163507 C183.240416,234.14721 189.302376,229.033217 196.59872,227.98944 L296.72032,213.6688 L341.7712,123.7872 C345.038962,117.267393 351.707117,113.150687 359,113.150687 C366.292883,113.150687 372.961038,117.267393 376.2288,123.7872 L421.27968,213.6688 L521.39616,227.98944 C528.693387,229.031604 534.756905,234.14497 537.015896,241.161563 C539.274886,248.178157 537.333574,255.868675 532.01504,260.97248 L459.77184,330.3024 L476.89312,428.5808 C478.14895,435.794952 475.207748,443.097561 469.302422,447.427482 C463.397096,451.757403 455.548031,452.366466 449.04544,448.99936 L359,402.392 Z" id="Path" fill="#FF9900"></path>
            </g>
        </g>
    </g>
</svg>