<?xml version="1.0" encoding="UTF-8"?>
<svg width="755px" height="781px" viewBox="0 0 755 781" version="1.1" xmlns="http://www.w3.org/2000/svg" xmlns:xlink="http://www.w3.org/1999/xlink">
    <!-- Generator: Sketch 61.2 (89653) - https://sketch.com -->
    <title>bili-activit</title>
    <desc>Created with Sketch.</desc>
    <g id="icons" stroke="none" stroke-width="1" fill="none" fill-rule="evenodd">
        <g id="Artboard" transform="translate(-7986.000000, -5991.000000)" fill="#FF9900" fill-rule="nonzero">
            <g id="bili-activit" transform="translate(7986.500000, 5991.000000)">
                <path d="M382.656,349.904 C370.465994,326.314472 362.577341,300.741367 359.36,274.384 C386.960084,276.157236 414.270327,281.052468 440.768,288.976 C422.793218,310.572341 403.378239,330.928134 382.656,349.904 M312.768,230.864 C301.248,172.752 304.064,175.568 287.168,73.936 C258.569735,84.8437657 232.068737,100.605797 208.832,120.528 C260.032,224.976 269.76,285.904 301.76,410.832 C352.96,405.2 513.728,370.128 528.32,280.272 C537.024,216.272 385.984,216.272 313.28,230.864 M350.4,498.128 C309.376525,512.138186 272.444619,536.055992 242.88,567.76 L286.4,721.36 C290.56143,737.959988 285.550761,755.519106 273.255464,767.423004 C260.960167,779.326902 243.24819,783.767095 226.791464,779.071004 C210.334737,774.374914 197.63343,761.255988 193.472,744.656 L80.576,347.088 L7.872,142.288 C10.688,136.656 13.76,133.584 16.576,127.952 L1.984,76.752 C-1.635556,64.8339139 -0.276218871,51.958171 5.75227023,41.0586627 C11.7807593,30.1591544 21.9648587,22.1643641 33.984,18.896 C46.240376,15.7108524 59.2606733,17.539126 70.1658738,23.9765571 C81.0710743,30.4139882 88.9627817,40.9302461 92.096,53.2 L92.096,56.016 C122.46347,36.2591903 155.835914,21.5614816 190.912,12.496 C368.064,-34.096 394.176,67.536 620.736,35.792 L754.368,462.8 C582.848,552.912 521.92,451.28 350.656,497.872" id="Shape"></path>
            </g>
        </g>
    </g>
</svg>