<?xml version="1.0" encoding="UTF-8"?>
<svg width="658px" height="774px" viewBox="0 0 658 774" version="1.1" xmlns="http://www.w3.org/2000/svg" xmlns:xlink="http://www.w3.org/1999/xlink">
    <!-- Generator: Sketch 61.2 (89653) - https://sketch.com -->
    <title>bili-icon_dingdao_dingdanzhongxin</title>
    <desc>Created with Sketch.</desc>
    <g id="icons" stroke="none" stroke-width="1" fill="none" fill-rule="evenodd">
        <g id="Artboard" transform="translate(-8035.000000, -1564.000000)" fill="#6A6A6A" fill-rule="nonzero">
            <g id="bili-icon_dingdao_dingdanzhongxin" transform="translate(8035.000000, 1564.000000)">
                <path d="M542.862545,59.365091 L573.117091,59.365091 C619.616,59.365091 657.504,96.229091 657.504,142.029818 L657.504,691.08 C657.504,736.834182 619.616,773.698182 573.163636,773.698182 L84.529455,773.698182 C38.077091,773.698182 0.142545,736.834182 0.142545,691.08 L0.142545,142.029818 C0.142545,96.229091 38.07709,59.365091 84.529455,59.365091 L114.784,59.365091 C130.090815,23.3781147 165.41659,0.019636 204.523636,0.019636 L453.122909,0.019636 C493.431273,0.019636 528.061091,24.502545 542.862545,59.365091 Z M107.429818,105.910545 L84.529455,105.910545 C63.49091,105.910545 46.688,122.201454 46.688,142.029818 L46.688,691.08 C46.688,710.861818 63.444364,727.152727 84.529455,727.152727 L573.163636,727.152727 C594.202181,727.152727 610.958545,710.861818 610.958545,691.08 L610.958545,142.029818 C610.958545,122.248 594.202181,105.910545 573.163636,105.910545 L550.263273,105.910545 C545.89139,156.299874 503.701535,194.972223 453.122909,194.952 L204.523636,194.952 C153.962873,194.94807 111.800161,156.282073 107.429818,105.910545 Z M204.523636,46.565091 C176.400895,46.565091 153.602909,69.363077 153.602909,97.485818 C153.602909,125.608559 176.400895,148.406545 204.523636,148.406545 L453.122909,148.406545 C481.24565,148.406545 504.043636,125.608559 504.043636,97.485818 C504.043636,69.363077 481.24565,46.565091 453.122909,46.565091 L204.523636,46.565091 L204.523636,46.565091 Z M176.130909,365.634182 C163.277737,365.634182 152.858181,355.214627 152.858181,342.361455 C152.858181,329.508282 163.277737,319.088727 176.130909,319.088727 L481.515636,319.088727 C494.368808,319.088727 504.788363,329.508282 504.788363,342.361455 C504.788363,355.214627 494.368808,365.634182 481.515636,365.634182 L176.130909,365.634182 Z M176.130909,469.523636 C163.277737,469.523636 152.858183,459.104081 152.858183,446.250909 C152.858183,433.397737 163.277737,422.978182 176.130909,422.978182 L481.515636,422.978182 C494.368808,422.978182 504.788363,433.397737 504.788363,446.250909 C504.788363,459.104081 494.368808,469.523636 481.515636,469.523636 L176.130909,469.523636 L176.130909,469.523636 Z M176.130909,577.555636 C166.058492,577.970573 156.568431,572.833461 151.408614,564.173089 C146.248797,555.512718 146.248797,544.721463 151.408614,536.061092 C156.568431,527.40072 166.058492,522.263608 176.130909,522.678545 L344.113455,522.678545 C358.828027,523.284717 370.444933,535.390038 370.444933,550.117091 C370.444933,564.844143 358.828027,576.949464 344.113455,577.555636 L176.130909,577.555636 L176.130909,577.555636 Z" id="Shape"></path>
            </g>
        </g>
    </g>
</svg>