<?xml version="1.0" encoding="UTF-8"?>
<svg width="560px" height="374px" viewBox="0 0 560 374" version="1.1" xmlns="http://www.w3.org/2000/svg" xmlns:xlink="http://www.w3.org/1999/xlink">
    <!-- Generator: Sketch 61.2 (89653) - https://sketch.com -->
    <title>bili-icon_caozuo_xuanzhong</title>
    <desc>Created with Sketch.</desc>
    <g id="icons" stroke="none" stroke-width="1" fill="none" fill-rule="evenodd">
        <g id="Artboard" transform="translate(-13327.000000, -2680.000000)" fill="#FF9900" fill-rule="nonzero">
            <g id="bili-icon_caozuo_xuanzhong" transform="translate(13327.000000, 2680.000000)">
                <path d="M207.528727,312.160727 L515.52,8.218909 C525.586388,-1.66305451 541.712521,-1.66305451 551.778909,8.218909 C556.577777,12.9279604 559.281433,19.3689491 559.281433,26.0923635 C559.281433,32.8157779 556.577777,39.2567666 551.778909,43.965818 L225.634909,365.781091 C215.574198,375.632631 199.483256,375.632631 189.422545,365.781091 L8.174545,187 C3.37567683,182.290949 0.672020776,175.84996 0.672020776,169.126545 C0.672020776,162.403131 3.37567683,155.962142 8.174545,151.253091 C18.2409335,141.371127 34.3670665,141.371127 44.433455,151.253091 L207.482182,312.160727 L207.528727,312.160727 Z" id="Path"></path>
            </g>
        </g>
    </g>
</svg>