<?xml version="1.0" encoding="UTF-8"?>
<svg width="786px" height="740px" viewBox="0 0 786 740" version="1.1" xmlns="http://www.w3.org/2000/svg" xmlns:xlink="http://www.w3.org/1999/xlink">
    <!-- Generator: Sketch 61.2 (89653) - https://sketch.com -->
    <title>bili-live</title>
    <desc>Created with Sketch.</desc>
    <g id="icons" stroke="none" stroke-width="1" fill="none" fill-rule="evenodd">
        <g id="Artboard" transform="translate(-10121.000000, -10246.000000)" fill-rule="nonzero">
            <g id="bili-live" transform="translate(10121.000000, 10246.000000)">
                <path d="M274.448,194.911111 C274.448,245.951058 233.071947,287.327111 182.032,287.327111 C130.992053,287.327111 89.616,245.951058 89.616,194.911111 C89.616,143.871164 130.992053,102.495111 182.032,102.495111 C233.071947,102.495111 274.448,143.871164 274.448,194.911111" id="Path" fill="#FF9900"></path>
                <path d="M708.624,383.583111 L644.88,420.447111 L644.88,371.807111 C644.732968,332.238728 612.767608,300.159205 573.2,299.871111 L72.72,299.871111 C33.0491575,300.01154 0.924429079,332.136268 0.784,371.807111 L0.784,667.231111 C0.784,706.960267 32.9908442,739.167111 72.72,739.167111 L573.2,739.167111 C592.278613,739.167111 610.575816,731.588161 624.066433,718.097544 C637.55705,704.606927 645.136,686.309724 645.136,667.231111 L645.136,643.423111 L708.624,681.311111 C724.496846,690.475496 744.057664,690.456171 759.912372,681.260441 C775.767079,672.064711 785.496932,655.095446 785.424407,636.767111 L785.424407,427.871111 C785.405258,409.588492 775.63919,392.703165 759.801283,383.569972 C743.963377,374.436779 724.457215,374.441787 708.624,383.583111 M454.928,288.351346 C534.387556,288.493333 598.913778,224.194667 599.056235,144.735111 C599.198222,65.275555 534.899556,0.749333 455.44,0.606874423 C376.179556,0.464889 311.738667,64.464889 311.309881,143.711111 C310.885333,223.170667 374.956444,287.924444 454.416,288.351346 L454.928,288.351346" id="Shape" fill="#FFCC80"></path>
                <path d="M307.216,431.967111 L431.376,503.903111 C438.452594,508.658611 442.697257,516.625094 442.697257,525.151111 C442.697257,533.677128 438.452594,541.643611 431.376,546.399111 L307.216,618.079111 C299.531788,621.972039 290.40493,621.739418 282.929008,617.460097 C275.453086,613.180777 270.630544,605.428567 270.096,596.831111 L270.096,453.471111 C270.548995,444.827558 275.33892,436.998216 282.828365,432.659503 C290.31781,428.32079 299.492456,428.060312 307.216,431.967111" id="Path" fill="#FFB340"></path>
            </g>
        </g>
    </g>
</svg>