<?xml version="1.0" encoding="UTF-8"?>
<svg width="2782px" height="609px" viewBox="0 0 2782 609" version="1.1" xmlns="http://www.w3.org/2000/svg" xmlns:xlink="http://www.w3.org/1999/xlink">
    <!-- Generator: Sketch 61.2 (89653) - https://sketch.com -->
    <title>bili-icon_youdaohang_xiaodianshitianxian</title>
    <desc>Created with Sketch.</desc>
    <g id="icons" stroke="none" stroke-width="1" fill="none" fill-rule="evenodd">
        <g id="Artboard" transform="translate(-12216.000000, -1322.000000)" fill="#FFFFFF" fill-rule="nonzero">
            <g id="bili-icon_youdaohang_xiaodianshitianxian" transform="translate(12216.000000, 1322.000000)">
                <path d="M850.021701,608.614288 L352.933268,608.614288 L50.9433555,301.844679 C-16.4405965,233.441691 -16.4405965,123.61533 50.9433555,55.2123413 L53.7242698,52.3445234 C86.5070249,19.0552885 131.275053,0.310421476 177.996378,0.310421476 C224.717703,0.310421476 269.485731,19.0552885 302.268486,52.3445234 L850.021701,608.614288 Z M2429.05961,608.614288 L1931.97117,608.614288 L2479.72439,52.3445234 C2512.50714,19.0552885 2557.27517,0.310421481 2603.9965,0.310421481 C2650.71782,0.310421481 2695.48585,19.0552885 2728.2686,52.3445234 L2731.04952,55.2123413 C2798.48669,123.692356 2798.48669,233.451568 2731.04952,301.844679 L2429.05961,608.614288 Z" id="Shape"></path>
            </g>
        </g>
    </g>
</svg>