<?xml version="1.0" encoding="UTF-8"?>
<svg width="1024px" height="1024px" viewBox="0 0 1024 1024" version="1.1" xmlns="http://www.w3.org/2000/svg" xmlns:xlink="http://www.w3.org/1999/xlink">
    <!-- Generator: Sketch 61.2 (89653) - https://sketch.com -->
    <title>bili-icon_dingdao_youxiang</title>
    <desc>Created with Sketch.</desc>
    <g id="icons" stroke="none" stroke-width="1" fill="none" fill-rule="evenodd">
        <g id="Artboard" transform="translate(-3424.000000, 0.000000)" fill="#FF9900" fill-rule="nonzero">
            <g id="bili-icon_dingdao_youxiang" transform="translate(3424.000000, 0.000000)">
                <path d="M512,1024 C229.2224,1024 0,794.7776 0,512 C0,229.2224 229.2224,0 512,0 C794.7776,0 1024,229.2224 1024,512 C1024,794.7776 794.7776,1024 512,1024 Z M281.6,278.1696 L496.4352,442.368 C505.619819,449.401616 518.380181,449.401616 527.5648,442.368 L742.4,278.1696 L742.4,534.8352 L512,611.6352 L281.6,534.8352 L281.6,278.1696 Z M304.9472,232.4992 C309.504,231.168 314.5728,230.4 320,230.4 L704,230.4 C709.4272,230.4 714.496,231.168 719.0528,232.4992 C717.138234,233.334495 715.332866,234.400523 713.6768,235.6736 L512,389.7856 L310.3232,235.6736 C308.667134,234.400523 306.861766,233.334495 304.9472,232.4992 L304.9472,232.4992 Z M793.599999,517.7856 L793.599999,256 C793.599999,212.1728 752.384,179.2 704,179.2 L320,179.2 C271.616,179.2 230.4,212.1728 230.4,256 L230.4,517.7856 L220.9792,514.6112 C205.364605,509.410499 188.201885,512.032949 174.852846,521.659269 C161.503808,531.285589 153.599999,546.742089 153.599999,563.2 L153.599999,716.8 C153.599999,773.353958 199.446042,819.2 256,819.2 L768,819.2 C824.553958,819.2 870.400001,773.353958 870.400001,716.8 L870.400001,563.2 C870.400001,546.742089 862.496192,531.285589 849.147154,521.659269 C835.798115,512.032949 818.635395,509.410499 803.0208,514.6112 L793.599999,517.7856 L793.599999,517.7856 Z M204.8,563.2 L512,665.6 L819.2,563.2 L819.2,716.8 C819.2,745.076979 796.276979,768 768,768 L256,768 C227.723021,768 204.8,745.076979 204.8,716.8 L204.8,563.2 L204.8,563.2 Z" id="Shape"></path>
            </g>
        </g>
    </g>
</svg>