<?xml version="1.0" encoding="UTF-8"?>
<svg width="764px" height="643px" viewBox="0 0 764 643" version="1.1" xmlns="http://www.w3.org/2000/svg" xmlns:xlink="http://www.w3.org/1999/xlink">
    <!-- Generator: Sketch 61.2 (89653) - https://sketch.com -->
    <title>bili-icon_dingdao_zhibozhongxin</title>
    <desc>Created with Sketch.</desc>
    <g id="icons" stroke="none" stroke-width="1" fill="none" fill-rule="evenodd">
        <g id="Artboard" transform="translate(-9057.000000, -4083.000000)" fill="#6A6A6A" fill-rule="nonzero">
            <g id="bili-icon_dingdao_zhibozhongxin" transform="translate(9057.000000, 4083.000000)">
                <path d="M532.965091,564.785455 L532.965091,568.043636 C532.965091,587.795031 525.11888,606.737461 511.152535,620.703807 C497.186189,634.670153 478.243759,642.516364 458.492364,642.516364 L304.892364,642.516364 C285.140968,642.516364 266.198538,634.670153 252.232193,620.703807 C238.265847,606.737462 230.419636,587.795032 230.419636,568.043636 L230.419636,564.785455 L122.154909,564.785455 C89.787307,564.810154 58.7355872,551.975856 35.8307784,529.105963 C12.9259696,506.23607 0.0443158543,475.203966 0.019636,442.836364 L0.019636,122.138182 C0.0443158543,89.77058 12.9259696,58.7384758 35.8307784,35.8685828 C58.7355872,12.9986899 89.787307,0.164392313 122.154909,0.189055418 L641.229818,0.189055418 C673.59742,0.164392313 704.64914,12.9986899 727.553949,35.8685828 C750.458757,58.7384758 763.340411,89.77058 763.365091,122.138182 L763.365091,442.836364 C763.340411,475.203966 750.458757,506.23607 727.553949,529.105963 C704.64914,551.975856 673.59742,564.810154 641.229818,564.785455 C628.376646,564.785455 617.957091,554.3659 617.957091,541.512728 C617.957091,528.659555 628.376646,518.24 641.229818,518.24 C682.981091,518.24 716.819636,484.494545 716.819636,442.836364 L716.819636,122.138182 C716.819636,80.48 682.981091,46.734546 641.229818,46.734545 L122.154909,46.734545 C80.403636,46.734545 46.565091,80.48 46.565091,122.138182 L46.565091,442.836364 C46.565091,484.494546 80.403636,518.24 122.154909,518.24 L554.701818,518.24 C567.55499,518.24 577.974545,528.659555 577.974545,541.512728 C577.974545,554.3659 567.55499,564.785455 554.701818,564.785455 L532.965091,564.785455 Z M486.419636,564.785455 L276.965091,564.785455 L276.965091,568.043636 C276.965091,583.467443 289.468557,595.970909 304.892364,595.970909 L458.492364,595.970909 C473.916171,595.970909 486.419636,583.467443 486.419636,568.043636 L486.419636,564.785455 Z M381.692364,461.175273 C283.946909,461.175273 204.819636,381.117091 204.819636,282.440727 C204.819636,183.857454 283.946909,103.752727 381.692364,103.752727 C479.437819,103.752727 558.565091,183.810909 558.565091,282.487273 C558.565091,381.117091 479.437818,461.175273 381.692364,461.175273 L381.692364,461.175273 Z M381.692364,414.629818 C453.605091,414.629818 512.019636,355.517091 512.019636,282.440727 C512.019636,209.410909 453.605091,150.298182 381.692364,150.298182 C309.779637,150.298182 251.365091,209.410909 251.365091,282.487273 C251.365091,355.563637 309.779636,414.629818 381.692364,414.629818 Z" id="Shape"></path>
            </g>
        </g>
    </g>
</svg>