<?xml version="1.0" encoding="UTF-8"?>
<svg width="1018px" height="1014px" viewBox="0 0 1018 1014" version="1.1" xmlns="http://www.w3.org/2000/svg" xmlns:xlink="http://www.w3.org/1999/xlink">
    <!-- Generator: Sketch 61.2 (89653) - https://sketch.com -->
    <title>bili-icon_banner_xuanzhong</title>
    <desc>Created with Sketch.</desc>
    <g id="icons" stroke="none" stroke-width="1" fill="none" fill-rule="evenodd">
        <g id="Artboard" transform="translate(0.000000, -13463.000000)" fill-rule="nonzero">
            <g id="bili-icon_banner_xuanzhong" transform="translate(0.000000, 13463.000000)">
                <path d="M967.488,328.384 L682.688,506.688 L967.488,684.928 C895.168,854.144 723.008,973.184 522.048,973.184 C255.872,973.184 40.128,764.288 40.128,506.624 C40.128,249.024 255.872,40.128 522.048,40.128 C723.008,40.128 895.168,159.168 967.488,328.384 Z" id="Path" fill="#FF9900"></path>
                <path d="M915.84,313.344 C841.536,172.352 690.688,80.32 522.048,80.32 C277.824,80.32 80.32,271.488 80.32,506.688 C80.32,741.824 277.824,932.992 522.048,932.992 C690.688,932.992 841.536,840.96 915.84,700.032 L606.976,506.624 L915.84,313.28 L915.84,313.344 Z M758.4,506.624 L1017.92,669.12 L1004.416,700.672 C924.16,888.512 734.848,1013.312 522.048,1013.312 C234.048,1013.312 0,786.752 0,506.688 C0,226.56 233.984,0 522.048,0 C734.848,0 924.16,124.8 1004.416,312.64 L1017.92,344.192 L758.336,506.688 L758.4,506.624 Z" id="Shape" fill="#FFFFFF"></path>
                <path d="M307.904,390.016 C307.904,440.101599 349.853128,480.704 401.6,480.704 C453.346872,480.704 495.296,440.101599 495.296,390.016 C495.296,339.930401 453.346872,299.328 401.6,299.328 C349.853128,299.328 307.904,339.930401 307.904,390.016 L307.904,390.016 Z" id="Path" fill="#FFFFFF"></path>
            </g>
        </g>
    </g>
</svg>