<?xml version="1.0" encoding="UTF-8"?>
<svg width="1024px" height="1024px" viewBox="0 0 1024 1024" version="1.1" xmlns="http://www.w3.org/2000/svg" xmlns:xlink="http://www.w3.org/1999/xlink">
    <!-- Generator: Sketch 61.2 (89653) - https://sketch.com -->
    <title>bili-icon_wechat</title>
    <desc>Created with Sketch.</desc>
    <g id="icons" stroke="none" stroke-width="1" fill="none" fill-rule="evenodd">
        <g id="Artboard" transform="translate(-7852.000000, -12257.000000)" fill="#FFFFFF" fill-rule="nonzero">
            <g id="bili-icon_wechat" transform="translate(7852.000000, 12257.000000)">
                <path d="M512,1024 C229.229714,1024 0,794.770286 0,512 C0,229.229714 229.229714,0 512,0 C794.770286,0 1024,229.229714 1024,512 C1024,794.770286 794.770286,1024 512,1024 Z M439.625143,586.825143 C439.625143,491.812572 530.102857,414.390857 642.377143,414.390857 L660.48,414.390857 C642.340571,326.4 544.585143,256 425.142857,256 C294.802286,256 186.185143,340.48 186.185143,446.061714 C186.185143,509.403428 222.390857,562.212571 280.32,597.394286 L258.596571,667.794286 L349.110857,625.554286 C375.088193,632.530835 401.86561,636.083945 428.763429,636.123429 L450.486857,636.123429 C443.245714,622.006858 439.625143,604.416 439.625143,586.825143 Z M761.782857,717.019429 C808.850286,685.348572 837.814857,639.597715 837.814857,590.336 C837.814857,502.345143 750.957714,431.981714 645.961143,431.981714 C540.928,431.981714 454.070857,502.381714 454.070857,590.336 C454.070857,678.290286 540.928,748.690286 645.961143,748.690286 C671.305143,748.690286 692.992,745.179429 714.715429,738.121143 L779.885714,773.302857 L761.782857,717.019429 L761.782857,717.019429 Z M504.758857,351.012571 C522.861714,351.012571 537.344,365.092571 537.344,382.683429 C537.257672,391.215505 533.767462,399.359774 527.648836,405.306722 C521.53021,411.253669 513.289935,414.510746 504.758857,414.354286 C496.227779,414.510746 487.987504,411.253669 481.868878,405.306722 C475.750252,399.359774 472.260042,391.215505 472.173714,382.683429 C472.173714,365.092572 486.656,351.012571 504.758857,351.012571 L504.758857,351.012571 Z M349.074286,351.012571 C367.177143,351.012571 381.659429,365.092571 381.659429,382.683429 C381.573101,391.215505 378.082891,399.359774 371.964265,405.306722 C365.845639,411.253669 357.605364,414.510746 349.074286,414.354286 C340.546056,414.500881 332.311451,411.240568 326.194993,405.295727 C320.078534,399.350887 316.585252,391.212377 316.489143,382.683429 C316.585251,374.154481 320.078534,366.015971 326.194992,360.07113 C332.311451,354.12629 340.546056,350.865976 349.074286,351.012571 L349.074286,351.012571 Z M714.752,509.403429 C729.234286,509.403429 740.096,519.972572 740.096,534.016 C740.096,548.096 729.234286,558.665143 714.752,558.665143 C700.269714,558.665143 689.407908,548.096 689.407908,534.016 C689.371429,519.936 700.269714,509.403429 714.752,509.403429 Z M584.411429,509.403429 C598.893715,509.403429 609.755429,519.972572 609.755429,534.016 C609.755429,548.096 598.893715,558.665143 584.411429,558.665143 C569.929143,558.665143 559.067429,548.096 559.067429,534.016 C559.067429,519.936 569.929143,509.403429 584.411429,509.403429 Z" id="Shape"></path>
            </g>
        </g>
    </g>
</svg>