<?xml version="1.0" encoding="UTF-8"?>
<svg width="768px" height="641px" viewBox="0 0 768 641" version="1.1" xmlns="http://www.w3.org/2000/svg" xmlns:xlink="http://www.w3.org/1999/xlink">
    <!-- Generator: Sketch 61.2 (89653) - https://sketch.com -->
    <title>bili-musicplus</title>
    <desc>Created with Sketch.</desc>
    <g id="icons" stroke="none" stroke-width="1" fill="none" fill-rule="evenodd">
        <g id="Artboard" transform="translate(-6873.000000, -3052.000000)" fill-rule="nonzero">
            <g id="bili-musicplus" transform="translate(6873.000000, 3052.000000)">
                <path d="M25.6,77 L742.4,77 C759.466667,77 768,85.5333333 768,102.6 L768,614.6 C768,631.666667 759.466667,640.2 742.4,640.2 L25.6,640.2 C8.53333333,640.2 2.84217094e-14,631.666667 2.84217094e-14,614.6 L2.84217094e-14,102.6 C2.84217094e-14,85.5333333 8.53333333,77 25.6,77 Z" id="Path" fill="#FF9900"></path>
                <path d="M25.6,77 L179.2,77 L179.2,640.2 L25.6,640.2 C11.4615104,640.2 0,628.73849 0,614.6 L0,102.6 C0,88.4615104 11.4615104,77 25.6,77 Z M742.4,77 L588.8,77 L588.8,640.2 L742.4,640.2 C756.53849,640.2 768,628.73849 768,614.6 L768,102.6 C768,88.4615104 756.53849,77 742.4,77 L742.4,77 Z" id="Shape" fill="#FFCC80"></path>
                <path d="M655.36,141 L701.44,141 C711.68,141 716.8,146.12 716.8,156.36 L716.8,176.84 C716.8,187.08 711.68,192.2 701.44,192.2 L655.36,192.2 C645.12,192.2 640,187.08 640,176.84 L640,156.36 C640,146.12 645.12,141 655.36,141 Z" id="Path" fill="#FF9900"></path>
                <path d="M655.36,269 L701.44,269 C711.68,269 716.8,274.12 716.8,284.36 L716.8,304.84 C716.8,315.08 711.68,320.2 701.44,320.2 L655.36,320.2 C645.12,320.2 640,315.08 640,304.84 L640,284.36 C640,274.12 645.12,269 655.36,269 Z" id="Path" fill="#FF9900"></path>
                <path d="M655.36,397 L701.44,397 C711.68,397 716.8,402.12 716.8,412.36 L716.8,432.84 C716.8,443.08 711.68,448.2 701.44,448.2 L655.36,448.2 C645.12,448.2 640,443.08 640,432.84 L640,412.36 C640,402.12 645.12,397 655.36,397 Z" id="Path" fill="#FF9900"></path>
                <path d="M655.36,525 L701.44,525 C711.68,525 716.8,530.12 716.8,540.36 L716.8,560.84 C716.8,571.08 711.68,576.2 701.44,576.2 L655.36,576.2 C645.12,576.2 640,571.08 640,560.84 L640,540.36 C640,530.12 645.12,525 655.36,525 Z" id="Path" fill="#FF9900"></path>
                <path d="M448,1.736 C456.7808,-0.8752 463.8976,-0.184 469.3504,3.8096 C474.8288,7.8032 480.3584,13.64 485.9904,21.2688 C491.5968,28.9232 498.5344,37.5248 506.752,47.1248 C514.9952,56.6992 526.208,65.6336 540.4416,73.9024 C552.6784,81.5824 563.4048,86.856 572.6464,89.672 L598.6048,97.5312 C606.8224,99.9632 614.7328,103.0608 622.2592,106.7984 C622.2592,106.7984 640,116.7824 647.7824,127.2784 C655.8976,138.184 662.656,146.9392 664.3968,158.2544 C666.112,169.5952 666.0096,180.168 663.936,189.9472 C662.269022,198.654259 659.02421,206.983189 654.3616,214.5232 C650.0864,221.1024 646.5024,224.456 643.6096,224.456 C640.7424,224.4816 638.208,222.8432 636.0064,219.4128 C633.7792,216.0336 632.1664,209.4288 631.1424,199.6496 C629.4528,183.7776 624.4864,172.616 616.1664,166.1904 C607.8464,159.7648 594.816,156.2064 577.024,155.464 C559.601737,154.795235 542.690066,149.396952 528.1024,139.848 C515.7376,131.8096 504.0384,122.8496 493.1328,113.0448 C484.2496,105.672 477.3376,103.496 472.2432,106.7472 C467.2512,109.9728 464.6656,114.8624 464.512,121.4928 L463.9488,148.2448 L457.2416,422.0368 L456.448,457.4416 C456.6016,467.2976 454.784,478.6384 451.0208,491.4384 C447.232,504.2384 440.3456,516.7312 430.3616,528.8912 C420.4288,541.0512 407.2704,552.1104 390.8864,562.12 C374.5024,572.1296 354.304,579.4768 330.2912,584.1872 C305.8432,588.9488 283.8784,587.7712 264.3968,580.68 C244.9408,573.5888 230.016,563.2464 219.6224,549.6528 C209.3824,536.7248 204.1856,520.0592 204.8512,502.1392 C205.5424,484.0912 213.7088,466.0944 229.3248,448.1744 C244.9408,430.2544 261.76,416.8912 279.7568,408.0592 C296.128464,399.792432 313.565289,393.83083 331.5712,390.344 C346.159488,387.499592 361.045462,386.484835 375.8848,387.3232 C388.8896,388.3728 398.464,389.704 404.6336,391.2656 C404.6336,391.2656 411.0848,111.0992 412.928,49.6592 C413.1584,37.5504 416.512,27.336 422.8608,18.6832 C429.2608,10.1328 437.632,4.4752 448,1.736 L448,1.736 Z M608.9216,289.9152 C609.156711,290.887658 609.276999,291.884328 609.28,292.8848 L609.28,333.8448 L651.008,326.9328 C654.713331,326.316773 658.502235,327.359364 661.370781,329.78432 C664.239327,332.209276 665.89796,335.771821 665.907215,339.528 L665.907215,354.5296 C665.916847,360.79615 661.388112,366.148292 655.2064,367.176 L609.2544,374.8048 L609.28,420.168 C609.275761,426.089886 605.209914,431.235724 599.4496,432.6096 L584.0896,436.2704 C580.280832,437.178821 576.265779,436.293952 573.191724,433.868643 C570.117669,431.443334 568.322802,427.744401 568.32,423.8288 L568.32,381.64 L527.2064,388.5008 C523.496662,389.117548 519.703397,388.071709 516.833873,385.640995 C513.964349,383.210282 512.308931,379.640656 512.307185,375.88 L512.307185,360.8784 C512.297553,354.61185 516.826288,349.259708 523.008,348.232 L568.32,340.68 L568.32,296.5456 C568.312384,290.614153 572.380782,285.454492 578.1504,284.0784 L593.5104,280.4432 C600.380866,278.808389 607.277227,283.047017 608.9216,289.9152 L608.9216,289.9152 Z" id="Shape" fill="#FFE6C0"></path>
                <path d="M66.56,141 L112.64,141 C122.88,141 128,146.12 128,156.36 L128,176.84 C128,187.08 122.88,192.2 112.64,192.2 L66.56,192.2 C56.32,192.2 51.2,187.08 51.2,176.84 L51.2,156.36 C51.2,146.12 56.32,141 66.56,141 Z" id="Path" fill="#FF9900"></path>
                <path d="M66.56,269 L112.64,269 C122.88,269 128,274.12 128,284.36 L128,304.84 C128,315.08 122.88,320.2 112.64,320.2 L66.56,320.2 C56.32,320.2 51.2,315.08 51.2,304.84 L51.2,284.36 C51.2,274.12 56.32,269 66.56,269 Z" id="Path" fill="#FF9900"></path>
                <path d="M66.56,397 L112.64,397 C122.88,397 128,402.12 128,412.36 L128,432.84 C128,443.08 122.88,448.2 112.64,448.2 L66.56,448.2 C56.32,448.2 51.2,443.08 51.2,432.84 L51.2,412.36 C51.2,402.12 56.32,397 66.56,397 Z" id="Path" fill="#FF9900"></path>
                <path d="M66.56,525 L112.64,525 C122.88,525 128,530.12 128,540.36 L128,560.84 C128,571.08 122.88,576.2 112.64,576.2 L66.56,576.2 C56.32,576.2 51.2,571.08 51.2,560.84 L51.2,540.36 C51.2,530.12 56.32,525 66.56,525 Z" id="Path" fill="#FF9900"></path>
            </g>
        </g>
    </g>
</svg>