<?xml version="1.0" encoding="UTF-8"?>
<svg width="915px" height="733px" viewBox="0 0 915 733" version="1.1" xmlns="http://www.w3.org/2000/svg" xmlns:xlink="http://www.w3.org/1999/xlink">
    <!-- Generator: Sketch 61.2 (89653) - https://sketch.com -->
    <title>bili-icon_dingdao_shipintougao</title>
    <desc>Created with Sketch.</desc>
    <g id="icons" stroke="none" stroke-width="1" fill="none" fill-rule="evenodd">
        <g id="Artboard" transform="translate(-5692.000000, -1555.000000)" fill="#6A6A6A" fill-rule="nonzero">
            <g id="bili-icon_dingdao_shipintougao" transform="translate(5692.500000, 1555.000000)">
                <path d="M731.571429,454.854857 L731.571429,586 C731.571429,606.197843 715.197843,622.571429 695,622.571429 C674.802157,622.571429 658.428571,606.197843 658.428571,586 L658.428571,454.854857 L611.141714,502.141714 C596.791855,516.001253 573.982053,515.803034 559.875223,501.696205 C545.768394,487.589375 545.570175,464.779573 559.429714,450.429714 L669.144,340.715429 C683.425138,326.438604 706.574862,326.438604 720.856,340.715429 L830.570286,450.429714 C844.429825,464.779573 844.231606,487.589375 830.124777,501.696205 C816.017947,515.803034 793.208145,516.001253 778.858286,502.141714 L731.571429,454.854857 Z M365.857143,586 C386.052624,586.00334 402.422525,602.375948 402.422525,622.571429 C402.422525,642.766909 386.052624,659.142857 365.857143,659.142857 L73.285714,659.142857 C31.740571,659.142857 0.142857,623.046857 0.142857,580.770286 L0.142857,79.229714 C0.142857,36.953143 31.740571,0.857143 73.285714,0.857143 L731.571429,0.857143 C773.116572,0.857143 804.714286,36.953143 804.714286,79.229714 L804.714286,256.857143 C804.714286,277.052624 788.338338,293.422525 768.142857,293.422525 C747.947377,293.422525 731.574769,277.052624 731.571429,256.857143 L731.571429,79.229714 C731.571429,75.316571 730.401143,74 731.571429,74 L73.285714,74 C74.456,74 73.285714,75.316571 73.285714,79.229714 L73.285714,580.770286 C73.285714,584.683429 74.456,586 73.285714,586 L365.857143,586 L365.857143,586 Z M352.142857,411.115429 L482.373714,330 L352.142857,248.884571 L352.142857,411.115429 L352.142857,411.115429 Z M516.421714,297.341714 C527.70086,304.365691 534.55723,316.712585 534.55723,330 C534.55723,343.287415 527.70086,355.634309 516.421714,362.658286 L365.235429,456.793143 C353.373016,464.178372 338.438936,464.55115 326.222832,457.766958 C314.006729,450.982767 306.428571,438.108348 306.428571,424.134857 L306.428571,235.865143 C306.428571,221.891652 314.006729,209.017233 326.222832,202.233042 C338.438936,195.44885 353.373016,195.821628 365.235429,203.206857 L516.421714,297.341714 L516.421714,297.341714 Z M841.285714,622.571429 L820.696,622.571429 C800.498157,622.571429 784.124571,606.197843 784.124571,586 C784.124571,565.802157 800.498157,549.428571 820.696,549.428571 L855,549.428571 C886.268571,549.428571 914.428571,571.956571 914.428571,604.285714 L914.428571,677.428571 C914.428571,709.757714 886.268571,732.285714 855,732.285714 L535,732.285714 C503.731429,732.285714 475.571429,709.757714 475.571429,677.428571 L475.571429,604.285714 C475.571429,571.956571 503.731429,549.428571 535,549.428571 L569.304,549.428571 C589.501843,549.428571 605.875429,565.802157 605.875429,586 C605.875429,606.197843 589.501843,622.571429 569.304,622.571429 L548.714286,622.571429 L548.714286,659.142857 L841.285714,659.142857 L841.285714,622.571429 L841.285714,622.571429 Z" id="Shape"></path>
            </g>
        </g>
    </g>
</svg>