<?xml version="1.0" encoding="UTF-8"?>
<svg width="732px" height="732px" viewBox="0 0 732 732" version="1.1" xmlns="http://www.w3.org/2000/svg" xmlns:xlink="http://www.w3.org/1999/xlink">
    <!-- Generator: Sketch 61.2 (89653) - https://sketch.com -->
    <title>bili-icon_fenqudaohang_paihangbang</title>
    <desc>Created with Sketch.</desc>
    <g id="icons" stroke="none" stroke-width="1" fill="none" fill-rule="evenodd">
        <g id="Artboard" transform="translate(-9073.000000, -5475.000000)" fill="#6A6A6A" fill-rule="nonzero">
            <g id="bili-icon_fenqudaohang_paihangbang" transform="translate(9073.000000, 5475.000000)">
                <path d="M658.571429,731.714286 L73.428571,731.714286 C33.0328865,731.714286 0.285714,698.967113 0.285714,658.571429 L0.285714,219.714286 C0.285714,179.318602 33.0328865,146.571429 73.428571,146.571429 L219.714286,146.571429 L219.714286,73.428571 C219.714286,33.0328865 252.461459,0.285714 292.857143,0.285714 L439.142857,0.285714 C458.541549,0.285714 477.145721,7.99181431 490.862667,21.7087608 C504.579614,35.4257073 512.285714,54.0298792 512.285714,73.428571 L512.285714,292.857143 L658.571429,292.857143 C698.967113,292.857143 731.714286,325.604316 731.714286,366 L731.714286,658.571429 C731.714286,698.967113 698.967113,731.714286 658.571429,731.714286 Z M512.285714,658.571429 L658.571429,658.571429 L658.571429,366 L512.285714,366 L512.285714,658.571429 Z M439.142857,658.571429 L439.142857,73.428571 L292.857143,73.428571 L292.857143,658.571429 L439.142857,658.571429 L439.142857,658.571429 Z M219.714286,658.571429 L219.714286,219.714286 L73.428571,219.714286 L73.428571,658.571429 L219.714286,658.571429 L219.714286,658.571429 Z" id="Shape"></path>
            </g>
        </g>
    </g>
</svg>