<?xml version="1.0" encoding="UTF-8"?>
<svg width="900px" height="801px" viewBox="0 0 900 801" version="1.1" xmlns="http://www.w3.org/2000/svg" xmlns:xlink="http://www.w3.org/1999/xlink">
    <!-- Generator: Sketch 61.2 (89653) - https://sketch.com -->
    <title>bili-icon_dingdao_zhuzhan</title>
    <desc>Created with Sketch.</desc>
    <g id="icons" stroke="none" stroke-width="1" fill="none" fill-rule="evenodd">
        <g id="Artboard" transform="translate(-4593.000000, -10153.000000)" fill="#FFFFFF" fill-rule="nonzero">
            <g id="bili-icon_dingdao_zhuzhan" transform="translate(4593.000000, 10153.000000)">
                <path d="M668.2,125.366667 L700,125.366667 C810.456949,125.366667 900,214.909717 900,325.366666 L900,600.666667 C900,711.123617 810.456949,800.666667 700,800.666667 L200,800.666667 C89.5430506,800.666667 7.10542736e-15,711.123617 7.10542736e-15,600.666667 L7.10542736e-15,325.366666 C7.10542736e-15,214.909717 89.5430505,125.366667 200,125.366667 L229.3,125.366667 L185.35,83.0166668 C176.098518,74.0844027 170.873396,61.7764978 170.873396,48.9166665 C170.873396,36.0568352 176.098518,23.7489304 185.35,14.8166663 L186,14.1666668 C205.367051,-4.5016661 236.032949,-4.5016661 255.4,14.1666668 L362.15,117.166667 C364.719913,119.652002 367.001025,122.419528 368.95,125.416667 L528.5,125.416667 C530.464613,122.416925 532.762585,119.649294 535.35,117.166667 L642.05,14.2166669 C661.423453,-4.48381972 692.126546,-4.48381972 711.5,14.2166669 L712.15,14.8666664 C721.401482,23.7989305 726.626604,36.1068353 726.626604,48.9666666 C726.626604,61.8264979 721.401482,74.1344028 712.15,83.0666669 L668.2,125.416667 L668.2,125.366667 Z M200,221.866666 C144.771525,221.866666 100,266.638191 100,321.866666 L100,604.216667 C100,659.445142 144.771526,704.216666 200,704.216666 L700,704.216666 C755.228474,704.216666 800,659.445142 800,604.216667 L800,321.866666 C800,266.638191 755.228475,221.866666 700,221.866666 L200,221.866666 Z M300,366.566667 C327.614237,366.566667 350,388.952429 350,416.566667 L350,461.266666 C350,488.880903 327.614237,511.266665 300,511.266665 C272.385763,511.266665 250,488.880903 250,461.266666 L250,416.566667 C250,388.952429 272.385762,366.566667 300,366.566667 L300,366.566667 Z M600,366.566667 C627.614238,366.566667 650,388.952429 650,416.566667 L650,461.266666 C650,488.880628 627.613962,511.265959 600,511.265959 C572.386039,511.265959 550,488.880628 550,461.266666 L550,416.566667 C550,388.952429 572.385763,366.566667 600,366.566667 L600,366.566667 Z" id="Shape"></path>
            </g>
        </g>
    </g>
</svg>