<?xml version="1.0" encoding="UTF-8"?>
<svg width="815px" height="670px" viewBox="0 0 815 670" version="1.1" xmlns="http://www.w3.org/2000/svg" xmlns:xlink="http://www.w3.org/1999/xlink">
    <!-- Generator: Sketch 61.2 (89653) - https://sketch.com -->
    <title>bili-topic</title>
    <desc>Created with Sketch.</desc>
    <g id="icons" stroke="none" stroke-width="1" fill="none" fill-rule="evenodd">
        <g id="Artboard" transform="translate(-10106.000000, -2811.000000)" fill="#FF9900" fill-rule="nonzero">
            <g id="bili-topic" transform="translate(10106.500000, 2811.000000)">
                <path d="M773.64,311.448 C773.64,433.56 661,533.4 520.712,533.4 L302.6,533.4 L136.968,607.896 L44.04,349.336 C41.3770422,336.893362 40.3443738,324.157118 40.968,311.448 L40.968,273.56 C40.968,151.448 151.56,47 291.08,47 L523.784,47 C660.232,47 773.64,151.448 773.64,273.56 L773.64,311.448 Z M535.304,0.408 L279.304,0.408 C127.686515,0.916201376 4.00509993,121.987825 0.264,273.56 L0.264,317.336 C-0.146736873,332.843092 0.881667516,348.354858 3.336,363.672 L108.04,669.08 L291.08,578.968 L535.304,578.968 C688.904,578.968 814.344,462.488 814.344,317.336 L814.344,273.56 C810.736498,121.929736 686.976712,0.781395539 535.304,0.408 L535.304,0.408 Z M593.416,352.152 C565.139021,352.152 542.216,329.228979 542.216,300.952 C543.870132,270.459956 569.825665,247.019937 600.328,248.472 C629.434958,250.24808 651.992857,274.61061 651.528,303.768 C647.616271,332.660468 622.561457,353.962579 593.416,353.176 M414.216,353.176 C385.939021,353.176 363.016,330.252979 363.016,301.976 C364.670132,271.483956 390.625665,248.043937 421.128,249.496 C450.234958,251.27208 472.792857,275.63461 472.328,304.792 C467.489897,333.167603 443.00033,353.98913 414.216,354.2 M235.016,354.2 C206.739021,354.2 183.816,331.276979 183.816,303 C185.470132,272.507956 211.425665,249.067937 241.928,250.52 C271.034958,252.29608 293.592857,276.65861 293.128,305.816 C288.19449,334.137176 263.761958,354.910211 235.016,355.224 M514.056,84.888 L305.672,84.888 C183.56,84.888 81.672,172.184 81.672,273.816 L81.672,303 C81.1676588,313.673919 82.2022663,324.364862 84.744,334.744 L160.264,559 L270.856,500.888 L538.12,500.888 C590.875723,501.873065 641.757834,481.332209 679.044109,443.997636 C716.330385,406.663062 736.805357,355.754404 735.752,303 L735.752,273.56 C732.936,169.112 633.352,81.816 512.008,81.816" id="Shape"></path>
            </g>
        </g>
    </g>
</svg>