<?xml version="1.0" encoding="UTF-8"?>
<svg width="782px" height="615px" viewBox="0 0 782 615" version="1.1" xmlns="http://www.w3.org/2000/svg" xmlns:xlink="http://www.w3.org/1999/xlink">
    <!-- Generator: Sketch 61.2 (89653) - https://sketch.com -->
    <title>bili-icon_dingdao_dengchu</title>
    <desc>Created with Sketch.</desc>
    <g id="icons" stroke="none" stroke-width="1" fill="none" fill-rule="evenodd">
        <g id="Artboard" transform="translate(-10123.000000, -1447.000000)" fill="#6A6A6A" fill-rule="nonzero">
            <g id="bili-icon_dingdao_dengchu" transform="translate(10122.500000, 1447.000000)">
                <path d="M702.151273,284.102545 L611.853091,194.828364 C605.779539,189.017373 603.311488,180.382846 605.396501,172.239851 C607.481515,164.096856 613.795539,157.710978 621.914421,155.53396 C630.033303,153.356941 638.695203,155.727133 644.574545,161.734545 L775.181091,290.805091 C779.60127,295.176729 782.088622,301.135152 782.088622,307.352 C782.088622,313.568848 779.60127,319.527271 775.181091,323.898909 L644.574545,452.969455 C638.695203,458.976867 630.033303,461.347059 621.914421,459.17004 C613.795539,456.993022 607.481515,450.607144 605.396501,442.464149 C603.311488,434.321154 605.779539,425.686627 611.853091,419.875636 L702.151273,330.648 L419.201455,330.648 C406.348283,330.648 395.928727,320.228445 395.928727,307.375272 C395.928727,294.5221 406.348283,284.102545 419.201455,284.102545 L702.151273,284.102545 L702.151273,284.102545 Z M521.322182,509.568727 C521.322183,496.715555 531.741737,486.296001 544.594909,486.296001 C557.448081,486.296001 567.867636,496.715555 567.867636,509.568727 L567.867636,522.461818 C567.769077,547.002988 557.925511,570.499842 540.502452,587.783237 C523.079393,605.066633 499.504078,614.720774 474.962909,614.622771 L93.569455,614.622771 C69.02024,614.733155 45.4329591,605.084488 27.9998207,587.799754 C10.5666822,570.51502 0.716720239,547.011088 0.618182,522.461818 L0.618182,92.242182 C0.618182,41.274909 42.276364,0.082182 93.569455,0.082182 L474.962909,0.082182 C526.209454,0.082182 567.867636,41.274909 567.867636,92.242182 L567.867636,105.135273 C567.867636,113.449818 563.43188,121.132774 556.231273,125.290047 C549.030666,129.44732 540.159152,129.44732 532.958545,125.290047 C525.757938,121.132774 521.322182,113.449818 521.322182,105.135273 L521.322182,92.242182 C521.223824,80.0455694 516.284203,68.3876167 507.590065,59.8331439 C498.895928,51.2786712 487.159515,46.5284781 474.962909,46.627636 L93.569455,46.627636 C81.3648216,46.5160593 69.6164345,51.2607529 60.9122053,59.8165649 C52.2079761,68.3723769 47.2619529,80.0374346 47.163636,92.242182 L47.163636,522.461818 C47.163636,547.596363 67.876363,568.076363 93.569455,568.076364 L474.962909,568.076364 C500.609454,568.076364 521.322182,547.596364 521.322182,522.461818 L521.322182,509.568727 L521.322182,509.568727 Z" id="Shape"></path>
            </g>
        </g>
    </g>
</svg>