<?xml version="1.0" encoding="UTF-8"?>
<svg width="802px" height="739px" viewBox="0 0 802 739" version="1.1" xmlns="http://www.w3.org/2000/svg" xmlns:xlink="http://www.w3.org/1999/xlink">
    <!-- Generator: Sketch 61.2 (89653) - https://sketch.com -->
    <title>bili-blackroom</title>
    <desc>Created with Sketch.</desc>
    <g id="icons" stroke="none" stroke-width="1" fill="none" fill-rule="evenodd">
        <g id="Artboard" transform="translate(-11220.000000, -5898.000000)" fill-rule="nonzero">
            <g id="bili-blackroom" transform="translate(11220.000000, 5898.000000)">
                <path d="M29.264,390.152 C24.2327241,390.589474 19.1791924,389.614231 14.672,387.336 C1.53261051,378.669018 -3.35262757,361.733526 3.152,347.4 L133.968,111.368 C141.956247,97.79505 159.43505,93.2677534 173.008,101.256 C186.58095,109.244247 191.108247,126.72305 183.12,140.296 L52.56,375.816 C48.2125585,384.690502 39.1454494,390.270261 29.264,390.152" id="Path" fill="#FF9900"></path>
                <path d="M270.416,390.152 C260.132733,389.351829 250.744318,384.000432 244.816,375.56 L113.488,140.296 C107.508853,126.6283 112.402462,110.642511 125.008,102.664 C131.386101,98.4018683 139.339369,97.224559 146.678721,99.4561186 C154.018072,101.687678 159.969899,107.092888 162.896,114.184 L293.712,349.448 C297.961028,355.859819 299.101812,363.842375 296.818811,371.187684 C294.535809,378.532994 289.071017,384.462465 281.936,387.336 C279.12,387.336 273.232,390.152 270.416,390.152 M531.792,390.152 C526.841248,390.625805 521.859681,389.647283 517.456,387.336 C504.331976,379.645467 499.227715,363.223061 505.68,349.448 L636.496,114.184 C644.09274,101.08806 660.502128,96.0647777 674.128,102.664 C687.114885,110.338448 692.199642,126.587564 685.904,140.296 L555.6,375.56 C551.326076,384.534196 542.243696,390.223159 532.304,390.152" id="Shape" fill="#FF9900"></path>
                <path d="M773.968,390.152 C763.729007,389.412596 754.348647,384.159594 748.368,375.816 L617.808,140.296 C614.223199,133.802264 613.425181,126.132331 615.596391,119.039712 C617.767601,111.947092 622.722395,106.038224 629.328,102.664 C635.706101,98.4018683 643.659369,97.224559 650.998721,99.4561186 C658.338072,101.687678 664.289899,107.092888 667.216,114.184 L797.776,349.704 C801.927597,356.099149 803.012551,364.012018 800.735522,371.288612 C798.458492,378.565207 793.056484,384.448142 786,387.336 C783.184,387.336 777.296,390.152 774.224,390.152" id="Path" fill="#FF9900"></path>
                <path d="M691.536,102.664 L560.976,51.464 C550.97302,47.8990155 540.56962,45.5775958 530,44.552 L270.416,44.552 C259.580213,45.2926917 248.853547,47.1805848 238.416,50.184 L107.6,102.664 C99.2300763,107.147922 94.8511555,116.640878 96.8731816,125.918409 C98.8952077,135.195941 106.827291,142.005729 116.304,142.6 L685.904,142.6 C695.482944,141.442111 703.079177,133.975399 704.401614,124.417783 C705.724052,114.860167 700.440656,105.611368 691.536,101.896 M348.752,142.6 L348.752,663.304 C348.752,692.217211 372.190789,715.656 401.104,715.656 C430.017211,715.656 453.456,692.217211 453.456,663.304 L453.456,142.6 L348.752,142.6 Z" id="Shape" fill="#FFCC80"></path>
                <path d="M451.152,44.296 C447.447844,19.8120046 426.752374,1.48789076 402,0.776 C375.831201,1.45503257 354.0792,21.1405928 350.8,47.112 L453.2,47.112 L451.152,44.296 Z" id="Path" fill="#FFCC80"></path>
                <path d="M645.2,738.824 L157.008,738.824 C142.455619,738.818034 128.971086,731.185071 121.476241,718.711133 C113.981395,706.237195 113.572955,690.747587 120.4,677.896 L175.44,555.784 C182.435871,540.96269 196.96674,531.144534 213.328,530.184 L587.088,530.184 C604.005751,529.124019 619.492542,539.659251 624.72,555.784 L680.016,680.2 C687.70972,692.298637 687.914924,707.703837 680.546195,720.003112 C673.177466,732.302388 659.497249,739.388569 645.2,738.312" id="Path" fill="#FF9900"></path>
                <path d="M790.352,355.336 C795.049645,355.590475 798.801525,359.342355 799.056,364.04 C793.459791,441.701115 728.822484,501.8483 650.96,501.8483 C573.097516,501.8483 508.460209,441.701115 502.864,364.04 C502.515695,361.641561 503.319954,359.219438 505.033696,357.505696 C506.747438,355.791954 509.169561,354.987695 511.568,355.336 L790.352,355.336 Z M287.824,355.336 C292.521645,355.590475 296.273525,359.342355 296.528,364.04 C291.622933,442.798158 227.196215,504.66561 148.304,506.376 C69.0545965,505.532977 4.1328825,443.190191 0.08,364.04 C-0.26830507,361.641561 0.535953639,359.219438 2.24969577,357.505696 C3.9634379,355.791954 6.38556139,354.987695 8.784,355.336 L287.824,355.336 Z" id="Shape" fill="#FFCC80"></path>
            </g>
        </g>
    </g>
</svg>