<?xml version="1.0" encoding="UTF-8"?>
<svg width="972px" height="704px" viewBox="0 0 972 704" version="1.1" xmlns="http://www.w3.org/2000/svg" xmlns:xlink="http://www.w3.org/1999/xlink">
    <!-- Generator: Sketch 61.2 (89653) - https://sketch.com -->
    <title>bili-icon_xinxi_yuedushu</title>
    <desc>Created with Sketch.</desc>
    <g id="icons" stroke="none" stroke-width="1" fill="none" fill-rule="evenodd">
        <g id="Artboard" transform="translate(-10028.000000, -4230.000000)" fill="#FFFFFF" fill-rule="nonzero">
            <g id="bili-icon_xinxi_yuedushu" transform="translate(10028.000000, 4230.000000)">
                <path d="M486,480 C556.692448,480 614,422.692448 614,352 C614,281.307552 556.692448,224 486,224 C415.307552,224 358,281.307552 358,352 C358,422.692448 415.307552,480 486,480 Z M486,160 C592.038672,160 678,245.961328 678,352 C678,458.038672 592.038672,544 486,544 C379.961328,544 294,458.038672 294,352 C294,245.961328 379.961328,160 486,160 Z M486,64 C371.981421,74.2239606 266.407625,128.387908 191.6,215.04 C159.205805,248.242093 129.260689,283.748445 102,321.28 L76.4,352 L102,382.72 C129.260689,420.251555 159.205805,455.757907 191.6,488.96 C266.407625,575.612092 371.981421,629.776039 486,640 C600.018579,629.776039 705.592375,575.612092 780.4,488.96 C813.896826,455.870343 844.913873,420.361172 873.2,382.72 L895.6,352 L873.2,321.28 C844.913873,283.638828 813.896826,248.129657 780.4,215.04 C705.592375,128.387908 600.018579,74.2239606 486,64 M486,0 C616.879372,9.54723465 738.735965,70.2456129 825.2,168.96 C860.86602,204.589218 894.012555,242.654271 924.4,282.88 C934.64,296.32 943.6,309.12 951.28,320 L960.88,334.72 L971.76,352 L960.88,369.28 L951.28,384 C943.6,394.88 934.64,407.68 924.4,421.12 C894.012555,461.345729 860.86602,499.410782 825.2,535.04 C738.735965,633.754387 616.879372,694.452765 486,704 C355.120628,694.452765 233.264035,633.754387 146.8,535.04 C111.13398,499.410782 77.9874451,461.345729 47.6,421.12 C38,407.68 28.4,394.88 20.72,384 L11.12,369.28 L0.24,352 L11.12,334.72 L20.72,320 C28.4,309.12 37.36,296.32 47.6,282.88 C77.9874451,242.654271 111.13398,204.589218 146.8,168.96 C233.264035,70.2456129 355.120628,9.54723465 486,0 Z" id="Shape"></path>
            </g>
        </g>
    </g>
</svg>