<?xml version="1.0" encoding="UTF-8"?>
<svg width="768px" height="692px" viewBox="0 0 768 692" version="1.1" xmlns="http://www.w3.org/2000/svg" xmlns:xlink="http://www.w3.org/1999/xlink">
    <!-- Generator: Sketch 61.2 (89653) - https://sketch.com -->
    <title>bili-match</title>
    <desc>Created with Sketch.</desc>
    <g id="icons" stroke="none" stroke-width="1" fill="none" fill-rule="evenodd">
        <g id="Artboard" transform="translate(-5766.000000, -3037.000000)" fill-rule="nonzero">
            <g id="bili-match" transform="translate(5766.000000, 3037.000000)">
                <path d="M417.02912,557.5632 L417.02912,625.57216 L525.13792,625.57216 C531.503324,625.570802 537.608482,628.098497 542.109982,632.599037 C546.611483,637.099577 549.14048,643.204196 549.14048,649.5696 L549.14048,667.40256 C549.14048,673.767964 546.611483,679.872583 542.109982,684.373123 C537.608482,688.873663 531.503324,691.400001 525.13792,691.400001 L242.8672,691.400001 C236.500909,691.400001 230.394975,688.872961 225.893327,684.371313 C221.391679,679.869665 218.863282,673.763731 218.86464,667.39744 L218.86464,649.5696 C218.86464,643.204196 221.393637,637.099577 225.895138,632.599037 C230.396638,628.098497 236.501796,625.570802 242.8672,625.57216 L350.976,625.57216 L350.976,557.55808 C293.64224,549.91904 242.5088,522.6704 204.544,482.77536 C101.0176,451.85056 33.05472,356.96672 2.27328,203.85824 C-10.27072,141.47616 30.31552,80.77344 92.91264,68.2704 C100.389594,66.7783145 107.995461,66.0271601 115.61984,66.02784 L136.29952,66.02784 L136.29952,48.2 C136.29952,21.690332 157.789852,0.2 184.29952,0.2 L583.71072,0.2 C610.220388,0.2 631.71072,21.690332 631.71072,48.2 L631.71072,66.02784 L652.38016,66.02784 C660.00896,66.02784 667.61216,66.78048 675.08736,68.2704 C737.68448,80.76832 778.2656,141.47616 765.72672,203.85824 C734.9504,356.9616 666.98752,451.84544 563.46624,482.77536 C525.49632,522.6704 474.36288,549.91904 417.03424,557.55808 L417.02912,557.5632 Z M142.34112,366.65376 C138.314883,348.727997 136.288637,330.411075 136.29952,312.03872 L136.29952,131.85568 L115.61472,131.85568 C112.35328,131.85568 109.09184,132.17824 105.88672,132.81824 C79.05792,138.17376 61.66528,164.18848 67.04128,190.93024 C82.82112,269.41984 107.79648,327.5728 142.336,366.64864 L142.34112,366.65376 Z M631.71072,131.85568 L631.71072,312.03872 C631.71072,330.7984 629.62176,349.0768 625.66912,366.64352 C660.20352,327.56768 685.17888,269.4096 700.95872,190.92512 C706.33472,164.18848 688.94208,138.17376 662.11328,132.81824 C658.910118,132.178523 655.651697,131.85568 652.38528,131.85568 L631.71072,131.85568 L631.71072,131.85568 Z" id="Shape" fill="#FFCC80"></path>
                <path d="M384,308.63904 L324.20864,339.85568 C319.892956,342.107525 314.673512,341.716516 310.741505,338.846802 C306.809498,335.977089 304.845583,331.125437 305.67424,326.32864 L317.06624,260.3472 L268.8768,213.69376 C265.370623,210.29746 264.101395,205.202632 265.604513,200.558413 C267.10763,195.914194 271.121375,192.529218 275.95264,191.83136 L342.63552,182.20576 L372.53632,122.0304 C374.698523,117.677418 379.139591,114.924611 384,114.924611 C388.860409,114.924611 393.301477,117.677418 395.46368,122.0304 L425.36448,182.20576 L492.04736,191.83136 C496.878625,192.529218 500.89237,195.914194 502.395487,200.558413 C503.898605,205.202632 502.629377,210.29746 499.1232,213.69376 L450.93376,260.3472 L462.32576,326.32864 C463.154417,331.125437 461.190502,335.977089 457.258495,338.846802 C453.326488,341.716516 448.107044,342.107525 443.79136,339.85568 L384,308.63904 Z" id="Path" fill="#FF9900"></path>
            </g>
        </g>
    </g>
</svg>