<?xml version="1.0" encoding="UTF-8"?>
<svg width="660px" height="878px" viewBox="0 0 660 878" version="1.1" xmlns="http://www.w3.org/2000/svg" xmlns:xlink="http://www.w3.org/1999/xlink">
    <!-- Generator: Sketch 61.2 (89653) - https://sketch.com -->
    <title>bili-icon_dingdao_chuangzuozhongxin</title>
    <desc>Created with Sketch.</desc>
    <g id="icons" stroke="none" stroke-width="1" fill="none" fill-rule="evenodd">
        <g id="Artboard" transform="translate(-3606.000000, -10326.000000)" fill="#6A6A6A" fill-rule="nonzero">
            <g id="bili-icon_dingdao_chuangzuozhongxin" transform="translate(3606.000000, 10326.000000)">
                <path d="M301.913143,668.888 C281.717662,668.88466 265.347761,652.512052 265.347761,632.316572 C265.347761,612.121091 281.717662,595.748483 301.913143,595.745143 L395.828571,595.745143 C444.066285,595.745143 483.6,634.072 483.6,681.944 C483.6,729.816 444.066286,768.142857 395.828571,768.142857 L271.485714,768.142857 C203.097143,768.142857 147.142857,713.944 147.142857,646.469714 L147.142857,622.113143 C147.142857,596.988572 138.365714,581.774857 110.681143,557.966857 C37.904,495.393143 0.857143,415.301714 0.857143,320.325714 C0.857143,143.246857 148.459429,0.142857 330,0.142857 C511.540571,0.142857 659.142857,143.246857 659.142857,320.325714 C659.142857,421.372571 608.162286,518.213714 520.171429,586.565714 C504.206305,598.152116 481.929066,594.988941 469.820293,579.416289 C457.711519,563.843637 460.13519,541.47386 475.298286,528.856 C546.027429,473.852571 586,397.930286 586,320.325714 C586,184.133714 471.641143,73.285714 330,73.285714 C188.358857,73.285714 74,184.133714 74,320.325714 C74,393.907428 101.684571,453.774857 158.370286,502.488 C200.793143,539.022857 220.285715,572.778286 220.285714,622.113143 L220.285714,646.469714 C220.285714,673.057143 242.96,695 271.485714,695 L395.828571,695 C404.166857,695 410.457142,688.892571 410.457143,681.944 C410.457143,674.995429 404.166857,668.888 395.828571,668.888 L301.913143,668.888 L301.913143,668.888 Z M256.857143,804.714286 L403.142857,804.714286 C423.338338,804.717626 439.708239,821.090234 439.708239,841.285715 C439.708239,861.481195 423.338338,877.853803 403.142857,877.857143 L256.857143,877.857143 C236.661662,877.853803 220.291761,861.481195 220.291761,841.285715 C220.291761,821.090234 236.661662,804.717626 256.857143,804.714286 L256.857143,804.714286 Z M256.857143,388.714286 C247.610967,388.71601 239.274464,383.147026 235.735872,374.60477 C232.197281,366.062514 234.153675,356.229742 240.692571,349.692571 L350.626286,239.978286 C359.625631,231.503647 373.731944,231.719383 382.467926,240.465258 C391.203908,249.211134 391.403677,263.317682 382.918857,272.307429 L312.116571,343 L403.142857,343 C423.988571,343 433.972571,368.636571 418.576,382.716571 L298.512,492.430857 C289.141818,500.436588 275.111771,499.571989 266.795459,490.476331 C258.479147,481.380673 258.871441,467.329486 267.682286,458.712 L344.262857,388.714286 L256.857143,388.714286 L256.857143,388.714286 Z" id="Shape"></path>
            </g>
        </g>
    </g>
</svg>