<?xml version="1.0" encoding="UTF-8"?>
<svg width="740px" height="706px" viewBox="0 0 740 706" version="1.1" xmlns="http://www.w3.org/2000/svg" xmlns:xlink="http://www.w3.org/1999/xlink">
    <!-- Generator: Sketch 61.2 (89653) - https://sketch.com -->
    <title>bili-icon_dingdao_dianpu</title>
    <desc>Created with Sketch.</desc>
    <g id="icons" stroke="none" stroke-width="1" fill="none" fill-rule="evenodd">
        <g id="Artboard" transform="translate(-1851.000000, -4272.000000)" fill="#6A6A6A" fill-rule="nonzero">
            <g id="bili-icon_dingdao_dianpu" transform="translate(1851.000000, 4272.000000)">
                <path d="M369.743273,0.604364 L617.132364,0.604364 C642.641015,0.604863579 665.272132,16.9683247 673.266182,41.192 L734.613091,227.513455 C743.691946,255.101349 738.983567,285.370093 721.953721,308.896714 C704.923876,332.423335 677.640463,346.351043 648.597091,346.344 C609.98163,346.364141 573.274125,329.556862 548.058909,300.310545 C529.205069,329.093575 497.102816,346.42249 462.694545,346.390589 C426.113454,346.408902 391.665513,329.176306 369.743273,299.891636 C347.81128,329.158765 313.36489,346.373335 276.792,346.344 C242.382564,346.376467 210.272539,329.0703 191.381091,300.310545 C166.174559,329.574178 129.465822,346.399015 90.842909,346.390589 C61.7964,346.390589 34.5152411,332.447466 17.4939829,308.910761 C0.47272467,285.374057 -4.22131306,255.09941 4.873455,227.513455 L66.127273,41.145455 C74.1266882,16.9054947 96.7818464,0.538221681 122.307636,0.557800422 L369.743273,0.557800422 L369.743273,0.604364 Z M533.816,47.149818 L563.512,227.56 C570.370136,269.218956 606.377397,299.789671 648.597091,299.798546 C662.704617,299.801903 675.957674,293.03827 684.232293,281.612292 C692.506913,270.186314 694.798846,255.484706 690.394909,242.082182 L629.048,55.760727 C627.344358,50.624311 622.543938,47.1552576 617.132364,47.149818 L533.816,47.149818 L533.816,47.149818 Z M486.618909,47.149818 L393.016,47.149818 L393.016,230.12 C393.016,268.613091 424.201455,299.798565 462.694545,299.798565 C479.040973,299.812463 494.565992,292.635182 505.144926,280.173558 C515.723859,267.711933 520.285598,251.227695 517.618182,235.100364 L486.618909,47.149818 Z M346.470545,230.12 L346.470545,47.149818 L252.774545,47.149818 L221.821818,235.146909 C219.154402,251.27424 223.716141,267.758479 234.295074,280.220104 C244.874007,292.681728 260.399026,299.859009 276.745455,299.845111 C315.192,299.845111 346.424,268.613091 346.424,230.12 L346.470545,230.12 Z M175.928,227.56 L205.670545,47.1497719 L122.354182,47.1497719 C116.925476,47.1351738 112.101024,50.6080281 110.392,55.760727 L49.091636,242.035636 C44.671787,255.436223 46.9493808,270.143735 55.2154137,281.579796 C63.4814466,293.015857 76.7322482,299.791888 90.842909,299.798545 C133.059636,299.798545 169.085818,269.218181 175.928,227.56 L175.928,227.56 Z M616.248,398.056 C616.248,385.202828 626.667555,374.783272 639.520728,374.783272 C652.3739,374.783272 662.793455,385.202828 662.793455,398.056 L662.793455,576.511273 C662.793455,647.725818 605.170182,705.442182 534.095273,705.442182 L193.848,705.442182 C159.682356,705.417507 126.926535,691.8184 102.789603,667.637821 C78.6526721,643.457243 65.1127666,610.676906 65.1497422,576.511273 L65.1497422,398.056 C65.1497422,385.202828 75.569373,374.783272 88.4225455,374.783272 C101.275718,374.783272 111.695273,385.202828 111.695273,398.056 L111.695273,576.511273 C111.695273,621.986182 148.466182,658.896728 193.848,658.896727 L534.095273,658.896727 C579.430546,658.896727 616.248,621.986182 616.248,576.511273 L616.248,398.056 L616.248,398.056 Z" id="Shape"></path>
            </g>
        </g>
    </g>
</svg>