<?xml version="1.0" encoding="UTF-8"?>
<svg width="852px" height="835px" viewBox="0 0 852 835" version="1.1" xmlns="http://www.w3.org/2000/svg" xmlns:xlink="http://www.w3.org/1999/xlink">
    <!-- Generator: Sketch 61.2 (89653) - https://sketch.com -->
    <title>bili-general_search</title>
    <desc>Created with Sketch.</desc>
    <g id="icons" stroke="none" stroke-width="1" fill="none" fill-rule="evenodd">
        <g id="Artboard" transform="translate(-6831.000000, -8882.000000)" fill="#FFFFFF" fill-rule="nonzero">
            <g id="bili-general_search" transform="translate(6831.500000, 8881.000000)">
                <path d="M580.2,629 C439.4,744.2 234.6,737.8 106.6,609.8 C-34.2,469 -34.2,245 100.2,104.2 C234.6,-36.6 458.6,-30.2 599.4,104.2 C721,225.8 733.8,417.8 637.8,552.2 L836.2,750.6 C855.4,769.8 855.4,801.8 836.2,821 C817,840.2 785,840.2 765.8,821 L580.2,629 L580.2,629 Z M535.4,539.4 C637.8,437 637.8,277 535.4,174.6 C433,72.2 273,72.2 170.6,174.6 C68.2,277 68.2,437 170.6,539.4 C273,641.8 433,635.4 535.4,539.4 Z" id="Shape"></path>
            </g>
        </g>
    </g>
</svg>