<?xml version="1.0" encoding="UTF-8"?>
<svg width="660px" height="798px" viewBox="0 0 660 798" version="1.1" xmlns="http://www.w3.org/2000/svg" xmlns:xlink="http://www.w3.org/1999/xlink">
    <!-- Generator: Sketch 61.2 (89653) - https://sketch.com -->
    <title>bili-remen</title>
    <desc>Created with Sketch.</desc>
    <g id="icons" stroke="none" stroke-width="1" fill="none" fill-rule="evenodd">
        <g id="Artboard" transform="translate(-179.000000, -8665.000000)" fill="#FFFFFF" fill-rule="nonzero">
            <g id="bili-remen" transform="translate(179.000000, 8665.000000)">
                <path d="M311.933714,0.737143 C317.821714,0.737143 323.307428,2.492572 327.915429,5.491429 L331.572571,8.234286 L331.865143,8.563429 C334.862516,11.340876 337.242383,14.7175447 338.850286,18.474286 C366.132572,59.361143 390.672,122.337143 375.202286,207.768 C360.208,282.885714 372.203429,339.937143 429.035429,339.937143 C470.580572,339.937143 487.257143,303.109714 483.380571,257.285714 L483.490286,257.176 L483.490286,256.517714 C483.485224,241.769674 494.457918,229.323504 509.090286,227.48 L512.747429,227.260571 C520.171429,227.260571 526.937143,230.003428 532.093714,234.574857 L534.982857,237.500571 C566.726857,268.586285 602.64,319.347428 639.540571,414.396571 L644.331429,427.086857 C690.045715,543.237714 634.201143,754.181714 415.833143,795.470857 C396.513907,802.035155 375.531157,791.695235 368.966859,772.375999 C362.40256,753.056764 372.742479,732.074014 392.061714,725.509714 L391.915429,724.778286 C431.266286,718.158857 463.449143,706.419429 480.637714,696.106286 L486.123429,692.668571 C534.982858,660.851428 641.369143,559.987428 550.708571,393.294857 L533.483429,358.917714 C493.510858,401.048 453.977143,418.492571 414.882286,411.214857 L406.470857,409.496 C349.931428,397.025143 288.564571,361.624 299.316571,223.786286 L308.093714,145.925714 C276.020571,190.616 245.044571,227.406857 215.056,256.298286 L205.108571,265.660571 C155.590857,310.899428 84.496,416.225142 80.107429,458.757714 L78.571429,474.227429 C74.256,523.598858 73.780572,617.148572 172.486857,685.134857 C202,705.432 234.475428,717.683428 267.133714,724.083429 C286.463049,728.456262 298.58769,747.670665 294.214857,767 C289.842024,786.329335 270.627621,798.453976 251.298286,794.081143 C46.937143,751.658286 -22.146285,561.230857 7.366857,448.115429 C30.150857,362.282286 88.189714,279.155429 142.754286,224.737143 L150.909714,216.801143 C241.314285,130.748572 273.68,64.152 284.139429,20.558857 C288.264454,8.72689822 299.403392,0.783076385 311.933714,0.737143 L311.933714,0.737143 Z" id="Path"></path>
            </g>
        </g>
    </g>
</svg>