<?xml version="1.0" encoding="UTF-8"?>
<svg width="657px" height="739px" viewBox="0 0 657 739" version="1.1" xmlns="http://www.w3.org/2000/svg" xmlns:xlink="http://www.w3.org/1999/xlink">
    <!-- Generator: Sketch 61.2 (89653) - https://sketch.com -->
    <title>bili-read</title>
    <desc>Created with Sketch.</desc>
    <g id="icons" stroke="none" stroke-width="1" fill="none" fill-rule="evenodd">
        <g id="Artboard" transform="translate(-1893.000000, -5728.000000)" fill-rule="nonzero">
            <g id="bili-read" transform="translate(1892.500000, 5727.000000)">
                <path d="M598.496,1.08 L60.896,1.08 C45.7325928,0.173127038 30.8372225,5.37441438 19.5342614,15.5230305 C8.23130035,25.6716466 1.46158819,39.9228375 0.736,55.096 L0.736,685.624 C2.25638441,716.820065 28.6661092,740.943234 59.872,739.64 L597.472,739.64 C628.677891,740.943234 655.087616,716.820065 656.608,685.624 L656.608,55.096 C655.087616,23.899935 628.677891,-0.223233505 597.472,1.08 L598.496,1.08 Z" id="Path" fill="#FFB340"></path>
                <path d="M118.496,538.168 L539.872,538.168 C554.434644,538.168 566.24,526.362644 566.24,511.8 C566.24,497.237356 554.434644,485.432 539.872,485.432 L118.496,485.432 C103.933356,485.432 92.128,497.237356 92.128,511.8 C92.128,526.362644 103.933356,538.168 118.496,538.168 Z M539.872,591.928 L118.496,591.928 C103.933356,591.928 92.128,603.733356 92.128,618.296 C92.128,632.858644 103.933356,644.664 118.496,644.664 L539.872,644.664 C554.434644,644.664 566.24,632.858644 566.24,618.296 C566.24,603.733356 554.434644,591.928 539.872,591.928 Z" id="Shape" fill="#FFCC80"></path>
                <path d="M172.256,96.056 L486.368,96.056 C539.786667,96.056 566.496,122.765333 566.496,176.184 L566.496,330.552 C566.496,383.970667 539.786667,410.68 486.368,410.68 L172.256,410.68 C118.837333,410.68 92.128,383.970667 92.128,330.552 L92.128,176.184 C92.128,122.765333 118.837333,96.056 172.256,96.056 L172.256,96.056 Z" id="Path" fill="#FF9900"></path>
                <path d="M175.584,220.472 C175.584,238.123779 185.001111,254.434695 200.288,263.260584 C215.574888,272.086474 234.409112,272.086474 249.696,263.260584 C264.982889,254.434695 274.4,238.123779 274.4,220.472 C274.4,202.820221 264.982889,186.509305 249.696,177.683416 C234.409112,168.857526 215.574888,168.857526 200.288,177.683416 C185.001111,186.509305 175.584,202.820221 175.584,220.472 L175.584,220.472 Z" id="Path" fill="#FFCC80"></path>
                <path d="M195.552,410.936 L316.384,266.552 C324.847323,256.427535 337.364068,250.576671 350.56,250.576671 C363.755932,250.576671 376.272677,256.427535 384.736,266.552 L505.568,410.936 L195.552,410.936 Z" id="Path" fill="#FFCC80"></path>
            </g>
        </g>
    </g>
</svg>