<?xml version="1.0" encoding="UTF-8"?>
<svg width="900px" height="895px" viewBox="0 0 900 895" version="1.1" xmlns="http://www.w3.org/2000/svg" xmlns:xlink="http://www.w3.org/1999/xlink">
    <!-- Generator: Sketch 61.2 (89653) - https://sketch.com -->
    <title>bili-icon_dingdao_sousuo</title>
    <desc>Created with Sketch.</desc>
    <g id="icons" stroke="none" stroke-width="1" fill="none" fill-rule="evenodd">
        <g id="Artboard" transform="translate(-6807.000000, -10466.000000)" fill="#FFFFFF" fill-rule="nonzero">
            <g id="bili-icon_dingdao_sousuo" transform="translate(6807.000000, 10466.000000)">
                <path d="M623.992,618.992 C532.40498,712.40115 397.715837,749.440567 271.244496,715.99731 C144.773155,682.554054 45.9979465,583.778845 12.5546895,457.307504 C-20.8885674,330.836163 16.1508501,196.14702 109.56,104.56 C252.017592,-35.1186756 480.396038,-33.9939902 621.471014,107.080986 C762.54599,248.155962 763.670676,476.534408 623.992,618.992 Z M538.232,533.232 C602.213977,472.543587 628.217559,381.911249 606.144144,296.53244 C584.070729,211.15363 517.39837,144.481271 432.01956,122.407856 C346.640751,100.334441 256.008413,126.338023 195.32,190.32 C103.498186,285.510584 104.859929,436.713333 198.381298,530.234702 C291.902667,623.756071 443.105416,625.117814 538.296,533.296 L538.232,533.232 Z M538.232,533.232 C561.912,509.552 600.312,509.552 623.992,533.232 L881.272,790.512 C904.953968,814.19397 904.953968,852.590029 881.271998,876.271998 C857.590029,899.953968 819.19397,899.953968 795.512,876.272 L538.232,618.992 C526.851307,607.623876 520.456643,592.197845 520.456643,576.112 C520.456643,560.026155 526.851307,544.600124 538.232,533.232 L538.232,533.232 Z" id="Shape"></path>
            </g>
        </g>
    </g>
</svg>