<?xml version="1.0" encoding="UTF-8"?>
<svg width="1023px" height="1023px" viewBox="0 0 1023 1023" version="1.1" xmlns="http://www.w3.org/2000/svg" xmlns:xlink="http://www.w3.org/1999/xlink">
    <!-- Generator: Sketch 61.2 (89653) - https://sketch.com -->
    <title>bili-ic_gerenzhongxin_dahuiyuanhuibiao</title>
    <desc>Created with Sketch.</desc>
    <g id="icons" stroke="none" stroke-width="1" fill="none" fill-rule="evenodd">
        <g id="Artboard" transform="translate(-5638.000000, -13975.000000)" fill-rule="nonzero">
            <g id="bili-ic_gerenzhongxin_dahuiyuanhuibiao" transform="translate(5638.500000, 13975.000000)">
                <path d="M511.07078,0.046461 C646.615179,0.046461 776.608031,53.8912632 872.452395,149.735626 C968.296758,245.57999 1022.14156,375.572842 1022.14156,511.117241 C1022.14156,793.367695 793.321234,1022.18802 511.07078,1022.18802 C228.820326,1022.18802 0,793.367695 0,511.117241 C0,228.866787 228.820327,0.046461 511.07078,0.046461 Z" id="Path" fill="#FFFFFF"></path>
                <path d="M511.07078,92.968421 C742.007997,92.968421 929.2196,280.180025 929.2196,511.117242 C929.2196,742.054458 742.007997,929.266062 511.07078,929.266062 C280.133563,929.266062 92.9219595,742.054458 92.9219595,511.117242 C92.9219595,280.180025 280.133563,92.968421 511.07078,92.968421 L511.07078,92.968421 Z" id="Path" fill="#FF9900"></path>
                <path d="M436.733212,240.203267 C477.014882,241.132487 514.090744,262.690381 535.184029,297.396733 C555.533938,338.096552 535.184029,386.741198 540.805808,392.455898 C546.427587,398.124138 591.355354,376.612704 608.545917,371.22323 C643.484067,356.988073 681.721578,352.866472 718.890744,359.32922 C749.184438,378.287175 765.774112,413.060291 761.449002,448.534301 C757.499819,486.818149 723.397459,485.099092 683.208711,478.269328 C635.026111,475.933542 586.793612,481.713275 540.527042,495.366969 C522.825409,501.08167 510.606171,504.566243 502.150272,519.480218 L502.800726,519.480218 C494.205445,534.347732 422.516152,699.051906 413.456261,722.050091 C398.124138,749.926679 374.940109,772.599637 346.970599,787.281307 C315.13836,801.287179 278.517716,799.161487 248.519782,781.566606 C220.689655,759.729945 213.209437,743.096915 243.409074,732.782577 C273.608711,722.5147 332.103085,648.688203 346.970599,625.922323 C361.838113,603.109982 415.639927,526.913975 403.745917,518.829764 C369.012432,516.558055 334.151575,520.475182 300.788385,530.398548 C284.387659,535.462795 276.39637,543.547005 262.132849,525.148457 C247.683098,501.913687 239.444017,475.356649 238.205445,448.02323 C240.063884,438.823956 241.829401,434.27078 243.362613,434.27078 C305.88162,431.841716 368.022412,423.40899 428.927768,409.088929 C436.826135,384.650454 438.312886,358.539383 433.341561,333.357532 C427.067846,306.366832 417.10919,280.368019 403.745917,256.092922 C399.192741,252.608348 410.018149,240.249728 436.733212,240.249728 L436.733212,240.203267 Z M592.284574,580.529946 C624.953792,585.929406 656.854198,595.242141 687.297278,608.267151 C717.450454,623.320509 819.711071,659.8853 799.082396,726.092196 C778.500182,792.15971 769.440291,797.735027 749.880218,781.613067 C730.366606,765.491107 561.248639,615.096915 555.998548,606.733938 C551.119771,599.95783 551.562836,590.711252 557.067151,584.432668 C564.919057,577.742287 582.295463,580.065336 592.284574,580.529946 L592.284574,580.529946 Z" id="Shape" fill="#FFFFFF"></path>
            </g>
        </g>
    </g>
</svg>