<?xml version="1.0" encoding="UTF-8"?>
<svg width="1024px" height="1024px" viewBox="0 0 1024 1024" version="1.1" xmlns="http://www.w3.org/2000/svg" xmlns:xlink="http://www.w3.org/1999/xlink">
    <!-- Generator: Sketch 61.2 (89653) - https://sketch.com -->
    <title>bili-yingbi</title>
    <desc>Created with Sketch.</desc>
    <g id="icons" stroke="none" stroke-width="1" fill="none" fill-rule="evenodd">
        <g id="Artboard" transform="translate(-11109.000000, -13861.000000)" fill-rule="nonzero">
            <g id="bili-yingbi" transform="translate(11109.000000, 13861.000000)">
                <path d="M0,512 C0,794.769792 229.230208,1024 512,1024 C794.769792,1024 1024,794.769792 1024,512 C1024,229.230208 794.769792,0 512,0 C229.230208,0 0,229.230208 0,512 Z" id="Path" fill="#FF9900"></path>
                <path d="M283.761778,394.126222 L353.393778,394.126222 L353.393778,532.024889 L490.609778,532.024889 L490.609778,601.656889 L353.393778,601.656889 L353.393778,739.555556 L283.761778,739.555556 L283.761778,601.656889 L146.545778,601.656889 L146.545778,532.024889 L283.761778,532.024889 L283.761778,394.126222 Z M559.559111,340.878222 C575.943111,340.878222 591.872,339.512889 607.345778,336.782222 C622.819556,334.051555 636.814222,329.500444 649.329778,323.128889 C661.845334,316.757333 672.540445,308.565333 681.415111,298.552889 C690.289778,288.540445 696.092444,276.252445 698.823111,261.688889 L762.311111,261.688889 L762.311111,739.555556 L676.977778,739.555556 L676.977778,402.318222 L559.559111,402.318222 L559.559111,340.878222 Z" id="Shape" fill="#FFFFFF"></path>
            </g>
        </g>
    </g>
</svg>