<?xml version="1.0" encoding="UTF-8"?>
<svg width="718px" height="759px" viewBox="0 0 718 759" version="1.1" xmlns="http://www.w3.org/2000/svg" xmlns:xlink="http://www.w3.org/1999/xlink">
    <!-- Generator: Sketch 61.2 (89653) - https://sketch.com -->
    <title>bili-zhishi</title>
    <desc>Created with Sketch.</desc>
    <g id="icons" stroke="none" stroke-width="1" fill="none" fill-rule="evenodd">
        <g id="Artboard" transform="translate(-11262.000000, -1495.000000)" fill-rule="nonzero">
            <g id="bili-zhishi" transform="translate(11262.000000, 1495.000000)">
                <path d="M607.367188,0.3125 C668.285938,0.3125 717.6875,50.684375 717.6875,112.826562 L717.6875,646.160938 C717.6875,708.260938 668.328125,758.632812 607.367188,758.632812 L344.75,758.632812 C344.75,742.517187 319.057813,729.48125 287.375,729.48125 C255.692187,729.48125 230,742.559375 230,758.632812 L110.820312,758.632812 C49.9015625,758.632812 0.5,708.260937 0.5,646.203125 L0.5,112.826562 C0.5,50.684375 49.859375,0.3125 110.820312,0.3125 L607.367188,0.3125 Z" id="Path" fill="#FFCC80"></path>
                <path d="M607.367188,0.3125 C668.285938,0.3125 717.6875,50.684375 717.6875,112.826562 L717.6875,322.498437 C668.201563,327.392188 631.625,344.520313 631.625,364.896875 C631.625,385.273438 668.201563,402.44375 717.6875,407.253125 L717.6875,441.973438 C717.6875,504.115625 668.328125,554.4875 607.367188,554.4875 L110.820312,554.4875 C49.9015625,554.4875 0.5,504.115625 0.5,441.973438 L0.5,112.826562 C0.5,50.684375 49.859375,0.3125 110.820312,0.3125 L607.367188,0.3125 Z" id="Path" fill="#FFE6C0"></path>
                <path d="M172.625,554.4875 C172.625,586.710726 224.000325,612.832813 287.375,612.832813 C350.749675,612.832813 402.125,586.710726 402.125,554.4875 C402.125,522.264274 350.749675,496.142188 287.375,496.142188 C224.000325,496.142188 172.625,522.264274 172.625,554.4875 L172.625,554.4875 Z" id="Path" fill="#FFCC80"></path>
                <path d="M86.5625,671.135937 C86.5625,686.20808 94.7642094,700.135314 108.078125,707.671385 C121.39204,715.207457 137.79546,715.207457 151.109375,707.671385 C164.423291,700.135314 172.625,686.20808 172.625,671.135937 C172.625,656.063795 164.423291,642.136561 151.109375,634.60049 C137.79546,627.064418 121.39204,627.064418 108.078125,634.60049 C94.7642094,642.136561 86.5625,656.063795 86.5625,671.135937 L86.5625,671.135937 Z" id="Path" fill="#FF9900"></path>
                <path d="M316.0625,671.135937 C316.0625,694.43545 348.172078,713.323437 387.78125,713.323437 C427.390422,713.323437 459.5,694.43545 459.5,671.135937 C459.5,647.836425 427.390422,628.948437 387.78125,628.948437 C348.172078,628.948437 316.0625,647.836425 316.0625,671.135937 L316.0625,671.135937 Z" id="Path" fill="#FF9900"></path>
                <path d="M500.50625,345.448438 C505.793159,340.334886 512.92498,337.579417 520.276625,337.809901 C527.628271,338.040385 534.57348,341.237188 539.529688,346.671875 C549.956421,358.055241 549.432884,375.668532 538.348438,386.4125 C446.08327,475.632323 299.694855,475.632323 207.429688,386.4125 C196.345241,375.668532 195.821704,358.055241 206.248438,346.671875 C211.203418,341.25028 218.139659,338.06199 225.480807,337.831586 C232.821954,337.601182 239.944477,340.348234 245.229688,345.448438 C316.41055,414.259632 429.325388,414.259632 500.50625,345.448438 L500.50625,345.448438 Z" id="Path" fill="#FF9900"></path>
                <path d="M560.792187,140.923437 L565.98125,140.923437 C577.058361,141.034762 587.637494,145.542184 595.391073,153.453999 C603.144651,161.365813 607.437455,172.033838 607.325,183.110937 L607.325,239.389062 C607.325,262.676562 588.846875,281.576562 565.98125,281.576562 L560.792187,281.576562 C549.715076,281.465238 539.135943,276.957816 531.382365,269.046001 C523.628786,261.134187 519.335982,250.466162 519.448437,239.389062 L519.448437,183.110937 C519.448437,159.823437 537.96875,140.923437 560.792187,140.923437 Z M179.796875,140.923437 L184.985937,140.923437 C196.063049,141.034762 206.642182,145.542184 214.39576,153.453999 C222.149339,161.365813 226.442143,172.033838 226.329687,183.110937 L226.329687,239.389062 C226.329687,262.676562 207.809375,281.576562 184.985937,281.576562 L179.796875,281.576562 C168.719764,281.465238 158.140631,276.957816 150.387052,269.046001 C142.633474,261.134187 138.34067,250.466162 138.453125,239.389062 L138.453125,183.110937 C138.453125,159.823437 156.93125,140.923437 179.796875,140.923437 Z" id="Shape" fill="#FF9900"></path>
            </g>
        </g>
    </g>
</svg>