<?xml version="1.0" encoding="UTF-8"?>
<svg width="719px" height="815px" viewBox="0 0 719 815" version="1.1" xmlns="http://www.w3.org/2000/svg" xmlns:xlink="http://www.w3.org/1999/xlink">
    <!-- Generator: Sketch 61.2 (89653) - https://sketch.com -->
    <title>bili-icon_dingdao_tougaoguanli</title>
    <desc>Created with Sketch.</desc>
    <g id="icons" stroke="none" stroke-width="1" fill="none" fill-rule="evenodd">
        <g id="Artboard" transform="translate(-8004.000000, 0.000000)" fill="#6A6A6A" fill-rule="nonzero">
            <g id="bili-icon_dingdao_tougaoguanli" transform="translate(8004.500000, 0.000000)">
                <path d="M580.517818,499.498909 L580.517818,248.572364 C580.517818,235.719192 590.937373,225.299637 603.790546,225.299637 C616.643718,225.299637 627.063273,235.719192 627.063273,248.572364 L627.063273,502.012364 C627.063273,502.803637 627.063273,503.594909 626.923636,504.386182 C638.699636,509.506182 648.753454,518.303273 655.316364,529.846545 L710.565818,627.405818 C720.898909,645.698182 720.898909,668.086545 710.565818,686.378909 L655.269818,783.938182 C644.640751,802.695912 624.74536,814.285818 603.185455,814.285818 L493.803636,814.285818 C472.299636,814.285818 452.378181,802.696 441.765818,783.938182 L386.469818,686.378909 C376.114369,668.084995 376.114369,645.699732 386.469818,627.405818 L441.765818,529.846545 C452.394885,511.088814 472.290277,499.496504 493.850182,499.498909 L580.517818,499.498909 L580.517818,499.498909 Z M386.516364,385.788364 L273.876364,316.714909 C270.478546,314.666909 266.242909,316.947636 266.242909,320.298909 L266.242909,458.445818 C266.242909,461.750545 270.478545,464.077818 273.876364,462.029818 L386.516364,392.956364 C387.820186,392.234981 388.629397,390.862446 388.629397,389.372364 C388.629397,387.882282 387.820186,386.509747 386.516364,385.788364 Z M298.219636,501.686545 C264.055272,522.632 219.697455,498.474909 219.697455,458.399273 L219.697455,320.345455 C219.697455,280.316364 264.055273,256.159273 298.219636,277.058182 L410.859636,346.131636 C425.983847,355.314516 435.218607,371.725209 435.218607,389.418909 C435.218607,407.112609 425.983847,423.523302 410.859636,432.706182 L298.219636,501.733091 L298.219636,501.686545 Z M670.071273,650.352727 L614.775273,552.793455 C612.410255,548.619829 607.982585,546.041467 603.185455,546.044362 L493.803636,546.044362 C489.023158,546.058203 484.617163,548.63429 482.260364,552.793455 L426.964364,650.352727 C424.674943,654.411926 424.674943,659.372801 426.964364,663.432 L482.260364,760.991273 C484.587637,765.180364 489.056,767.740364 493.850182,767.740364 L603.232,767.740364 C608.012478,767.726525 612.418474,765.150439 614.775273,760.991273 L670.071273,663.432 C672.360694,659.372801 672.360694,654.411926 670.071273,650.352727 L670.071273,650.352727 Z M316,704.019636 C328.853172,704.019636 339.272727,714.439191 339.272727,727.292363 C339.272727,740.145536 328.853172,750.565091 316,750.565091 L78.711273,750.565091 C57.7376224,750.429739 37.6768162,741.967954 22.9422268,727.041326 C8.20763735,712.114699 0.0063137006,691.946009 0.140874554,670.972364 L0.140874554,79.612364 C0.140874554,35.766546 35.237818,0.019636 78.711273,0.019636 L382.699636,0.019636 C395.552808,0.019636 405.972363,10.439191 405.972363,23.2923635 C405.972363,36.145536 395.552808,46.565091 382.699636,46.565091 L78.711273,46.565091 C60.7526162,46.8711278 46.4288028,61.6529701 46.688,79.612364 L46.688,670.972364 C46.4288034,688.931758 60.7526166,703.713599 78.711273,704.019636 L316,704.019636 Z M405.972364,80.217455 L405.972364,192.252364 C405.713167,210.211757 420.03698,224.993599 437.995636,225.299636 L548.308364,225.299636 L405.972364,80.217455 Z M620.407273,232.281455 C626.966267,238.972967 628.872625,248.945356 625.24426,257.584321 C621.615894,266.223285 613.160536,271.845091 603.790545,271.845091 L437.995636,271.845091 C417.021986,271.709739 396.96118,263.247954 382.22659,248.321326 C367.492001,233.394698 359.290678,213.226009 359.425239,192.252364 L359.425239,23.292364 C359.428286,13.8385306 365.148464,5.32491126 373.900544,1.75054956 C382.652625,-1.82381214 392.697304,0.251417429 399.316364,7.001455 L620.407273,232.281455 L620.407273,232.281455 Z M548.541091,699.132364 C525.423238,698.902098 506.862442,679.987167 507.069091,656.869091 C506.888142,633.787099 525.413261,614.908129 548.494545,614.652364 C571.594073,614.882663 590.147365,633.769122 589.966545,656.869091 C590.173303,679.969185 571.640695,698.876611 548.541091,699.132364 L548.541091,699.132364 Z" id="Shape"></path>
            </g>
        </g>
    </g>
</svg>