<?xml version="1.0" encoding="UTF-8"?>
<svg width="770px" height="797px" viewBox="0 0 770 797" version="1.1" xmlns="http://www.w3.org/2000/svg" xmlns:xlink="http://www.w3.org/1999/xlink">
    <!-- Generator: Sketch 61.2 (89653) - https://sketch.com -->
    <title>bili-_technology</title>
    <desc>Created with Sketch.</desc>
    <g id="icons" stroke="none" stroke-width="1" fill="none" fill-rule="evenodd">
        <g id="Artboard" transform="translate(-7979.000000, -9066.000000)" fill-rule="nonzero">
            <g id="bili-_technology" transform="translate(7979.000000, 9066.000000)">
                <polygon id="Path" fill="#FFCC80" points="385.208 587.264 271.032 587.264 220.344 796.672 549.816 796.672 499.128 587.264"></polygon>
                <path d="M410.552,54.528 L410.552,26.368 C410.552,12.2295104 399.09049,0.768 384.952,0.768 C370.81351,0.768 359.352,12.2295104 359.352,26.368 L359.352,54.528 C220.665248,68.3065819 114.858325,184.727366 114.36,324.096 L114.36,421.376 C113.988144,428.612622 116.70052,435.667849 121.824335,440.791665 C126.948151,445.91548 134.003378,448.627856 141.24,448.256 L629.176,448.256 C636.193248,448.264777 642.906467,445.392652 647.745952,440.311192 C652.585437,435.229733 655.126868,428.384476 654.776,421.376 L654.776,324.096 C654.436173,184.947298 548.991751,68.5605308 410.552,54.528 L410.552,54.528 Z" id="Path" fill="#FFB340"></path>
                <path d="M103.864,368.64 L666.296,368.64 C735.074667,368.64 769.464,403.029333 769.464,471.808 L769.464,487.168 C769.464,555.946667 735.074667,590.336 666.296,590.336 L103.864,590.336 C35.0853333,590.336 0.696,555.946667 0.696,487.168 L0.696,471.808 C0.696,403.029333 35.0853333,368.64 103.864,368.64 Z" id="Path" fill="#FF9900"></path>
                <path d="M617.4,441.6 C602.179277,441.6 588.457284,450.768742 582.632565,464.830857 C576.807847,478.892972 580.027481,495.079166 590.790158,505.841842 C601.552834,516.604519 617.739028,519.824153 631.801143,513.999435 C645.863258,508.174716 655.032,494.452723 655.032,479.232 C655.100742,469.230458 651.158031,459.618619 644.085706,452.546294 C637.013381,445.473969 627.401542,441.531258 617.4,441.6 Z M151.736,441.6 C130.95242,441.6 114.104,458.44842 114.104,479.232 C114.104,500.01558 130.95242,516.864 151.736,516.864 C172.51958,516.864 189.368,500.01558 189.368,479.232 C189.368,469.251373 185.403211,459.679527 178.345842,452.622158 C171.288473,445.564789 161.716627,441.6 151.736,441.6 Z" id="Shape" fill="#FFCC80"></path>
            </g>
        </g>
    </g>
</svg>