<?xml version="1.0" encoding="UTF-8"?>
<svg width="896px" height="768px" viewBox="0 0 896 768" version="1.1" xmlns="http://www.w3.org/2000/svg" xmlns:xlink="http://www.w3.org/1999/xlink">
    <!-- Generator: Sketch 61.2 (89653) - https://sketch.com -->
    <title>bili-TV</title>
    <desc>Created with Sketch.</desc>
    <g id="icons" stroke="none" stroke-width="1" fill="none" fill-rule="evenodd">
        <g id="Artboard" transform="translate(-61.000000, -7148.000000)" fill="#FFFFFF" fill-rule="nonzero">
            <g id="bili-TV" transform="translate(61.000000, 7148.000000)">
                <path d="M672,704 C689.673112,704 704,718.326888 704,736 C704,753.673112 689.673112,768 672,768 L224,768 C206.326888,768 192,753.673112 192,736 C192,718.326888 206.326888,704 224,704 L672,704 Z M768,0 C838.692448,0 896,57.307552 896,128 L896,512 C896,582.692448 838.692448,640 768,640 L128,640 C57.307552,640 0,582.692448 0,512 L0,128 C0,57.307552 57.307552,0 128,0 L768,0 Z M768,64 L128,64 C95.5536109,64 68.2442273,88.2884552 64.448,120.512 L64,128 L64,512 C64,544.446389 88.2884552,571.755773 120.512,575.552 L128,576 L768,576 C800.446389,576 827.755773,551.711545 831.552,519.488 L832,512 L832,128 C832,92.653776 803.346224,64 768,64 Z M512,160 L608,400 L704,160 L768,160 L640,480 L576,480 L473.6,224 L320,224 L320,480 L256,480 L256,224 L128,224 L128,160 L512,160 Z" id="Shape"></path>
            </g>
        </g>
    </g>
</svg>