<?xml version="1.0" encoding="UTF-8"?>
<svg width="743px" height="808px" viewBox="0 0 743 808" version="1.1" xmlns="http://www.w3.org/2000/svg" xmlns:xlink="http://www.w3.org/1999/xlink">
    <!-- Generator: Sketch 61.2 (89653) - https://sketch.com -->
    <title>bili-anime</title>
    <desc>Created with Sketch.</desc>
    <g id="icons" stroke="none" stroke-width="1" fill="none" fill-rule="evenodd">
        <g id="Artboard" transform="translate(-5778.000000, -9000.000000)" fill-rule="nonzero">
            <g id="bili-anime" transform="translate(5778.500000, 9000.000000)">
                <path d="M447.8,263.68 L435.768,256.256 L586.04,49.664 C596.078328,35.5255104 592.75449,15.9263276 578.616,5.888 C564.47751,-4.15032761 544.878328,-0.826489596 534.84,13.312 L381.24,223.488 L140.6,74.24 C126.037356,65.1206742 106.839326,69.5333557 97.72,84.096 C88.6006742,98.6586443 93.0133557,117.856674 107.576,126.976 L345.4,273.92 L322.616,305.408 C312.577672,319.54649 315.90151,339.145672 330.04,349.184 C344.17849,359.222328 363.777672,355.89849 373.816,341.76 L399.416,306.688 L415.544,316.416 C424.982459,323.077358 437.343548,323.932947 447.609753,318.635473 C457.875959,313.338 464.341221,302.767809 464.381213,291.215467 C464.421205,279.663126 458.029282,269.048425 447.8,263.68 L447.8,263.68 Z" id="Path" fill="#FF9900"></path>
                <path d="M569.4,754.688 C569.4,773.711679 579.54901,791.290283 596.023999,800.802123 C612.498988,810.313962 632.797012,810.313962 649.272001,800.802123 C665.74699,791.290283 675.896,773.711679 675.896,754.688 C675.896,735.664321 665.74699,718.085717 649.272001,708.573877 C632.797012,699.062038 612.498988,699.062038 596.023999,708.573877 C579.54901,718.085717 569.4,735.664321 569.4,754.688 Z" id="Path" fill="#FF9900"></path>
                <path d="M120.12,701.439384 C90.7456805,701.581224 67.0342363,725.483338 67.1279941,754.857847 C67.2223094,784.232355 91.0863018,807.982166 120.460923,807.935386 C149.835545,807.888468 173.624,784.062659 173.624,754.688 C173.624,740.521285 167.978995,726.938507 157.937621,716.945179 C147.896248,706.95185 134.286551,701.371891 120.12,701.439384 L120.12,701.439384 Z" id="Path" fill="#FF9900"></path>
                <path d="M93.24,218.368 L649.528,218.368 C711.48,218.368 742.456,249.344 742.456,311.296 L742.456,672 C742.456,733.952 711.48,764.928 649.528,764.928 L93.24,764.928 C31.288,764.928 0.312,733.952 0.312,672 L0.312,311.296 C0.312,249.344 31.288,218.368 93.24,218.368 Z" id="Path" fill="#FFCC80"></path>
                <path d="M251.192,479.232 C251.192,525.053456 275.637454,567.394229 315.319999,590.304957 C355.002544,613.215686 403.893456,613.215686 443.576001,590.304957 C483.258546,567.394229 507.704,525.053456 507.704,479.232 C507.704,433.410544 483.258546,391.069772 443.576001,368.159044 C403.893456,345.248315 355.002544,345.248315 315.319999,368.159044 C275.637454,391.069772 251.192,433.410544 251.192,479.232 L251.192,479.232 Z" id="Path" fill="#FFFFFF"></path>
                <path d="M335.928,450.56 C335.928,423.68 355.128,412.928 378.168,424.96 L427.832,453.632 C438.337588,457.08502 445.438403,466.893486 445.438403,477.952 C445.438403,489.010514 438.337588,498.81898 427.832,502.272 L378.168,530.944 C355.128,544.512 335.928,533.504 335.928,506.624 L335.928,450.56 Z" id="Path" fill="#FF9900"></path>
            </g>
        </g>
    </g>
</svg>