<?xml version="1.0" encoding="UTF-8"?>
<svg width="806px" height="769px" viewBox="0 0 806 769" version="1.1" xmlns="http://www.w3.org/2000/svg" xmlns:xlink="http://www.w3.org/1999/xlink">
    <!-- Generator: Sketch 61.2 (89653) - https://sketch.com -->
    <title>bili-icon_dingdao_shoucangjia</title>
    <desc>Created with Sketch.</desc>
    <g id="icons" stroke="none" stroke-width="1" fill="none" fill-rule="evenodd">
        <g id="Artboard" transform="translate(-10111.000000, -8728.000000)" fill="#6A6A6A" fill-rule="nonzero">
            <g id="bili-icon_dingdao_shoucangjia" transform="translate(10111.000000, 8728.000000)">
                <path d="M206.465143,687.598857 L361.016,606.776 C387.316869,593.026964 418.683131,593.026964 444.984,606.776 L599.534857,687.598857 L570.058286,516.627429 C565.023906,487.348659 574.768302,457.47223 596.097143,436.792 L720.769143,315.886857 L548.334857,290.945143 C518.941378,286.704673 493.509968,268.28741 480.312,241.683429 L403,85.925714 L325.724571,241.72 C312.526603,268.323981 287.095193,286.741244 257.701714,290.981714 L85.230857,315.923429 L209.902857,436.828571 C231.231698,457.508801 240.976094,487.38523 235.941714,516.664 L206.465143,687.635429 L206.465143,687.598857 Z M394.917714,671.580571 L223.068571,761.473143 C192.087452,777.698607 153.818682,765.830547 137.454857,734.922286 C130.926248,722.564833 128.675667,708.392602 131.054857,694.620571 L163.859429,504.229714 C164.802979,498.73997 162.967977,493.139108 158.958857,489.272 L19.950857,354.433143 C2.58856859,337.630459 -3.68801061,312.406313 3.77505799,289.426281 C11.2381266,266.44625 31.137633,249.723133 55.059429,246.328 L247.205714,218.533714 C252.80347,217.748959 257.657595,214.262194 260.188571,209.208 L346.131429,35.969143 C356.871817,14.3924554 378.897938,0.752464065 403,0.752464065 C427.102062,0.752464065 449.128183,14.3924554 459.868571,35.969143 L545.811429,209.208 C548.342405,214.262194 553.19653,217.748959 558.794286,218.533714 L750.904,246.328 C774.781721,249.790429 794.622394,266.510065 802.08196,289.45541 C809.541526,312.400754 803.325923,337.591325 786.049143,354.433143 L647.041143,489.272 C643.032023,493.139108 641.197021,498.73997 642.140571,504.229714 L674.945143,694.620571 C677.794432,711.20443 673.92796,728.240481 664.198895,741.969578 C654.469829,755.698675 639.677824,764.992395 623.086857,767.8 C609.370002,770.140836 595.26397,767.918301 582.931429,761.473143 L411.082286,671.580571 C406.017663,668.939779 399.982337,668.939779 394.917714,671.580571 L394.917714,671.580571 Z" id="Shape"></path>
            </g>
        </g>
    </g>
</svg>