<?xml version="1.0" encoding="UTF-8"?>
<svg width="899px" height="616px" viewBox="0 0 899 616" version="1.1" xmlns="http://www.w3.org/2000/svg" xmlns:xlink="http://www.w3.org/1999/xlink">
    <!-- Generator: Sketch 61.2 (89653) - https://sketch.com -->
    <title>bili-dance</title>
    <desc>Created with Sketch.</desc>
    <g id="icons" stroke="none" stroke-width="1" fill="none" fill-rule="evenodd">
        <g id="Artboard" transform="translate(-60.000000, -2877.000000)" fill-rule="nonzero">
            <g id="bili-dance" transform="translate(59.500000, 2877.000000)">
                <path d="M894.672,306.792 C824.282351,122.087612 647.150373,0.032745224 449.488,0.032745224 C251.825627,0.032745224 74.6936485,122.087612 4.304,306.792 L450,520.296 L354.768,565.864 C376.841914,597.059195 412.680848,615.60323 450.896,615.60323 C489.111152,615.60323 524.950086,597.059195 547.024,565.864 L450,520.04 L894.672,306.792 Z" id="Path" fill="#FFCC80"></path>
                <path d="M450,520.296 L658.64,420.456 C625.714096,333.974198 542.793653,276.817287 450.256,276.817287 C357.718347,276.817287 274.797904,333.974198 241.872,420.456 L450,520.296 Z" id="Path" fill="#000000"></path>
                <polygon id="Path" fill="#FF9900" points="343.4528 544.5392 884.6368 285.9536 898.6656 315.2656 357.4816 573.8768"></polygon>
                <polygon id="Path" fill="#FF9900" points="604.624 338.792 585.936 323.432 473.296 458.856 513.488 285.8 489.936 280.168 449.744 452.712 409.296 280.168 385.488 285.8 426.192 458.856 313.296 323.432 294.608 338.792 406.224 472.936 14.544 286.056 0.72 315.24 541.904 573.8 555.984 544.36 468.432 502.632 604.624 338.792"></polygon>
            </g>
        </g>
    </g>
</svg>