<?xml version="1.0" encoding="UTF-8"?>
<svg width="813px" height="733px" viewBox="0 0 813 733" version="1.1" xmlns="http://www.w3.org/2000/svg" xmlns:xlink="http://www.w3.org/1999/xlink">
    <!-- Generator: Sketch 61.2 (89653) - https://sketch.com -->
    <title>bili-kichiku</title>
    <desc>Created with Sketch.</desc>
    <g id="icons" stroke="none" stroke-width="1" fill="none" fill-rule="evenodd">
        <g id="Artboard" transform="translate(-4637.000000, -5592.000000)" fill-rule="nonzero">
            <g id="bili-kichiku" transform="translate(4636.500000, 5592.000000)">
                <path d="M812.788793,366.208 C812.723091,301.266657 779.133446,240.960177 723.952,206.72 C725.067412,199.432733 725.666238,192.075727 725.744,184.704 C725.822723,133.830256 700.242541,86.3468304 657.715522,58.4255714 C615.188502,30.5043124 561.44917,25.9102409 514.8,46.208 C486.371447,17.0420216 447.368822,0.593310054 406.64,0.593310054 C365.911178,0.593310054 326.908553,17.0420216 298.48,46.208 C251.83083,25.9102409 198.091498,30.5043124 155.564478,58.4255714 C113.037459,86.3468304 87.4572773,133.830256 87.536,184.704 C87.6137623,192.075727 88.2125884,199.432733 89.328,206.72 C36.6655972,239.374387 3.51906136,295.921479 0.754158916,357.824573 C-2.01074353,419.727666 25.9625075,479.004674 75.504,516.224 L75.504,517.76 C75.9432934,596.531877 119.367417,668.774952 188.724857,706.121266 C258.082297,743.46758 342.29851,739.953917 408.304,696.96 C474.277978,740.139096 558.592316,743.749174 628.015662,706.367372 C697.439008,668.985571 740.836651,596.607502 741.104,517.76 L741.104,515.2 C786.737376,479.281161 813.198254,424.280337 812.788793,366.208 Z" id="Path" fill="#FF9900"></path>
                <path d="M574.704,335.744 C534.164217,336.049673 495.214976,319.990033 466.672,291.2 C428.39565,307.913654 384.88435,307.913654 346.608,291.2 C318.279223,320.460313 279.302952,336.992902 238.576,337.024 L227.312,337.024 L227.312,504.192 C227.59311,595.69272 301.69928,669.79889 393.2,670.08 L426.736,670.08 C518.23672,669.79889 592.34289,595.69272 592.624,504.192 L592.624,334.464 C586.685042,335.281672 580.698881,335.709255 574.704,335.744 L574.704,335.744 Z" id="Path" fill="#FFFFFF"></path>
                <path d="M370.928,507.264 C370.928,525.785421 385.942579,540.8 404.464,540.8 C422.985421,540.8 438,525.785421 438,507.264 C438,488.742579 422.985421,473.728 404.464,473.728 C385.942579,473.728 370.928,488.742579 370.928,507.264 L370.928,507.264 Z" id="Path" fill="#FF9900"></path>
                <path d="M529.904,410.496 L508.4,410.496 L508.4,388.992 C508.264237,382.545367 503.070633,377.351763 496.624,377.216 L491.76,377.216 C485.313367,377.351763 480.119763,382.545367 479.984,388.992 L479.984,410.496 L458.736,410.496 C452.330971,410.494486 447.09924,415.612485 446.96,422.016 L446.96,427.136 C447.09924,433.539515 452.330971,438.657514 458.736,438.656 L479.984,438.656 L479.984,460.16 C480.119763,466.606633 485.313367,471.800237 491.76,471.936 L496.624,471.936 C503.070633,471.800237 508.264237,466.606633 508.4,460.16 L508.4,438.656 L529.648,438.656 C536.053029,438.657514 541.28476,433.539515 541.424,427.136 L541.424,422.016 C541.288356,415.71072 536.20928,410.631644 529.904,410.496 L529.904,410.496 Z M349.936,410.496 L329.2,410.496 L329.2,388.992 C329.064237,382.545367 323.870633,377.351763 317.424,377.216 L312.56,377.216 C306.113367,377.351763 300.919763,382.545367 300.784,388.992 L300.784,410.496 L278,410.496 C271.594971,410.494486 266.36324,415.612485 266.224,422.016 L266.224,427.136 C266.36324,433.539515 271.594971,438.657514 278,438.656 L299.248,438.656 L299.248,460.16 C299.383763,466.606633 304.577367,471.800237 311.024,471.936 L315.888,471.936 C319.250242,472.296142 322.608838,471.224839 325.141551,468.984362 C327.674264,466.743885 329.147287,463.541064 329.2,460.16 L329.2,438.656 L350.448,438.656 C353.547405,438.724893 356.543762,437.541664 358.759869,435.373733 C360.975976,433.205802 362.224029,430.23617 362.224029,427.136 L362.224029,422.016 C362.231104,418.822865 360.912547,415.770023 358.58303,413.586101 C356.253514,411.402179 353.122038,410.283116 349.936,410.496 L349.936,410.496 Z" id="Shape" fill="#FF9900"></path>
                <path d="M494.32,507.008 C491.016176,507.007283 487.851244,508.33699 485.539295,510.697105 C483.227345,513.05722 481.96317,516.248893 482.032,519.552 C482.032,553.6 447.216,581.248 405.232,581.248 C363.248,581.248 328.432,553.6 328.432,519.552 C328.432,512.482755 322.701245,506.752 315.632,506.752 C308.562755,506.752 302.832,512.482755 302.832,519.552 C302.832,567.168 348.656,606.08 405.232,606.08 C461.808,606.08 507.632022,567.168 507.632022,519.552 C507.638499,516.087683 506.212008,512.774918 503.690712,510.399082 C501.169415,508.023245 497.777824,506.795892 494.32,507.008 L494.32,507.008 Z" id="Path" fill="#FF9900"></path>
            </g>
        </g>
    </g>
</svg>