<?xml version="1.0" encoding="UTF-8"?>
<svg width="1024px" height="1024px" viewBox="0 0 1024 1024" version="1.1" xmlns="http://www.w3.org/2000/svg" xmlns:xlink="http://www.w3.org/1999/xlink">
    <!-- Generator: Sketch 61.2 (89653) - https://sketch.com -->
    <title>bili-ic_gerenzhongxin_qiyerenzhenghuibiao</title>
    <desc>Created with Sketch.</desc>
    <g id="icons" stroke="none" stroke-width="1" fill="none" fill-rule="evenodd">
        <g id="Artboard" transform="translate(-1709.000000, -13507.000000)" fill-rule="nonzero">
            <g id="bili-ic_gerenzhongxin_qiyerenzhenghuibiao" transform="translate(1709.000000, 13507.000000)">
                <path d="M0,512 C0,794.769792 229.230208,1024 512,1024 C794.769792,1024 1024,794.769792 1024,512 C1024,229.230208 794.769792,0 512,0 C229.230208,0 0,229.230208 0,512 Z" id="Path" fill="#FFFFFF"></path>
                <path d="M93.090909,512 C93.090909,743.357103 280.642897,930.909091 512,930.909091 C743.357103,930.909091 930.909091,743.357103 930.909091,512 C930.909091,280.642897 743.357103,93.090909 512,93.090909 C280.642897,93.090909 93.090909,280.642897 93.090909,512 Z" id="Path" fill="#FF9900"></path>
                <path d="M474.112,763.950545 C469.784745,766.326186 464.98319,767.709416 460.055273,768.001873 C454.467392,768.074519 449.079455,765.922792 445.08014,762.019531 C441.080825,758.116269 438.798776,752.782224 438.737455,747.194182 C438.837264,745.188724 439.245445,743.210612 439.947636,741.329455 L480.442182,553.890909 L312.785455,554.216727 C307.116228,554.391918 301.612729,552.290708 297.502764,548.38187 C293.3928,544.473031 291.018331,539.08179 290.909091,533.410909 C291.04746,526.557248 294.613305,520.229622 300.404364,516.561455 L550.586182,260.794182 C555.194182,258.001455 560.128,256.046546 565.248,255.998671 C576.901011,255.870646 586.459068,265.199644 586.612364,276.852364 C586.5403,280.296915 585.578213,283.664219 583.819636,286.626909 L543.604364,470.946909 L711.447273,470.946909 C717.088218,470.822255 722.545698,472.953735 726.609006,476.868492 C730.672314,480.783249 733.005481,486.157598 733.090909,491.799273 C733.009164,498.693034 729.433127,505.073805 723.595636,508.741818 L474.112,763.950545 L474.112,763.950545 Z" id="Path" fill="#FFFFFF"></path>
            </g>
        </g>
    </g>
</svg>