<?xml version="1.0" encoding="UTF-8"?>
<svg width="896px" height="896px" viewBox="0 0 896 896" version="1.1" xmlns="http://www.w3.org/2000/svg" xmlns:xlink="http://www.w3.org/1999/xlink">
    <!-- Generator: Sketch 61.2 (89653) - https://sketch.com -->
    <title>bili-icon_shipin_yingbishu</title>
    <desc>Created with Sketch.</desc>
    <g id="icons" stroke="none" stroke-width="1" fill="none" fill-rule="evenodd">
        <g id="Artboard" transform="translate(-13159.000000, -11604.000000)" fill="#FFFFFF" fill-rule="nonzero">
            <g id="bili-icon_shipin_yingbishu" transform="translate(13159.000000, 11604.000000)">
                <path d="M448,-2.84217094e-14 C695.423568,-2.84217094e-14 896,200.576432 896,448 C896,695.423568 695.423568,896 448,896 C200.576432,896 -2.84217094e-14,695.423568 -2.84217094e-14,448 C-2.84217094e-14,200.576432 200.576432,-2.84217094e-14 448,-2.84217094e-14 Z M447.999994,64 C310.810012,64 184.041235,137.189984 115.44624,256 C46.8512456,374.810013 46.8512456,521.189987 115.44624,640 C184.041235,758.810016 310.810012,832 447.999994,832 C660.077342,832 831.999994,660.077342 831.999994,448 C831.999994,235.922658 660.077342,64 447.999994,64 L447.999994,64 Z M603.52,182.144 C623.744,182.144 640.128,197.056 640.128,215.424 C640.128,233.856 623.744,248.768 603.52,248.768 L481.28,248.768 L481.28,309.888 C588.480301,315.309296 674.443931,400.500963 680.832,507.648 L681.220388,519.552 L681.220388,564.032 C681.496627,581.459257 668.283719,596.150932 650.924411,597.713774 C633.565104,599.276616 617.940575,587.181147 615.104,569.984 L614.592,564.032 L614.592,519.552 C614.321293,448.275654 561.925401,387.931917 491.392,377.664 L481.28,376.512 L481.28,687.552 C481.560627,704.979257 468.347719,719.670932 450.988411,721.233774 C433.629104,722.796616 418.004575,710.701147 415.168,693.504 L414.656,687.488 L414.656,376.512 C343.534391,381.771889 286.987889,438.318391 281.728,509.44 L281.344,519.552 L281.344,564.032 C281.624627,581.459257 268.411719,596.150932 251.052411,597.713774 C233.693104,599.276616 218.068575,587.181147 215.232,569.984 L214.72,564.032 L214.72,519.552 C215.046443,412.252341 296.007208,322.360256 402.688,310.848 L414.592,309.888 L414.592,248.768 L286.72,248.768 C266.56,248.768 250.24,233.856 250.24,215.488 C250.24,197.056 266.56,182.208 286.72,182.208 L603.52,182.208 L603.52,182.144 Z" id="Shape"></path>
            </g>
        </g>
    </g>
</svg>