<?xml version="1.0" encoding="UTF-8"?>
<svg width="902px" height="916px" viewBox="0 0 902 916" version="1.1" xmlns="http://www.w3.org/2000/svg" xmlns:xlink="http://www.w3.org/1999/xlink">
    <!-- Generator: Sketch 61.2 (89653) - https://sketch.com -->
    <title>bili-food</title>
    <desc>Created with Sketch.</desc>
    <g id="icons" stroke="none" stroke-width="1" fill="none" fill-rule="evenodd">
        <g id="Artboard" transform="translate(-7913.000000, -14030.000000)" fill-rule="nonzero">
            <g id="bili-food" transform="translate(7913.000000, 14030.000000)">
                <path d="M56.781176,503.883294 C56.781176,545.467087 90.4915009,579.177412 132.075294,579.177412 C173.659087,579.177412 207.369412,545.467087 207.369412,503.883294 C207.369412,462.299501 173.659087,428.589176 132.075294,428.589176 C90.4915009,428.589176 56.781176,462.299501 56.781176,503.883294 L56.781176,503.883294 Z" id="Path" fill="#FFB340"></path>
                <path d="M207.369411,411.211294 C207.366312,438.113358 221.716611,462.973217 245.013966,476.425144 C268.31132,489.877071 297.015739,489.877071 320.313093,476.425144 C343.610448,462.973217 357.960747,438.113358 357.957648,411.211294 C357.960747,384.30923 343.610448,359.449371 320.313093,345.997444 C297.015739,332.545517 268.31132,332.545517 245.013966,345.997444 C221.716611,359.449371 207.366312,384.30923 207.369411,411.211294 Z" id="Path" fill="#FFB340"></path>
                <path d="M149.453176,480.722824 C149.453176,522.306617 183.163501,556.016942 224.747294,556.016942 C266.331087,556.016942 300.041412,522.306617 300.041412,480.722824 C300.041412,439.139031 266.331087,405.428706 224.747294,405.428706 C183.163501,405.428706 149.453176,439.139031 149.453176,480.722824 Z" id="Path" fill="#FF9900"></path>
                <path d="M578.042353,532.841412 C578.03832,578.369656 602.325032,620.441214 641.752976,643.206501 C681.18092,665.971787 729.759315,665.971787 769.187259,643.206501 C808.615203,620.441214 832.901915,578.369656 832.897882,532.841412 C832.901915,487.313168 808.615203,445.24161 769.187259,422.476323 C729.759315,399.711037 681.18092,399.711037 641.752976,422.476323 C602.325032,445.24161 578.03832,487.313168 578.042353,532.841412 L578.042353,532.841412 Z" id="Path" fill="#FFB340"></path>
                <path d="M439.049412,457.547294 C439.049412,505.13877 464.439161,549.115108 505.654588,572.910846 C546.870015,596.706584 597.649515,596.706584 638.864942,572.910846 C680.080369,549.115108 705.470118,505.13877 705.470118,457.547294 C705.470118,383.977248 645.829811,324.336941 572.259765,324.336941 C498.689719,324.336941 439.049412,383.977248 439.049412,457.547294 L439.049412,457.547294 Z" id="Path" fill="#FFB340"></path>
                <path d="M462.209882,556.016941 C462.209882,639.184527 529.630532,706.605176 612.798118,706.605176 C695.965703,706.605176 763.386353,639.184527 763.386353,556.016941 C763.386353,472.849355 695.965703,405.428705 612.798118,405.428705 C529.630532,405.428705 462.209882,472.849355 462.209882,556.016941 L462.209882,556.016941 Z" id="Path" fill="#FF9900"></path>
                <path d="M872.291765,474.925176 C888.170893,474.93349 901.039059,487.808399 901.039059,503.687529 L900.993882,505.042824 L900.903529,506.398118 C886.597647,657.317647 770.298353,779.264 620.161882,805.586824 L640.340706,886.332235 C642.070293,893.250975 640.515967,900.580738 636.127179,906.202035 C631.73839,911.823331 625.004591,915.109647 617.872941,915.109647 L283.371294,915.109647 C276.239644,915.109647 269.505845,911.823331 265.117056,906.202035 C260.728268,900.580738 259.173942,893.250975 260.903529,886.332235 L281.082353,805.586824 C132.813176,779.595294 17.552941,660.329412 0.928,512.015059 L0.370824,506.639059 C-0.405599025,498.517282 2.28013522,490.4448 7.76748454,484.406995 C13.2548339,478.36919 21.0346078,474.925176 29.193412,474.925176 L872.276706,474.925176 L872.291765,474.925176 Z" id="Path" fill="#FFE6C0"></path>
                <path d="M382.548706,196.924235 L518.695529,196.924235 C539.958588,196.924235 558.496,211.380706 563.646118,232.011294 L624.378353,474.925176 L276.865882,474.925176 L337.598118,232.026353 C342.753108,211.398107 361.2861,196.924235 382.548706,196.924235 Z" id="Path" fill="#FFCC80"></path>
                <path d="M628.037647,192.903529 C637.479529,162.725647 656.423529,163.493647 662.718118,145.317647 C669.780706,124.867765 672.084706,99.599059 669.645176,69.496471 C686.496,87.43153 695.621647,106.511059 700.591059,131.779765 C705.485177,156.717177 691.465412,175.962353 671.527529,206.260706 C651.604705,236.574118 662.718117,273.874824 671.527529,301.176471 C654.676705,283.256471 611.623529,245.398589 628.052706,192.903529 L628.037647,192.903529 Z M223.361882,154.247529 C234.686117,116.540235 257.424941,117.473882 264.969412,94.765176 C273.462588,69.210352 276.233412,37.632 273.281882,-1.42108547e-14 C293.520941,22.407529 304.483764,46.260706 310.447059,77.854118 C316.32,109.025883 299.499294,133.074824 275.570824,170.962824 C251.627295,208.835765 264.969412,255.442824 275.570824,289.596235 C255.331765,267.173647 203.634824,219.873882 223.361882,154.247529 Z" id="Shape" fill="#FFB340"></path>
                <path d="M450.629647,706.605176 C501.810979,706.605176 543.301647,748.095844 543.301647,799.277176 L543.301647,915.109647 L357.957647,915.109647 L357.957647,799.277176 C357.957647,748.095844 399.448315,706.605176 450.629647,706.605176 L450.629647,706.605176 Z" id="Path" fill="#FFCC80"></path>
            </g>
        </g>
    </g>
</svg>