<?xml version="1.0" encoding="UTF-8"?>
<svg width="741px" height="593px" viewBox="0 0 741 593" version="1.1" xmlns="http://www.w3.org/2000/svg" xmlns:xlink="http://www.w3.org/1999/xlink">
    <!-- Generator: Sketch 61.2 (89653) - https://sketch.com -->
    <title>bili-digital</title>
    <desc>Created with Sketch.</desc>
    <g id="icons" stroke="none" stroke-width="1" fill="none" fill-rule="evenodd">
        <g id="Artboard" transform="translate(-3566.000000, -2868.000000)" fill-rule="nonzero">
            <g id="bili-digital" transform="translate(3565.500000, 2868.000000)">
                <path d="M157.496,73.928 L175.16,22.728 C180.927293,9.45700899 193.970469,0.828446347 208.44,0.709885847 L533.816,0.709885847 C548.61753,0.554525295 562.097805,9.20604507 568.12,22.728 L585.528,73.928 L674.104,73.928 C711.816774,75.4530218 741.391198,106.84741 740.664,144.584 L740.664,521.928 C741.234623,560.005295 710.899119,591.371061 672.824,592.072 L68.92,592.072 C50.5429354,591.869831 33.0029918,584.357347 20.1768787,571.194969 C7.35076564,558.03259 0.294618708,540.304143 0.568,521.928 L0.568,144.584 C0.22567956,126.139802 7.24327752,108.318735 20.0695759,95.0600897 C32.8958743,81.8014442 50.4745889,74.1971095 68.92,73.928 L157.496,73.928 Z" id="Path" fill="#FFCC80"></path>
                <path d="M0.567525249,246.728 L740.664,246.728 L740.664,518.088 C741.950121,538.03108 734.605534,557.565433 720.498865,571.721083 C706.392196,585.876734 686.883418,593.288987 666.936,592.072 L69.688,592.072 C51.3117951,592.072126 33.6919451,584.75473 20.7220465,571.736795 C7.75214789,558.71886 0.499939981,541.072079 0.567525249,522.696 L0.567525249,246.728 Z" id="Path" fill="#FF9900"></path>
                <path d="M371,147.4 C480.007755,147.4 568.376,235.768245 568.376,344.776 C568.376,453.783755 480.007755,542.152 371,542.152 C261.992245,542.152 173.624,453.783755 173.624,344.776 C173.765035,235.826717 262.050717,147.541035 371,147.4 Z" id="Path" fill="#FF9900"></path>
                <path d="M371,198.599778 C430.997478,198.496467 485.140014,234.572083 508.147907,289.982777 C531.1558,345.39347 518.490662,409.209288 476.065975,451.633975 C433.641288,494.058662 369.82547,506.7238 314.414777,483.715907 C259.004083,460.708014 222.928467,406.565478 223.031778,346.568 C223.031778,264.84753 289.27953,198.599778 371,198.599778 Z" id="Path" fill="#000000"></path>
                <path d="M371,246.727667 C411.013744,246.624471 447.140293,270.662188 462.500753,307.610351 C477.861212,344.558514 469.423218,387.123048 441.129133,415.417133 C412.835048,443.711218 370.270514,452.149212 333.322351,436.788753 C296.374188,421.428293 272.336471,385.301744 272.439667,345.288 C272.439667,290.854815 316.566815,246.727667 371,246.727667 Z" id="Path" fill="#FF9900"></path>
                <path d="M592.696,147.4 L666.68,147.4 C680.81849,147.4 692.28,158.86151 692.28,173 C692.28,179.789542 689.582865,186.301002 684.781934,191.101934 C679.981002,195.902865 673.469542,198.6 666.68,198.6 L592.696,198.6 C578.55751,198.6 567.096,187.13849 567.096,173 C567.096,158.86151 578.55751,147.4 592.696,147.4 L592.696,147.4 Z" id="Path" fill="#000000"></path>
            </g>
        </g>
    </g>
</svg>