<?xml version="1.0" encoding="UTF-8"?>
<svg width="594px" height="346px" viewBox="0 0 594 346" version="1.1" xmlns="http://www.w3.org/2000/svg" xmlns:xlink="http://www.w3.org/1999/xlink">
    <!-- Generator: Sketch 61.2 (89653) - https://sketch.com -->
    <title>bili-general_pullup_s</title>
    <desc>Created with Sketch.</desc>
    <g id="icons" stroke="none" stroke-width="1" fill="none" fill-rule="evenodd">
        <g id="Artboard" transform="translate(-3639.000000, -1773.000000)" fill="#FFFFFF" fill-rule="nonzero">
            <g id="bili-general_pullup_s" transform="translate(3639.000000, 1773.000000)">
                <path d="M296.936,116.808 L511.912,331.784 C524.041881,343.913882 541.721569,348.65114 558.291295,344.211295 C574.861021,339.77145 587.80345,326.829021 592.243295,310.259295 C596.68314,293.689569 591.945882,276.009881 579.816,263.88 L330.92,14.984 C321.917371,5.97559961 309.703722,0.914247509 296.968,0.914247509 C284.232278,0.914247509 272.018629,5.97559961 263.016,14.984 L14.12,263.88 C1.99011809,276.009881 -2.74714027,293.689569 1.69270436,310.259295 C6.13254898,326.829021 19.0749786,339.771451 35.6447049,344.211296 C52.2144313,348.65114 69.8941188,343.913882 82.024,331.784 L296.936,116.808 Z" id="Path"></path>
            </g>
        </g>
    </g>
</svg>