<?xml version="1.0" encoding="UTF-8"?>
<svg width="1024px" height="1024px" viewBox="0 0 1024 1024" version="1.1" xmlns="http://www.w3.org/2000/svg" xmlns:xlink="http://www.w3.org/1999/xlink">
    <!-- Generator: Sketch 61.2 (89653) - https://sketch.com -->
    <title>bili-icon_foot_kehuduanxiazai</title>
    <desc>Created with Sketch.</desc>
    <g id="icons" stroke="none" stroke-width="1" fill="none" fill-rule="evenodd">
        <g id="Artboard" transform="translate(-3424.000000, -13718.000000)" fill-rule="nonzero">
            <g id="bili-icon_foot_kehuduanxiazai" transform="translate(3424.000000, 13718.000000)">
                <path d="M0,512 C0,794.769792 229.230208,1024 512,1024 C794.769792,1024 1024,794.769792 1024,512 C1024,229.230208 794.769792,0 512,0 C229.230208,0 0,229.230208 0,512 Z" id="Path" fill="#6A6A6A"></path>
                <path d="M600.275862,459.034483 L681.242483,459.034483 C688.382162,459.036007 694.818147,463.337534 697.550177,469.933823 C700.282208,476.530112 698.772444,484.122584 693.72469,489.171862 L530.714483,652.182069 C525.747515,657.152221 519.00895,659.944691 511.982345,659.944691 C504.95574,659.944691 498.217175,657.152221 493.250207,652.182069 L330.257655,489.189517 C325.194969,484.139637 323.678273,476.534662 326.416443,469.92902 C329.154613,463.323379 335.606859,459.021689 342.757517,459.034483 L423.724138,459.034483 L423.724138,326.62069 C423.724138,311.994666 435.580873,300.137931 450.206897,300.137931 L573.793103,300.137931 C588.419127,300.137931 600.275862,311.994666 600.275862,326.62069 L600.275862,459.034483 L600.275862,459.034483 Z M344.275862,688.551724 L679.724138,688.551724 C694.348152,688.554566 706.201751,700.410468 706.201751,715.034483 C706.201751,729.658497 694.348152,741.514399 679.724138,741.517241 L344.275862,741.517241 C329.651848,741.514399 317.798249,729.658497 317.798249,715.034483 C317.798249,700.410468 329.651848,688.554566 344.275862,688.551724 L344.275862,688.551724 Z" id="Shape" fill="#FFFFFF"></path>
            </g>
        </g>
    </g>
</svg>