<?xml version="1.0" encoding="UTF-8"?>
<svg width="769px" height="714px" viewBox="0 0 769 714" version="1.1" xmlns="http://www.w3.org/2000/svg" xmlns:xlink="http://www.w3.org/1999/xlink">
    <!-- Generator: Sketch 61.2 (89653) - https://sketch.com -->
    <title>bili-pindao</title>
    <desc>Created with Sketch.</desc>
    <g id="icons" stroke="none" stroke-width="1" fill="none" fill-rule="evenodd">
        <g id="Artboard" transform="translate(-7979.000000, -4528.000000)" fill="#FFFFFF" fill-rule="nonzero">
            <g id="bili-pindao" transform="translate(7979.500000, 4528.000000)">
                <path d="M182.857143,347.714286 C248.188929,347.709455 308.560055,382.560772 341.227343,439.138953 C373.89463,495.717134 373.89463,565.425723 341.227343,622.003904 C308.560055,678.582085 248.188929,713.433402 182.857143,713.428571 C81.8732126,713.421103 0.0135224679,631.555359 0.0135224679,530.571429 C0.0135224679,429.587498 81.8732126,347.721754 182.857143,347.714286 L182.857143,347.714286 Z M585.142857,347.714286 C650.474643,347.709455 710.845769,382.560772 743.513057,439.138953 C776.180344,495.717134 776.180344,565.425723 743.513057,622.003904 C710.845769,678.582085 650.474643,713.433402 585.142857,713.428571 C484.158927,713.421103 402.299236,631.555359 402.299236,530.571429 C402.299236,429.587498 484.158927,347.721754 585.142857,347.714286 Z M182.857143,420.857143 C143.657509,420.853401 107.433953,441.764007 87.8330555,475.711262 C68.2321582,509.658517 68.2321582,551.48434 87.8330555,585.431595 C107.433953,619.37885 143.657509,640.289456 182.857143,640.285714 C243.446579,640.27993 292.560955,591.160865 292.560955,530.571429 C292.560955,469.981992 243.446579,420.862927 182.857143,420.857143 L182.857143,420.857143 Z M585.142857,420.857143 C545.943223,420.853401 509.719667,441.764007 490.118769,475.711262 C470.517872,509.658517 470.517872,551.48434 490.118769,585.431595 C509.719667,619.37885 545.943223,640.289456 585.142857,640.285714 C645.732293,640.27993 694.846669,591.160865 694.846669,530.571429 C694.846669,469.981992 645.732293,420.862927 585.142857,420.857143 Z M384,0.285714 C449.328566,0.285714 509.69465,35.1380874 542.358933,91.7142847 C575.023217,148.290482 575.023217,217.995232 542.358933,274.571429 C509.69465,331.147627 449.328566,366 384,366 C283.010789,366 201.142857,284.132068 201.142857,183.142857 C201.142857,82.1536455 283.010789,0.285714 384,0.285714 Z M384,73.428571 C323.406473,73.428571 274.285714,122.54933 274.285714,183.142857 C274.285714,243.736384 323.406473,292.857143 384,292.857143 C444.593527,292.857143 493.714286,243.736384 493.714286,183.142857 C493.714286,122.54933 444.593527,73.428571 384,73.428571 Z" id="Shape"></path>
            </g>
        </g>
    </g>
</svg>