<?xml version="1.0" encoding="UTF-8"?>
<svg width="1024px" height="1024px" viewBox="0 0 1024 1024" version="1.1" xmlns="http://www.w3.org/2000/svg" xmlns:xlink="http://www.w3.org/1999/xlink">
    <!-- Generator: Sketch 61.2 (89653) - https://sketch.com -->
    <title>bili-icon_foot_weixin</title>
    <desc>Created with Sketch.</desc>
    <g id="icons" stroke="none" stroke-width="1" fill="none" fill-rule="evenodd">
        <g id="Artboard" transform="translate(-6745.000000, -12110.000000)" fill-rule="nonzero">
            <g id="bili-icon_foot_weixin" transform="translate(6745.000000, 12110.000000)">
                <path d="M0,512 C0,794.769792 229.230208,1024 512,1024 C794.769792,1024 1024,794.769792 1024,512 C1024,229.230208 794.769792,0 512,0 C229.230208,0 0,229.230208 0,512 Z" id="Path" fill="#FF9900"></path>
                <path d="M617.931034,432.445793 C517.102344,432.445793 437.459862,508.468965 437.459862,602.164966 C437.459862,617.754483 439.860965,632.76138 443.992276,647.115034 C437.459862,647.627034 430.839173,647.962482 424.183172,647.962483 C397.682758,647.962483 376.372965,642.48938 349.819586,637.192828 L275.614897,674.798345 L296.836414,610.26869 C243.694345,572.751449 211.897379,524.393931 211.897379,465.496276 C211.897379,363.449379 307.482482,283.118345 424.183172,283.118345 C528.560551,283.118345 620.014344,347.294897 638.393379,433.716966 C631.601811,432.910084 624.770249,432.48569 617.931034,432.445793 L617.931034,432.445793 Z M503.808,374.289655 C487.90069,374.289655 471.940414,384.918069 471.940414,401.054897 C471.940414,417.121104 487.90069,427.890759 503.808,427.890759 C519.803586,427.890759 530.379034,417.121104 530.379034,401.054897 C530.379034,384.918069 519.785931,374.289655 503.808,374.289655 L503.808,374.289655 Z M355.239724,427.908414 C371.129379,427.908414 381.722483,417.138759 381.722483,401.072552 C381.722483,384.918069 371.147035,374.289655 355.239724,374.289655 C339.332413,374.289655 323.266207,384.918069 323.266207,401.054897 C323.266207,417.121104 339.332414,427.890759 355.222069,427.890759 L355.239724,427.908414 Z M811.714207,599.58731 C811.714207,647.962482 779.970207,690.776276 737.350621,723.085241 L753.328552,776.66869 L695.084138,744.465655 C673.862621,749.832827 652.535172,755.23531 631.384276,755.23531 C530.39669,755.23531 450.824828,685.497379 450.824828,599.58731 C450.824828,513.853793 530.379035,443.956966 631.384276,443.956966 C726.775173,443.956966 811.714207,513.853794 811.714207,599.58731 Z M572.839724,572.751448 C588.905931,572.751448 599.428414,562.140689 599.428414,551.300414 C599.428414,540.619035 588.905931,529.849379 572.857379,529.849379 C562.264276,529.849379 551.618207,540.619034 551.618207,551.300414 C551.618207,562.14069 562.281931,572.751448 572.857379,572.751448 L572.839724,572.751448 Z M689.62869,572.751448 C705.518345,572.751448 716.199724,562.140689 716.199724,551.300414 C716.199724,540.619035 705.536,529.849379 689.62869,529.849379 C679.123862,529.849379 668.530759,540.619034 668.530759,551.300414 C668.530759,562.14069 679.123862,572.751448 689.62869,572.751448 Z" id="Shape" fill="#FFFFFF"></path>
            </g>
        </g>
    </g>
</svg>