<?xml version="1.0" encoding="UTF-8"?>
<svg width="732px" height="619px" viewBox="0 0 732 619" version="1.1" xmlns="http://www.w3.org/2000/svg" xmlns:xlink="http://www.w3.org/1999/xlink">
    <!-- Generator: Sketch 61.2 (89653) - https://sketch.com -->
    <title>bili-cinephile</title>
    <desc>Created with Sketch.</desc>
    <g id="icons" stroke="none" stroke-width="1" fill="none" fill-rule="evenodd">
        <g id="Artboard" transform="translate(-1855.000000, -2904.000000)" fill-rule="nonzero">
            <g id="bili-cinephile" transform="translate(1855.500000, 2904.000000)">
                <path d="M79.816,0.728 L650.952,0.728 C704.029333,0.728 730.568,27.2666667 730.568,80.344 L730.568,538.584 C730.568,591.661333 704.029333,618.2 650.952,618.2 L79.816,618.2 C26.7386667,618.2 0.2,591.661333 0.2,538.584 L0.2,80.344 C0.2,27.2666667 26.7386667,0.728 79.816,0.728 Z" id="Path" fill="#FFCC80"></path>
                <path d="M75.976,68.312 L153.032,68.312 L153.032,126.168 L75.976,126.168 L75.976,68.312 Z M243.144,68.312 L320.2,68.312 L320.2,126.168 L243.144,126.168 L243.144,68.312 Z M410.312,68.312 L487.368,68.312 L487.368,126.168 L410.312,126.168 L410.312,68.312 Z M577.48,68.312 L654.536,68.312 L654.536,126.168 L577.48,126.168 L577.48,68.312 Z M75.976,492.76 L153.032,492.76 L153.032,550.616 L75.976,550.616 L75.976,492.76 Z M243.144,492.76 L320.2,492.76 L320.2,550.616 L243.144,550.616 L243.144,492.76 Z M410.312,492.76 L487.368,492.76 L487.368,550.616 L410.312,550.616 L410.312,492.76 Z M0.2,174.296 L730.568,174.296 L730.568,444.376 L0.2,444.376 L0.2,174.296 Z" id="Shape" fill="#FF9900"></path>
                <path d="M397.721316,305.355571 L400.255587,302.821301 C415.82325,287.253638 431.390913,287.253638 446.958576,302.821301 L646.622903,502.485628 C662.190566,518.053291 662.190566,533.620954 646.622903,549.188617 L644.088632,551.722888 C628.520969,567.290551 612.953307,567.290551 597.385644,551.722888 L397.721316,352.05856 C382.153653,336.490897 382.153653,320.923234 397.721316,305.355571 L397.721316,305.355571 Z" id="Path" fill="#FFE6C0"></path>
                <path d="M561.352,217.816 L535.752,217.816 L535.752,193.496 C535.752,186.002601 529.677399,179.928 522.184,179.928 L518.6,179.928 C515.024632,179.928 511.599291,181.364936 509.095316,183.917065 C506.591341,186.469194 505.219243,189.921293 505.288,193.496 L505.288,217.816 L479.688,217.816 C472.194601,217.816 466.12,223.890601 466.12,231.384 L466.12,237.016 C466.12,244.509399 472.194601,250.584 479.688,250.584 L505.288,250.584 L505.288,274.904 C505.219243,278.478707 506.591341,281.930806 509.095316,284.482935 C511.599291,287.035064 515.024632,288.472 518.6,288.472 L524.232,288.472 C531.725399,288.472 537.8,282.397399 537.8,274.904 L537.8,250.584 L563.4,250.584 C566.975368,250.584661 570.400709,249.147064 572.904684,246.594935 C575.408659,244.042806 576.780757,240.590707 576.712,237.016 L576.712,231.384 C576.835663,227.423902 575.188925,223.614519 572.219491,220.991519 C569.250057,218.368519 565.266559,217.204527 561.352,217.816 L561.352,217.816 Z M370.888,217.816 L345.288,217.816 L345.288,193.496 C345.356757,189.921293 343.984659,186.469194 341.480684,183.917065 C338.976709,181.364936 335.551368,179.928 331.976,179.928 L326.344,179.928 C318.850601,179.928 312.776,186.002601 312.776,193.496 L312.776,217.816 L288.2,217.816 C284.624632,217.815339 281.199291,219.252936 278.695316,221.805065 C276.191341,224.357194 274.819243,227.809293 274.888,231.384 L274.888,237.016 C274.819243,240.590707 276.191341,244.042806 278.695316,246.594935 C281.199291,249.147064 284.624632,250.584661 288.2,250.584 L313.8,250.584 L313.8,274.904 C313.8,282.397399 319.874601,288.472 327.368,288.472 L333,288.472 C336.575368,288.472 340.000709,287.035064 342.504684,284.482935 C345.008659,281.930806 346.380757,278.478707 346.312,274.904 L346.312,250.584 L371.912,250.584 C375.487368,250.584661 378.912709,249.147064 381.416684,246.594935 C383.920659,244.042806 385.292757,240.590707 385.224,237.016 L385.224,231.384 C385.307532,227.624383 383.79701,224.004827 381.065751,221.419885 C378.334492,218.834944 374.637331,217.525799 370.888,217.816 L370.888,217.816 Z M346.568,371.16 L328.136,371.16 L328.136,352.728 C328.136,347.072604 323.551396,342.488 317.896,342.488 L313.8,342.488 C308.144604,342.488 303.56,347.072604 303.56,352.728 L303.56,371.16 L285.128,371.16 C279.472604,371.16 274.888,375.744604 274.888,381.4 L274.888,385.752 C274.888,391.407396 279.472604,395.992 285.128,395.992 L303.56,395.992 L303.56,413.4 C303.56,419.055396 308.144604,423.64 313.8,423.64 L318.152,423.64 C323.807396,423.64 328.392,419.055396 328.392,413.4 L328.392,394.968 L346.824,394.968 C352.479396,394.968 357.064,390.383396 357.064,384.728 L357.064,380.376 C356.528569,375.024254 351.944048,370.998821 346.568,371.16 L346.568,371.16 Z" id="Shape" fill="#FFE6C0"></path>
            </g>
        </g>
    </g>
</svg>