<?xml version="1.0" encoding="UTF-8"?>
<svg width="922px" height="697px" viewBox="0 0 922 697" version="1.1" xmlns="http://www.w3.org/2000/svg" xmlns:xlink="http://www.w3.org/1999/xlink">
    <!-- Generator: Sketch 61.2 (89653) - https://sketch.com -->
    <title>bili-tuiguang</title>
    <desc>Created with Sketch.</desc>
    <g id="icons" stroke="none" stroke-width="1" fill="none" fill-rule="evenodd">
        <g id="Artboard" transform="translate(-6796.000000, -4442.000000)" fill-rule="nonzero">
            <g id="bili-tuiguang" transform="translate(6796.000000, 4442.000000)">
                <path d="M273.5568,507.31616 L273.5568,564.14816 C273.5568,594.3408 298.0304,618.81952 328.22816,618.81952 C358.4208,618.81952 382.89952,594.34592 382.89952,564.14816 L382.89952,550.09888 L273.5568,507.31616 Z M460.0272,580.28128 C452.0656,646.0016 396.09376,696.92 328.22816,696.92 C254.89952,696.92 195.45632,637.4768 195.45632,564.14816 L195.45632,476.74976 L78.30048,430.9104 L78.30048,430.97696 C78.30048,452.543812 60.817092,470.0272 39.25024,470.0272 C17.683388,470.0272 0.2,452.543812 0.2,430.97696 L0.2,258.71968 C0.2,237.152828 17.683388,219.66944 39.25024,219.66944 C60.817092,219.66944 78.30048,237.152828 78.30048,258.71968 L78.30048,258.78624 L578.15072,63.192 L578.15072,39.65024 C578.15072,18.0819741 595.635254,0.59744 617.20352,0.59744 C638.771786,0.59744 656.25632,18.0819741 656.25632,39.65024 L656.25632,650.0464 C656.25632,671.614666 638.771786,689.0992 617.20352,689.0992 C595.635254,689.0992 578.15072,671.614666 578.15072,650.0464 L578.15072,626.50464 L460.03232,580.28128 L460.0272,580.28128 Z" id="Shape" fill="#FFCC80"></path>
                <path d="M757.78592,305.73152 L882.74976,305.73152 C904.316612,305.73152 921.8,323.214908 921.8,344.78176 L921.8,344.91488 C921.8,355.271648 917.68579,365.204229 910.36245,372.52757 C903.039109,379.85091 893.106528,383.96512 882.74976,383.96512 L757.78592,383.96512 C747.429152,383.96512 737.496571,379.85091 730.17323,372.52757 C722.84989,365.204229 718.73568,355.271648 718.73568,344.91488 L718.73568,344.78176 C718.73568,323.214908 736.219068,305.73152 757.78592,305.73152 L757.78592,305.73152 Z M754.47328,436.16864 L862.73056,498.78112 C881.378254,509.566242 887.770004,533.415033 877.01536,552.08032 L876.95904,552.18272 C871.782652,561.162924 863.247938,567.716339 853.235756,570.398739 C843.223574,573.08114 832.555681,571.672366 823.58304,566.48288 L715.32576,503.86528 C696.678066,493.080158 690.286316,469.231367 701.04096,450.56608 L701.09728,450.4688 C706.273668,441.488596 714.808382,434.935181 724.820564,432.252781 C734.832746,429.57038 745.500639,430.979154 754.47328,436.16864 Z M715.32576,185.82624 L823.58304,123.21376 C832.556303,118.024699 843.224663,116.616704 853.236919,119.300085 C863.249174,121.983466 871.783509,128.537966 876.95904,137.51904 L877.01024,137.6112 C887.768365,156.277631 881.376201,180.130253 862.72544,190.91552 L754.4784,253.528 C745.505759,258.717486 734.837866,260.12626 724.825684,257.443859 C714.813502,254.761459 706.278788,248.208044 701.1024,239.22784 L701.0512,239.13056 C690.295695,220.466612 696.685044,196.618234 715.33088,185.83136 L715.32576,185.82624 Z" id="Shape" fill="#FF9900"></path>
            </g>
        </g>
    </g>
</svg>