<?xml version="1.0" encoding="UTF-8"?>
<svg width="1024px" height="1024px" viewBox="0 0 1024 1024" version="1.1" xmlns="http://www.w3.org/2000/svg" xmlns:xlink="http://www.w3.org/1999/xlink">
    <!-- Generator: Sketch 61.2 (89653) - https://sketch.com -->
    <title>bili-ic_gerenzhongxin_xiaohuiyuanhuibiao</title>
    <desc>Created with Sketch.</desc>
    <g id="icons" stroke="none" stroke-width="1" fill="none" fill-rule="evenodd">
        <g id="Artboard" transform="translate(-5638.000000, -12202.000000)" fill-rule="nonzero">
            <g id="bili-ic_gerenzhongxin_xiaohuiyuanhuibiao" transform="translate(5638.000000, 12202.000000)">
                <path d="M0,512.465455 C0,794.996364 229.003636,1024 511.534545,1024 C794.018909,1024 1023.02255,794.996364 1023.02255,512.465455 C1023.02255,229.981091 794.018909,0.977455 511.488,0.977455 C228.957091,0.977455 0,229.981091 0,512.512 L0,512.465455 Z" id="Path" fill="#FFFFFF"></path>
                <path d="M93.090909,512 C93.090909,743.357103 280.642897,930.909091 512,930.909091 C743.357103,930.909091 930.909091,743.357103 930.909091,512 C930.909091,280.642897 743.357103,93.090909 512,93.090909 C280.642897,93.090909 93.090909,280.642897 93.090909,512 Z" id="Path" fill="#FF9900"></path>
                <path d="M331.264,618.821818 C329.642606,616.919283 327.743991,615.271724 325.632,613.934545 C324.794182,613.841454 327.261091,615.889454 331.217455,618.821818 L331.264,618.821818 Z M576.558545,600.017455 L579.397818,588.939636 C579.397818,588.939636 575.208727,588.660363 576.605091,586.146909 C577.954909,583.586909 579.397818,572.276364 579.397818,572.276364 L579.397818,538.949818 L576.605091,527.825455 L579.397818,522.24 L576.605091,511.162182 L576.605091,480.628364 L573.765818,469.504 L579.397818,463.965091 L579.397818,366.778182 L576.605091,355.700364 L570.926545,347.322182 L556.823273,333.451636 L542.766545,311.249455 L522.984727,286.254545 L511.720727,275.176727 L506.088727,266.798545 L506.088727,264.005818 L500.456727,258.513455 L497.664,258.513455 L494.824727,255.720727 L489.146182,261.306182 L486.353455,258.513455 L480.721455,255.720727 L477.928727,255.720727 L469.410909,264.052364 L472.203636,269.637818 L472.203636,286.254545 L475.089455,291.84 L475.089455,297.378909 L477.882182,300.171636 L480.674909,311.249455 L483.514182,316.834909 L486.306909,322.373818 L486.306909,330.705455 L483.514182,333.498182 L486.306909,350.114909 L483.514182,361.239273 L483.514182,364.032 L480.721455,452.840727 L480.721455,475.089455 L483.514182,486.167273 L480.721455,491.752727 L480.721455,494.545455 C480.721455,494.545455 480.349091,497.989819 480.721455,502.830545 C481.047273,507.671272 480.721455,511.208727 480.721455,511.208727 L480.721455,519.493818 L477.928727,525.079273 L477.928727,527.872 L480.721455,533.364364 L480.721455,536.157091 C480.721455,536.157091 480.907637,590.056727 477.928727,600.017455 C476.23294,605.637095 474.338907,611.194994 472.250182,616.680727 L472.250182,622.266182 L466.618182,630.551273 L466.618182,636.136727 L463.825455,641.675636 L460.986182,644.468364 C460.986182,644.468364 459.124364,645.213091 458.146909,644.468364 C457.122909,643.723637 455.354182,641.675637 455.354182,641.675636 L336.849455,579.444364 L328.471273,575.022545 C328.471273,575.022545 450.234182,640.186181 446.882909,655.546182 C446.882909,655.546182 437.666909,656.570182 432.779636,652.753455 C427.845818,648.983273 325.632,594.478546 325.632,594.478545 L379.159273,630.551273 L376.366545,630.551273 L322.792727,602.810182 L359.470545,630.551273 C359.470545,630.551273 340.945454,622.08 331.264,617.239273 C342.900364,625.152 367.895273,644.468364 367.895273,644.468364 L365.102545,644.468364 L294.586182,597.271273 L339.735273,630.551273 C339.735273,630.551273 409.088,680.448 410.205091,688.872727 L401.733818,699.997091 L393.309091,699.997091 L390.469818,702.789818 L387.677091,705.536 L390.469818,711.121455 L381.998545,711.121455 L376.413091,708.328727 L379.205818,713.867636 L379.205818,716.660364 L376.413091,719.453091 L373.527273,722.199273 L376.366545,724.992 L384.837818,724.992 L379.205818,730.530909 C379.205818,730.530909 374.225454,735.744 379.205818,738.862545 C384.139636,741.98109 410.205091,766.603636 410.205091,766.603636 L415.837091,769.396364 L446.882909,769.396364 L477.882182,755.525818 L489.146182,755.525818 L497.617455,749.940364 L545.559273,708.328727 L551.191273,694.411636 L559.662545,683.333818 L565.294545,677.748364 L568.087273,669.463273 L576.605091,647.214545 L579.397818,630.551273 L582.190545,625.012364 L579.397818,619.426909 L576.605091,600.017455 L576.558545,600.017455 Z M862.440727,635.857455 C850.664727,589.032728 822.504727,552.86691 777.960727,527.266909 L740.770909,500.456727 L689.989818,443.066182 L687.522909,441.297455 C683.218815,437.282991 677.181383,435.708009 671.464727,437.108364 L673.000727,446.743273 C674.257454,451.723637 677.329454,461.312 682.309818,475.461818 C687.197091,489.611636 691.153454,499.991273 694.132364,506.647273 C697.157819,513.303273 703.069091,523.869091 711.959273,538.437818 C720.849455,553.006545 727.458909,563.060363 731.741091,568.599273 L730.530909,570.135273 L715.589818,572.834909 L638.417455,571.066182 C633.594571,568.618064 628.023865,568.085937 622.824727,569.576727 L623.616,570.181818 C635.091869,575.24462 647.472519,577.936066 660.014545,578.094545 C669.323636,581.538909 678.167272,586.24 686.405818,592.197818 C689.943273,593.128727 691.758545,595.223273 691.805091,598.528 L736.488727,617.285818 C744.587636,622.312727 752.826182,626.594909 761.250909,630.178909 C768.139636,636.788364 774.749091,643.211636 781.079273,649.402182 C789.922909,655.732364 802.257455,661.410909 818.176,666.344727 C834.094545,671.278545 846.429091,669.184 855.272727,660.061091 C860.577225,653.159413 863.131482,644.53465 862.440727,635.857455 L862.440727,635.857455 Z M370.874182,427.985455 C370.874182,427.985455 278.295273,488.35491 257.024,515.118545 C257.024,515.118545 241.058909,503.296 240.733091,482.443636 C240.733091,482.443636 228.026182,479.371636 213.643636,509.672727 C199.261091,539.927272 197.352727,536.855272 197.352727,536.855273 L181.108364,580.421818 C181.108364,580.421818 154.018909,663.691636 213.643636,672.954182 C213.643636,672.954182 245.899636,670.301091 257.024,645.725091 C268.101818,621.195636 273.314909,613.096727 273.314909,613.096727 L273.314909,602.205091 L267.869091,607.650909 L267.869091,596.759273 L273.268364,591.313455 C273.268364,591.313455 264.238546,571.857455 273.268364,564.084364 C282.298182,556.357819 284.113455,553.192728 284.113455,553.192727 L278.714182,547.746909 C278.714182,547.746909 289.885091,530.757818 297.844364,514.699636 C295.330909,519.773091 297.239273,481.512727 370.874182,427.985455 L370.874182,427.985455 Z" id="Shape" fill="#FFFFFF"></path>
            </g>
        </g>
    </g>
</svg>