<?xml version="1.0" encoding="UTF-8"?>
<svg width="901px" height="814px" viewBox="0 0 901 814" version="1.1" xmlns="http://www.w3.org/2000/svg" xmlns:xlink="http://www.w3.org/1999/xlink">
    <!-- Generator: Sketch 61.2 (89653) - https://sketch.com -->
    <title>bili-icon_dingdao_lishijilu</title>
    <desc>Created with Sketch.</desc>
    <defs>
        <filter x="-1.3%" y="-1.5%" width="102.7%" height="103.0%" filterUnits="objectBoundingBox" id="filter-1">
            <feOffset dx="0" dy="2" in="SourceAlpha" result="shadowOffsetOuter1"></feOffset>
            <feGaussianBlur stdDeviation="2" in="shadowOffsetOuter1" result="shadowBlurOuter1"></feGaussianBlur>
            <feColorMatrix values="0 0 0 0 0   0 0 0 0 0   0 0 0 0 0  0 0 0 0.5 0" type="matrix" in="shadowBlurOuter1" result="shadowMatrixOuter1"></feColorMatrix>
            <feMerge>
                <feMergeNode in="shadowMatrixOuter1"></feMergeNode>
                <feMergeNode in="SourceGraphic"></feMergeNode>
            </feMerge>
        </filter>
    </defs>
    <g id="icons" stroke="none" stroke-width="1" fill="none" fill-rule="evenodd">
        <g id="Artboard" transform="translate(-58.000000, -1320.000000)" fill="#6A6A6A" fill-rule="nonzero">
            <g id="bili-icon_dingdao_lishijilu" filter="url(#filter-1)" transform="translate(62.500000, 1322.000000)">
                <path d="M169.195429,329.052571 L218.749714,296.979429 C235.705802,286.001902 258.350472,290.848483 269.327999,307.804571 C280.305527,324.76066 275.458945,347.40533 258.502857,358.382857 L135.878857,437.706286 C118.964214,448.624605 96.4059939,443.818723 85.410286,426.954286 L5.611429,304.622857 C-4.88237475,287.730656 0.0450160254,265.549155 16.7038024,254.68862 C33.3625888,243.828086 55.6464958,248.269446 66.868571,264.686857 L97.954286,312.339429 C114.972757,238.942111 152.236176,171.7894 205.510857,118.510857 C280.89101,42.9585397 383.274661,0.565206415 490,0.71389414 C712.171429,0.71389414 892.285714,180.828572 892.285714,403 C892.285714,625.171428 712.171428,805.285714 490,805.285714 C381.894857,805.285714 280.445714,762.387428 205.547429,687.452571 C168.201703,650.093192 138.54358,605.773743 118.251429,557.002286 C112.913528,544.872365 114.555424,530.803823 122.543115,520.229091 C130.530807,509.654359 143.614288,504.228291 156.7415,506.046111 C169.868713,507.863931 180.98536,516.641166 185.798857,528.988571 C202.3551,568.932106 226.640333,605.210813 257.259429,635.740571 C318.91081,697.579501 402.679166,732.276765 490,732.142857 C671.78058,732.142857 819.142857,584.78058 819.142857,403 C819.142857,221.21942 671.78058,73.857143 490,73.857143 C401.497143,73.857143 318.626286,108.892572 257.259429,170.259429 C213.618596,213.902965 183.106342,268.921323 169.195429,329.052571 Z M672.966857,380.142857 C681.132928,380.182054 688.657777,384.57482 692.706867,391.666443 C696.755957,398.758067 696.714134,407.471161 692.597153,414.523587 C688.480172,421.576013 680.9135,425.89634 672.747429,425.857407 L489.890286,425.125714 C477.309502,425.065326 467.142857,414.8495 467.142857,402.268571 L467.142857,220.142857 C467.142857,207.519205 477.376348,197.285714 490,197.285714 C502.623652,197.285714 512.857143,207.519205 512.857143,220.142857 L512.857143,379.484571 L672.966857,380.142857 L672.966857,380.142857 Z" id="Shape"></path>
            </g>
        </g>
    </g>
</svg>