<?xml version="1.0" encoding="UTF-8"?>
<svg width="892px" height="809px" viewBox="0 0 892 809" version="1.1" xmlns="http://www.w3.org/2000/svg" xmlns:xlink="http://www.w3.org/1999/xlink">
    <!-- Generator: Sketch 61.2 (89653) - https://sketch.com -->
    <title>bili-bilibili-tv</title>
    <desc>Created with Sketch.</desc>
    <g id="icons" stroke="none" stroke-width="1" fill="none" fill-rule="evenodd">
        <g id="Artboard" transform="translate(-11175.000000, -8897.000000)" fill="#FFFFFF" fill-rule="nonzero">
            <g id="bili-bilibili-tv" transform="translate(11175.500000, 8897.000000)">
                <path d="M736.768,136.216 L685.504,136.216 L730.336,91.384 C749.568,72.152 749.568,33.72 730.336,14.52 C711.104,-4.68 672.672,-4.712 653.472,14.52 L525.344,136.248 L371.584,136.248 L243.456,14.52 C224.224,-4.712 185.792,-4.712 166.592,14.52 C147.392,33.752 147.36,72.184 166.592,91.384 L211.424,136.216 L160.16,136.216 C70.464,136.216 0,206.68 0,296.376 L0,642.328 C0,738.424 70.464,808.888 160.16,808.888 L730.304,808.888 C820,808.888 890.464,738.424 890.464,648.728 L890.464,296.376 C896.864,206.68 826.4,136.216 736.704,136.216 L736.768,136.216 Z M781.632439,642.328 C781.691829,657.639707 775.635746,672.341558 764.808652,683.168652 C753.981558,693.995746 739.279707,700.051829 723.968,699.992439 L166.624,699.992439 C151.312293,700.051829 136.610442,693.995746 125.783348,683.168652 C114.956254,672.341558 108.900171,657.639707 108.959561,642.328 L108.959561,302.808 C108.959561,270.776 134.592,245.144 166.624,245.144 L723.968,245.144 C756,245.144 781.632439,270.776 781.632439,302.808 L781.632439,642.328 Z M281.952,360.439561 C266.640293,360.380171 251.938442,366.436254 241.111348,377.263348 C230.284254,388.090442 224.228171,402.792293 224.287561,418.104 L224.287561,475.768 C224.287561,507.8 249.92,533.432 281.952,533.432 C313.984,533.432 339.616439,507.8 339.616439,475.768 L339.616439,418.104 C339.675829,402.792293 333.619746,388.090442 322.792652,377.263348 C311.965558,366.436254 297.263707,360.380171 281.952,360.439561 L281.952,360.439561 Z M615.072,360.439561 C599.760293,360.380171 585.058442,366.436254 574.231348,377.263348 C563.404254,388.090442 557.348171,402.792293 557.407561,418.104 L557.407561,475.768 C557.407561,507.8 583.04,533.432 615.072,533.432 C647.104,533.432 672.736439,507.8 672.736439,475.768 L672.736439,418.104 C672.795829,402.792293 666.739746,388.090442 655.912652,377.263348 C645.085558,366.436254 630.383707,360.380171 615.072,360.439561 L615.072,360.439561 Z" id="Shape"></path>
            </g>
        </g>
    </g>
</svg>