<?xml version="1.0" encoding="UTF-8"?>
<svg width="1016px" height="1016px" viewBox="0 0 1016 1016" version="1.1" xmlns="http://www.w3.org/2000/svg" xmlns:xlink="http://www.w3.org/1999/xlink">
    <!-- Generator: Sketch 61.2 (89653) - https://sketch.com -->
    <title>bili-icon_dingdao_Bbi</title>
    <desc>Created with Sketch.</desc>
    <g id="icons" stroke="none" stroke-width="1" fill="none" fill-rule="evenodd">
        <g id="Artboard" transform="translate(-3428.000000, -11953.000000)" fill="#FF9900" fill-rule="nonzero">
            <g id="bili-icon_dingdao_Bbi" transform="translate(3428.000000, 11953.000000)">
                <path d="M406.2144,441.0816 L543.1232,441.0816 C578.921856,441.0816 607.9424,412.061056 607.9424,376.2624 C607.9424,340.463744 578.921856,311.443052 543.1232,311.443052 L415.1232,311.443052 C412.76516,311.429569 410.499019,312.356757 408.826807,314.019359 C407.154594,315.681961 406.2144,317.94272 406.2144,320.3008 L406.2144,441.0816 L406.2144,441.0816 Z M652.9984,465.5552 C715.66483,504.182208 745.053198,579.730464 724.961764,650.550387 C704.870331,721.37031 640.187513,770.230808 566.5728,770.195219 L415.1232,770.195219 C367.8144,770.195219 329.4656,731.7952 329.4656,684.4864 L329.4656,320.3008 C329.4656,272.992 367.8656,234.6432 415.1232,234.6432 L543.1744,234.6432 C597.805501,234.6432 647.56601,266.062966 671.048235,315.389858 C694.53046,364.71675 687.54644,423.151721 653.1008,465.5552 L652.9984,465.5552 Z M566.624,517.8816 L406.2144,517.8816 L406.2144,684.4864 C406.2144,689.4016 410.208,693.344 415.072,693.344 L566.624,693.344 C614.251084,692.193349 652.26125,653.253781 652.26125,605.6128 C652.26125,557.971819 614.251084,519.032251 566.624,517.8816 L566.624,517.8816 Z M508,1015.7504 C227.5776,1015.7504 0.2496,788.4224 0.2496,508 C0.2496,227.5776 227.5776,0.2496 508,0.2496 C788.4224,0.2496 1015.7504,227.5776 1015.7504,508 C1015.7504,788.4224 788.4224,1015.7504 508,1015.7504 Z M508,938.9504 C661.96375,938.9504 804.232124,856.811721 881.214,723.475202 C958.195875,590.138683 958.195875,425.861317 881.214,292.524798 C804.232124,159.188279 661.96375,77.0496 508,77.0496 C269.992666,77.0496 77.0496,269.992666 77.0496,508 C77.0496,746.007334 269.992666,938.9504 508,938.9504 L508,938.9504 Z" id="Shape"></path>
            </g>
        </g>
    </g>
</svg>