<?xml version="1.0" encoding="UTF-8"?>
<svg width="896px" height="768px" viewBox="0 0 896 768" version="1.1" xmlns="http://www.w3.org/2000/svg" xmlns:xlink="http://www.w3.org/1999/xlink">
    <!-- Generator: Sketch 61.2 (89653) - https://sketch.com -->
    <title>bili-icon_xinxi_UPzhu</title>
    <desc>Created with Sketch.</desc>
    <g id="icons" stroke="none" stroke-width="1" fill="none" fill-rule="evenodd">
        <g id="Artboard" transform="translate(-10066.000000, -7211.000000)" fill="#FFFFFF" fill-rule="nonzero">
            <g id="bili-icon_xinxi_UPzhu" transform="translate(10066.000000, 7211.000000)">
                <path d="M832,608 L832,160 C832,105.6 790.4,64 736,64 L160,64 C105.6,64 64,105.6 64,160 L64,608 C64,662.4 105.6,704 160,704 L736,704 C790.4,704 832,662.4 832,608 Z M736,0 C825.6,0 896,70.4 896,160 L896,608 C896,697.6 825.6,768 736,768 L160,768 C70.4,768 0,697.6 0,608 L0,160 C0,70.4 70.4,0 160,0 L736,0 Z M355.2,416 L355.2,198.4 L416,198.4 L416,438.4 C416,534.4 358.4,582.4 268.8,582.4 C179.2,582.4 128,537.6 128,441.6 L128,198.4 L188.8,198.4 L188.8,416 C188.8,467.2 192,524.8 272,524.8 C352,524.8 355.2,467.2 355.2,416 Z M643.2,377.6 C672,377.6 704,361.6 704,316.8 C704,268.8 675.2,256 643.2,256 L550.4,256 L550.4,377.6 L643.2,377.6 L643.2,377.6 Z M646.4,198.4 C748.8,198.4 768,268.8 768,313.6 C768,361.6 748.8,428.8 646.4,428.8 L550.4,428.8 L550.4,576 L489.6,576 L489.6,198.4 L646.4,198.4 Z" id="Shape"></path>
            </g>
        </g>
    </g>
</svg>