<?xml version="1.0" encoding="UTF-8"?>
<svg width="896px" height="834px" viewBox="0 0 896 834" version="1.1" xmlns="http://www.w3.org/2000/svg" xmlns:xlink="http://www.w3.org/1999/xlink">
    <!-- Generator: Sketch 61.2 (89653) - https://sketch.com -->
    <title>bili-icon_shipin_dianzanshu</title>
    <desc>Created with Sketch.</desc>
    <g id="icons" stroke="none" stroke-width="1" fill="none" fill-rule="evenodd">
        <g id="Artboard" transform="translate(-1773.000000, -11924.000000)" fill="#6A6A6A" fill-rule="nonzero">
            <g id="bili-icon_shipin_dianzanshu" transform="translate(1773.000000, 11924.000000)">
                <path d="M273.088,290.52 L273.088,769.496 L633.792,769.496 C677.568,767.576 711.552,740.888 722.432,699.608 L830.784,355.288 C833.408,345.24 831.616,333.016 828.608,329.048 C822.848,321.688 812.8,317.528 797.12,317.528 L455.36,317.528 C486.656,240.856 499.136,173.208 492.8,114.648 C484.672,52.632 449.984,49.944 437.376,76.44 C417.856,129.496 400.064,160.088 377.472,189.528 C355.2,218.648 320.512,251.928 273.088,290.52 Z M204.8,317.592 L128,317.592 C73.6,318.68 64,352.792 64,371.48 L64,718.808 C64,725.336 66.944,734.936 72.704,746.2 C81.408,761.496 99.264,771.032 122.88,769.432 L204.8,769.432 L204.8,317.592 Z M273.088,833.432 L273.088,833.752 L204.8,833.752 L204.8,833.432 L122.88,833.432 C79.8438791,836.754933 38.7142758,815.107773 17.088,777.752 C6.848,758.104 2.84217094e-14,738.456 2.84217094e-14,718.872 L2.84217094e-14,371.416 C2.84217094e-14,328.856 23.872,289.496 61.44,269.912 C81.92,260.056 102.4,256.792 122.88,253.528 L216.768,253.528 C269.056,212.184 305.728,177.88 326.72,150.488 C347.712,123.096 365.312,90.136 385.472,30.68 C405.568,-21.16 499.84,1.688 527.936,40.664 C548.416,60.312 559.744,120.216 559.744,168.536 C559.744,200.728 554.624,229.08 544.512,253.528 L797.12,253.528 C827.84,253.528 858.56,263.32 879.04,289.56 C896.128,312.472 899.52,345.24 892.672,371.48 L783.488,718.744 C766.4,784.28 708.352,830.168 636.672,833.368 L273.088,833.368 L273.088,833.432 Z" id="Shape"></path>
            </g>
        </g>
    </g>
</svg>