<?xml version="1.0" encoding="UTF-8"?>
<svg width="840px" height="549px" viewBox="0 0 840 549" version="1.1" xmlns="http://www.w3.org/2000/svg" xmlns:xlink="http://www.w3.org/1999/xlink">
    <!-- Generator: Sketch 61.2 (89653) - https://sketch.com -->
    <title>bili-documentary</title>
    <desc>Created with Sketch.</desc>
    <g id="icons" stroke="none" stroke-width="1" fill="none" fill-rule="evenodd">
        <g id="Artboard" transform="translate(-4623.000000, -2849.000000)" fill-rule="nonzero">
            <g id="bili-documentary" transform="translate(4623.000000, 2849.000000)">
                <path d="M320.9,146.765 C250.0025,144.2 177.5525,158.825 124.25,184.9475 C75.4025,208.91 6.62,274.4075 2.3225,320.51 L737.645,320.51 C734.4275,320.51 725.63,311.0825 722.9075,308.99 C717.89,305.165 713.165,301.1825 708.1475,297.4475 C696.245,288.5375 683.4875,280.55 671,272.4725 C645.978683,256.178474 620.26737,240.969388 593.9375,226.8875 C541.4675,198.9425 486.0725,176.0825 428.2475,161.885 C393.070713,153.215734 357.102836,148.149623 320.9,146.765" id="Path" fill="#FFCC80"></path>
                <path d="M660.605,249.1625 C647.8925,281.4725 523.895,285.9275 479.21,285.9275 L53.8025,285.9275 C38.57,285.9275 24.035,291.125 14.045,300.1925 C4.145,309.17 -0.0625,320.96 2.345,332.5475 C2.345,332.66 2.345,332.8175 2.435,332.885 C11.7275,376.5575 38.165,416.225 78.8,447.5675 C80.42,448.8275 82.0625,450.0875 83.7275,451.3025 C190.4675,529.76 376.25,532.46 507.1775,495.1775 C548.6225,483.3875 588.0425,467.0075 622.355,445.5425 C661.3475,421.1525 701.15,388.235 724.6625,353.81 C728.1275,348.7475 765.8825,292.6325 766.625,292.925 L660.605,249.1625 Z" id="Path" fill="#FFCC80"></path>
                <path d="M834.0575,265.3175 L804.1775,248.24 C782.597013,235.984206 756.354517,235.18413 734.0675,246.1025 C732.12542,221.364576 718.13221,199.16729 696.65,186.7475 L666.725,169.67 C664.083049,168.153197 660.945642,167.751507 658.006773,168.553784 C655.067904,169.356062 652.569785,171.296185 651.065,173.945 L643.235,187.6475 C627.056101,215.961895 636.88661,252.030597 665.195,268.22 L680.99,277.265 C680.99,277.289853 680.969853,277.31 680.945,277.31 L732.425,306.74 L732.47,306.695 L749.93,316.685 C778.240195,332.854314 814.297142,323.037078 830.5025,294.7475 L838.3325,281.0225 C841.469153,275.502681 839.559146,268.485919 834.0575,265.3175" id="Path" fill="#FF9900"></path>
                <path d="M182.3,324.425 L1.7825,324.425 C1.61605241,327.260463 1.82791428,330.105465 2.4125,332.885 C11.705,376.5575 38.1425,416.225 78.7775,447.5675 C80.3975,448.85 82.04,450.0875 83.705,451.3025 C190.4225,529.76 376.205,532.4825 507.1325,495.1775 C528.736708,489.022501 549.910377,481.445981 570.515,472.4975 C267.3275,480.8675 182.3,324.425 182.3,324.425 Z" id="Path" fill="#FFE6C0"></path>
                <path d="M570.515,472.4975 C505.355,474.2975 450.365,468.0875 403.9475,458.255 C354.9425,447.8825 377.78,517.565 400.73,515.045 C438.215,510.9725 474.395,504.4475 507.1325,495.1325 C528.742231,489.012844 549.91724,481.450878 570.515,472.4975" id="Path" fill="#FFE6C0"></path>
                <path d="M323.1275,434.9225 C344.705,504.7625 392.8325,552.575 439.9025,548.57 C443.6375,548.2325 446.135,544.4975 445.415,540.83 L420.98,415.2125 C420.368281,412.13054 417.383299,410.120451 414.2975,410.7125 L327.5825,427.61 C325.981271,427.917876 324.584447,428.887476 323.7361,430.279966 C322.887752,431.672456 322.666738,433.358396 323.1275,434.9225" id="Path" fill="#FFCC80"></path>
                <path d="M357.237502,374.7125 C357.243713,390.897895 344.127895,404.023787 327.9425,404.030002 C311.757105,404.036213 298.631213,390.920395 298.624998,374.735 C298.618787,358.549605 311.734605,345.423713 327.92,345.417498 C344.105395,345.411287 357.231287,358.527105 357.237502,374.7125" id="Path" fill="#FF9900"></path>
                <path d="M168.5975,70.4675 C168.696737,35.0267866 197.46165,6.35245615 232.9025,6.36499589 C251.7125,6.36499589 268.6325,14.4875 280.4225,27.4925 C298.224087,7.85533543 326.26717,1.18344711 351.004848,10.6998549 C375.742526,20.2162628 392.083953,43.9625548 392.135015,70.4675 C392.140982,74.8672836 390.395823,79.0885839 387.284704,82.1997036 C384.173584,85.3108233 379.952284,87.055982 375.5525,87.05 C371.148822,87.0619706 366.921731,85.3194561 363.805738,82.2076856 C360.689745,79.095915 358.9415,74.8711906 358.9475,70.4675 C358.711079,53.9132875 345.527828,40.4562848 328.98197,39.8797322 C312.436111,39.3031796 298.348135,51.8098964 296.96,68.3075 L296.78,68.3075 L296.8925,145.775 C296.8925,154.939475 289.463225,162.36875 280.29875,162.36875 C271.134275,162.36875 263.705,154.939475 263.705,145.775 L263.705,70.3775 C263.705,53.345 249.7775,39.44 232.745,39.44 C215.614128,39.4524092 201.729909,53.3366276 201.7175,70.4675 C201.7175,79.6133355 194.303335,87.0275 185.1575,87.0275 C176.011665,87.0275 168.5975,79.6133355 168.5975,70.4675" id="Path" fill="#FFCC80"></path>
                <path d="M280.3325,168.0275 C268.069139,168.002707 258.137375,158.06088 258.125,145.7975 L258.125,70.4 C258.108923,61.3406377 253.260955,52.9780186 245.407279,48.4622605 C237.553603,43.9465024 227.887378,43.9636563 220.049779,48.5072605 C212.212179,53.0508647 207.393923,61.4306377 207.41,70.49 C206.875248,82.3664269 197.09096,91.7200781 185.2025,91.7200781 C173.31404,91.7200781 163.529752,82.3664269 162.995,70.49 C162.995,32.0375 194.36,0.74 232.9025,0.74 C250.545705,0.759802192 267.525889,7.46504516 280.4225,19.505 C293.366074,7.48228417 310.366712,0.781654543 328.0325,0.74 C366.485,0.74 397.7825,32.0375 397.7825,70.49 C397.400714,82.485915 387.565739,92.012859 375.56375,92.012859 C363.561761,92.012859 353.726786,82.485915 353.345,70.49 C353.054297,57.0098549 342.291097,46.1008312 328.816085,45.6287576 C315.341072,45.156684 303.840839,55.2857471 302.6075,68.7125 L302.45,71.0975 L302.54,145.7975 C302.527625,158.06088 292.595861,168.002707 280.3325,168.0275 L280.3325,168.0275 Z M232.79,33.8375 C252.95,33.8375 269.3525,50.24 269.3525,70.4 L269.3525,145.82 C269.090753,149.902329 271.120113,153.791695 274.618315,155.912191 C278.116517,158.032686 282.503483,158.032686 286.001685,155.912191 C289.499887,153.791695 291.529247,149.902329 291.2675,145.82 L291.1775,62.7275 L292.1,62.7275 C295.793321,45.8958222 310.687909,33.8922064 327.92,33.86 C348.125,33.86 364.5725,50.3075 364.5725,70.5125 C364.838193,76.3773457 369.670389,80.9955861 375.54125,80.9955861 C381.412111,80.9955861 386.244307,76.3773457 386.51,70.5125 C386.51,38.2475 360.275,12.0125 328.01,12.0125 C311.5625,12.0125 295.7225,19.0325 284.5625,31.3175 L280.4,35.8625 L276.2375,31.25 C265.152884,19.0061395 249.418536,12.0049266 232.9025,11.9674955 C200.563149,11.9550047 174.319455,38.1282323 174.245,70.4674955 C174.245,76.5191601 179.15084,81.425 185.2025,81.425 C191.25416,81.425 196.16,76.5191601 196.16,70.4674955 C196.184795,50.2475887 212.570089,33.8622945 232.79,33.8375 L232.79,33.8375 Z" id="Shape" fill="#FFCC80"></path>
                <path d="M305.87,381.28251 L239.54,381.28251 C226.197879,381.203194 213.496394,375.549932 204.5075,365.69 L180.7925,339.995 C175.42815,334.127857 167.862106,330.760641 159.9125,330.7025 L7.0475,330.7025 C3.4314156,330.7025 0.5,327.771084 0.5,324.155 C0.5,320.538916 3.4314156,317.6075 7.0475,317.6075 L159.935,317.6075 C171.3875,317.6075 182.5025,322.535 190.4225,331.13 L214.1375,356.8475 C220.7975,364.0475 230.0675,368.1875 239.5625,368.1875 L305.8925,368.1875 C308.231697,368.191519 310.391059,369.443179 311.557177,371.470993 C312.723295,373.498806 312.719006,375.994699 311.545927,378.018493 C310.372848,380.042287 308.209197,381.286519 305.87,381.28251" id="Path" fill="#FF9900"></path>
            </g>
        </g>
    </g>
</svg>