<?xml version="1.0" encoding="UTF-8"?>
<svg width="798px" height="911px" viewBox="0 0 798 911" version="1.1" xmlns="http://www.w3.org/2000/svg" xmlns:xlink="http://www.w3.org/1999/xlink">
    <!-- Generator: Sketch 61.2 (89653) - https://sketch.com -->
    <title>bili-icon_xinxi_huo</title>
    <desc>Created with Sketch.</desc>
    <g id="icons" stroke="none" stroke-width="1" fill="none" fill-rule="evenodd">
        <g id="Artboard" transform="translate(-110.000000, -11803.000000)" fill="#FF9900" fill-rule="nonzero">
            <g id="bili-icon_xinxi_huo" transform="translate(110.000000, 11802.000000)">
                <path d="M225.688,911.104 C164.888,784.256 196.888,711.296 244.888,644.736 C296.088,568.576 308.888,495.616 308.888,495.616 C308.888,495.616 350.488,546.368 334.488,628.864 C404.76,549.44 417.56,422.72 407.96,375.104 C567.832,486.144 638.232,730.304 545.496,907.968 C1038.04,628.864 667.032,213.376 603.096,168.96 C625.432,216.576 628.632,295.808 583.896,333.888 C510.36,54.848 327.96,0.96 327.96,0.96 C350.36,143.68 251.16,299.072 155.288,416.448 C152.088,359.36 148.888,321.28 116.888,264.128 C110.488,368.832 30.488,451.328 8.088,555.968 C-20.648,698.688 30.488,800.192 225.688,911.168 L225.688,911.104 Z" id="Path"></path>
            </g>
        </g>
    </g>
</svg>