<?xml version="1.0" encoding="UTF-8"?>
<svg width="652px" height="746px" viewBox="0 0 652 746" version="1.1" xmlns="http://www.w3.org/2000/svg" xmlns:xlink="http://www.w3.org/1999/xlink">
    <!-- Generator: Sketch 61.2 (89653) - https://sketch.com -->
    <title>bili-icon_dingdao_cheese</title>
    <desc>Created with Sketch.</desc>
    <g id="icons" stroke="none" stroke-width="1" fill="none" fill-rule="evenodd">
        <g id="Artboard" transform="translate(-6931.000000, -5888.000000)" fill="#FFFFFF" fill-rule="nonzero">
            <g id="bili-icon_dingdao_cheese" transform="translate(6931.000000, 5888.000000)">
                <path d="M558.727273,0.636364 C610.139962,0.636364 651.818182,42.3145836 651.818182,93.727273 L651.818182,652.272727 C651.818182,703.685416 610.139962,745.363636 558.727273,745.363636 L93.272727,745.363636 C41.8600376,745.363636 0.181818,703.685416 0.181818,652.272727 L0.181818,93.727273 C0.181818,42.3145836 41.8600376,0.636364 93.272727,0.636364 L558.727273,0.636364 Z M558.727273,47.181818 L535.454545,47.181818 L535.454545,303.181818 C535.47141,312.607686 529.801001,321.112918 521.093564,324.722324 C512.386127,328.33173 502.361388,326.332449 495.704727,319.658909 L419.090909,242.998545 L342.477091,319.658909 C335.82043,326.332449 325.795691,328.33173 317.088254,324.722324 C308.380817,321.112918 302.710408,312.607686 302.727273,303.181818 L302.727273,47.181818 L93.272727,47.181818 C67.5663824,47.181818 46.727273,68.0209284 46.727273,93.727273 L46.727273,582.454545 L535.454545,582.454545 C546.694915,582.450797 556.331643,590.481405 558.354909,601.538182 L558.727273,605.727273 C558.73102,616.967642 550.700413,626.60437 539.643636,628.627636 L535.454545,629 L46.727273,629 L46.727273,652.272727 C46.727273,677.979072 67.5663824,698.818182 93.272727,698.818182 L558.727273,698.818182 C584.433618,698.818182 605.272727,677.979072 605.272727,652.272727 L605.272727,93.727273 C605.272727,68.0209284 584.433618,47.181818 558.727273,47.181818 Z M488.909091,47.181818 L349.272727,47.181818 L349.272727,247.001455 L402.613818,193.613818 C406.97998,189.236604 412.908404,186.77658 419.090909,186.77658 C425.273414,186.77658 431.201838,189.236604 435.568,193.613818 L488.909091,247.001455 L488.909091,47.181818 Z" id="Shape"></path>
            </g>
        </g>
    </g>
</svg>