<?xml version="1.0" encoding="UTF-8"?>
<svg width="740px" height="1024px" viewBox="0 0 740 1024" version="1.1" xmlns="http://www.w3.org/2000/svg" xmlns:xlink="http://www.w3.org/1999/xlink">
    <!-- Generator: Sketch 61.2 (89653) - https://sketch.com -->
    <title>bili-icon_dingdao_xiazaiapp</title>
    <desc>Created with Sketch.</desc>
    <g id="icons" stroke="none" stroke-width="1" fill="none" fill-rule="evenodd">
        <g id="Artboard" transform="translate(-9069.000000, -13135.000000)" fill="#FFFFFF" fill-rule="nonzero">
            <g id="bili-icon_dingdao_xiazaiapp" transform="translate(9069.000000, 13135.000000)">
                <path d="M114,0 L626,0 C656.175743,0 685.115566,11.9872672 706.453038,33.3247396 C727.790511,54.6622121 739.777778,83.6020351 739.777778,113.777778 L739.777778,910.222222 C739.777778,973.059954 688.837732,1024 626,1024 L114,1024 C51.1622683,1024 0.222222,973.059954 0.222222,910.222222 L0.222222,113.777778 C0.222222,50.9400463 51.1622683,0 114,0 Z M57.111111,113.777778 L57.111111,796.444444 L682.888889,796.444444 L682.888889,113.777778 L57.111111,113.777778 Z M284.666667,853.333333 L455.333333,853.333333 L455.333333,910.222222 L284.666667,910.222222 L284.666667,853.333333 Z" id="Shape"></path>
            </g>
        </g>
    </g>
</svg>