<?xml version="1.0" encoding="UTF-8"?>
<svg width="938px" height="841px" viewBox="0 0 938 841" version="1.1" xmlns="http://www.w3.org/2000/svg" xmlns:xlink="http://www.w3.org/1999/xlink">
    <!-- Generator: Sketch 61.2 (89653) - https://sketch.com -->
    <title>bili-ic_partition_Comic</title>
    <desc>Created with Sketch.</desc>
    <g id="icons" stroke="none" stroke-width="1" fill="none" fill-rule="evenodd">
        <g id="Artboard" transform="translate(-40.000000, -10212.000000)" fill-rule="nonzero">
            <g id="bili-ic_partition_Comic" transform="translate(40.000000, 10212.000000)">
                <path d="M694.204444,758.491556 L142.524444,758.491556 C103.940296,758.39788 72.676169,727.15917 72.551111,688.575111 L72.551111,315.896 C72.660554,277.300832 103.929234,246.044862 142.524444,245.951111 L694.204444,245.951111 C732.788503,246.076169 764.027213,277.340296 764.120889,315.924444 L764.120889,688.546667 C764.011597,727.119708 732.777438,758.366575 694.204444,758.491556" id="Path" fill="#FFCC80"></path>
                <path d="M682.314667,256.703111 C704.928,249.364444 720.515556,227.604444 718.382222,203.910222 C717.436177,192.981455 715.241123,182.19706 711.84,171.768 C672.359111,50.139556 482.72,2.722667 288.273778,65.869333 C93.799111,129.016 -31.783111,278.804444 7.697778,400.461333 C11.111111,410.985777 15.690667,420.912889 21.294222,430.271111 C33.525333,450.694222 58.897778,459.142222 81.511111,451.803556 L682.314667,256.703111 Z" id="Path" fill="#FFE6C0"></path>
                <path d="M253.031111,38.676444 L264.266667,73.293333 C269.244445,88.624889 285.884445,97.072889 301.187556,92.095111 C316.519112,87.117333 324.995556,70.505778 320.017778,55.174222 L308.782222,20.585778 C303.73998,5.23157969 287.244691,-3.1685637 271.861333,1.784 C256.501333,6.733333 248.053333,23.373333 253.031111,38.676444" id="Path" fill="#FFB340"></path>
                <path d="M416.16,629.069333 C485.545796,629.07743 544.429632,578.174765 554.456889,509.517333 C555.24239,504.494672 553.804097,499.378746 550.516396,495.501226 C547.228696,491.623706 542.416834,489.368187 537.333333,489.321778 L294.986667,489.321778 C289.903166,489.368187 285.091304,491.623706 281.803604,495.501226 C278.515903,499.378746 277.07761,504.494672 277.863111,509.517333 C287.90179,578.168502 346.778748,629.065223 416.16,629.069333" id="Path" fill="#FF9900"></path>
                <path d="M676.796444,595.903111 L590.951111,555.284444 C590.951111,555.284444 603.239111,611.035555 662.346667,647.956444 C662.261334,648.696 662.062223,649.378666 661.976889,650.146667 C649.262222,744.696 700.177778,829.545778 775.669333,839.700444 C851.160889,849.826666 922.641777,781.389333 935.356444,686.84 C948.042666,592.319111 897.155555,507.440889 821.635556,497.314667 C761.617778,489.236445 704.216889,530.964445 676.796444,595.903111 L676.796444,595.903111 Z" id="Path" fill="#FFB340"></path>
                <path d="M828.064,597.012444 L808.266667,696.169778 C807.654989,699.249593 804.949742,701.466227 801.809778,701.460455 L784.032,701.460455 C782.116239,701.463409 780.293747,700.6337 779.038016,699.186879 C777.782285,697.740059 777.217275,695.818951 777.489778,693.922667 L791.968,594.793778 C792.409206,591.550176 795.179862,589.131928 798.453333,589.133332 L821.607111,589.133332 C825.788444,589.133332 828.888889,592.944889 828.064,597.012444 M805.166222,733.090667 L802.179556,749.389333 C801.615949,752.514381 798.898129,754.789209 795.722667,754.793778 L774.759111,754.793778 C772.830158,754.785212 771.001524,753.933082 769.754294,752.461569 C768.507064,750.990057 767.966121,749.046501 768.273778,747.142222 L770.919111,730.872 C771.433773,727.686029 774.177204,725.339674 777.404444,725.325333 L798.680889,725.325333 C802.805333,725.325333 805.934222,729.051555 805.166222,733.090667" id="Shape" fill="#FFE6C0"></path>
            </g>
        </g>
    </g>
</svg>