<?xml version="1.0" encoding="UTF-8"?>
<svg width="832px" height="833px" viewBox="0 0 832 833" version="1.1" xmlns="http://www.w3.org/2000/svg" xmlns:xlink="http://www.w3.org/1999/xlink">
    <!-- Generator: Sketch 61.2 (89653) - https://sketch.com -->
    <title>bili-icon_shipin_shoucangshu</title>
    <desc>Created with Sketch.</desc>
    <g id="icons" stroke="none" stroke-width="1" fill="none" fill-rule="evenodd">
        <g id="Artboard" transform="translate(-10098.000000, -11735.000000)" fill="#FFFFFF" fill-rule="nonzero">
            <g id="bili-icon_shipin_shoucangshu" transform="translate(10098.000000, 11735.000000)">
                <path d="M626.88,247.04 C590.903168,241.233872 559.58973,219.217717 541.952,187.328 L469.44,35.712 C448.704,-11.904 383.296,-11.904 359.552,35.712 L294.272,178.56 C276.352,214.272 243.712,241.088 205.12,247.04 L50.624,270.848 C3.136,276.8 -17.664,336.32 17.984,372.032 L133.824,491.072 C160.512,517.888 172.416,556.608 166.464,595.264 L139.776,761.92 C130.816,812.544 184.32,848.32 228.864,824.448 L359.552,753.024 C395.357289,732.198252 439.586711,732.198252 475.392,753.024 L606.08,824.448 C650.688,848.256 701.184,812.544 695.232,761.92 L665.536,595.264 C659.188301,557.316201 671.311946,518.615626 698.176,491.072 L814.016,372.032 C849.664,336.32 828.864,276.8 781.376,270.848 L626.88,247.04 Z M652.352,446.464 C611.648,487.232 593.152,546.368 602.304,605.056 L630.784,764.992 L506.112,696.832 C454.601901,667.318811 391.776018,665.398998 338.56,691.712 L204.032,765.056 L229.632,605.376 C238.784,546.304 220.352,487.168 179.072,445.888 L68.992,332.736 L214.848,310.336 C273.856,301.184 324.224,261.824 351.488,207.168 L414.592,69.248 L480.064,206.208 C502.144,259.456 556.416,300.928 617.152,310.272 L762.944,332.8 L652.352,446.464 Z" id="Shape"></path>
            </g>
        </g>
    </g>
</svg>