<?xml version="1.0" encoding="UTF-8"?>
<svg width="1024px" height="1024px" viewBox="0 0 1024 1024" version="1.1" xmlns="http://www.w3.org/2000/svg" xmlns:xlink="http://www.w3.org/1999/xlink">
    <!-- Generator: Sketch 61.2 (89653) - https://sketch.com -->
    <title>bili-icon_weibo</title>
    <desc>Created with Sketch.</desc>
    <g id="icons" stroke="none" stroke-width="1" fill="none" fill-rule="evenodd">
        <g id="Artboard" transform="translate(-4531.000000, -13348.000000)" fill="#FFFFFF" fill-rule="nonzero">
            <g id="bili-icon_weibo" transform="translate(4531.000000, 13348.000000)">
                <path d="M512,1024 C229.229714,1024 0,794.770286 0,512 C0,229.229714 229.229714,0 512,0 C794.770286,0 1024,229.229714 1024,512 C1024,794.770286 794.770286,1024 512,1024 Z M707.035429,427.593143 C717.129143,427.593143 723.821715,420.864 723.821714,404.077714 L723.821714,397.348571 C724.038865,375.003311 715.258158,353.510018 699.456927,337.708787 C683.655696,321.907556 662.162403,313.126849 639.817143,313.344 C629.723429,313.344 619.666286,323.401143 619.666286,333.494857 C619.666286,343.552 629.723429,353.645714 639.817143,353.645714 L649.874286,353.645714 C676.754286,360.374857 690.176,383.890285 686.848,407.405714 C686.884571,417.499428 696.941714,427.593143 707.035429,427.593143 L707.035429,427.593143 Z M626.395429,394.020571 C562.541715,363.776 498.724572,417.536 498.724571,417.536 C498.72457,417.536 515.510857,360.411429 498.724571,340.260571 C468.48,306.651428 414.72,323.437714 397.933714,333.531429 C260.169143,410.806858 179.565714,558.628572 219.867429,656.091429 C260.169143,746.825143 404.662858,793.856 549.12,746.825143 C710.4,693.065143 750.701714,578.816 703.670857,525.056 C687.423247,508.540592 666.142607,497.900271 643.181714,494.811429 C643.181714,494.811429 670.061714,414.171429 626.395429,394.020571 L626.395429,394.020571 Z M811.190857,427.593143 C811.190857,427.593143 811.190857,424.228572 814.555429,424.228571 L814.555429,410.806857 C814.555429,313.380571 733.915429,232.740571 636.489143,232.740571 L633.124571,232.740571 C619.666285,232.740571 606.244571,246.198857 606.244571,259.620571 C606.244571,273.042285 619.666285,286.500571 633.124571,286.500571 L653.312,286.500571 C720.493714,296.594285 767.524571,357.046857 757.467429,424.265143 L757.467429,427.629714 C757.467429,441.088 770.925715,454.509714 784.347429,454.509714 C797.732572,454.473143 811.190858,441.051428 811.190857,427.593143 Z M434.870857,484.717714 C535.661714,481.353143 623.030857,525.019428 626.395429,592.237714 C629.76,659.456 549.12,716.544 448.329143,723.273143 C347.538286,730.002286 260.169143,682.971429 256.804571,615.753143 C253.44,548.571429 334.08,491.446857 434.870857,484.717714 L434.870857,484.717714 Z M448.329143,696.393143 C502.089143,682.971429 535.698286,639.268572 525.604571,592.237714 C515.510857,545.206857 461.750857,521.691428 407.990857,535.113143 C354.230857,548.534858 320.621714,592.237714 330.715429,639.268571 C340.809143,686.299428 394.569143,709.814857 448.329143,696.393143 L448.329143,696.393143 Z M451.693714,592.237714 C458.422857,592.237714 465.115428,598.966857 461.750857,605.696 C461.750857,609.060571 455.021714,615.753143 451.693714,615.753143 C448.329143,615.753143 441.6,612.388572 441.6,605.696 C441.6,598.966857 444.964571,592.237714 451.693714,592.237714 Z M394.569143,602.331429 C411.355429,602.331429 424.813714,615.753143 424.813714,632.576 C424.813714,649.398857 411.392,662.820929 394.569143,662.820929 C386.535849,662.859711 378.820262,659.685809 373.139798,654.005345 C367.459334,648.324881 364.285431,640.609294 364.324213,632.576 C364.324213,615.753143 377.782857,602.331429 394.569143,602.331429 Z" id="Shape"></path>
            </g>
        </g>
    </g>
</svg>