<?xml version="1.0" encoding="UTF-8"?>
<svg width="736px" height="710px" viewBox="0 0 736 710" version="1.1" xmlns="http://www.w3.org/2000/svg" xmlns:xlink="http://www.w3.org/1999/xlink">
    <!-- Generator: Sketch 61.2 (89653) - https://sketch.com -->
    <title>bili-ic_partition_broadca</title>
    <desc>Created with Sketch.</desc>
    <g id="icons" stroke="none" stroke-width="1" fill="none" fill-rule="evenodd">
        <g id="Artboard" transform="translate(-141.000000, -5689.000000)" fill-rule="nonzero">
            <g id="bili-ic_partition_broadca" transform="translate(141.500000, 5689.000000)">
                <path d="M537.6,709.48 L66.56,709.48 C28.16,709.48 0,678.76 0,640.36 L0,358.76 C0,320.36 30.72,289.64 66.56,289.64 L537.6,289.64 C576,289.64 604.16,320.36 604.16,358.76 L604.16,642.92 C604.16,678.76 573.44,709.48 537.6,709.48" id="Path" fill="#FFCC80"></path>
                <path d="M560.768,139.1376 C560.768,215.9376 499.328,277.3776 425.088,277.3776 C350.848,277.3776 291.968,215.9376 291.968,139.1376 C291.968,62.3376 353.408,0.8976 427.648,0.8976 C501.888,0.8976 560.768,64.8976 560.768,139.1376" id="Path" fill="#FFCC80"></path>
                <path d="M256,189.8 C256,238.44 217.6,279.4 168.96,279.4 C120.32,279.4 81.92,241 81.92,189.8 C81.92,138.6 120.32,100.2 168.96,100.2 C217.6,100.2 256,141.16 256,189.8" id="Path" fill="#FF9900"></path>
                <path d="M286.72,415.08 L401.92,484.2 C417.28,494.44 417.28,514.92 401.92,525.16 L286.72,594.28 C271.36,604.52 250.88,591.72 250.88,573.8 L250.88,435.56 C253.44,417.64 271.36,407.4 286.72,415.08" id="Path" fill="#FFB340"></path>
                <path d="M662.912,368.5904 L493.952,468.4304 C463.232,486.3504 463.232,534.9904 493.952,552.9104 L662.912,652.7504 C693.632,670.6704 734.592,647.6304 734.592,609.2304 L734.592,412.1104 C734.592,373.7104 696.192,350.6704 662.912,368.5904" id="Path" fill="#FFCC80"></path>
            </g>
        </g>
    </g>
</svg>