<?xml version="1.0" encoding="UTF-8"?>
<svg width="846px" height="807px" viewBox="0 0 846 807" version="1.1" xmlns="http://www.w3.org/2000/svg" xmlns:xlink="http://www.w3.org/1999/xlink">
    <!-- Generator: Sketch 61.2 (89653) - https://sketch.com -->
    <title>bili-icon_dingdao_tougaoguanli1</title>
    <desc>Created with Sketch.</desc>
    <g id="icons" stroke="none" stroke-width="1" fill="none" fill-rule="evenodd">
        <g id="Artboard" transform="translate(-4620.000000, 0.000000)" fill="#6A6A6A" fill-rule="nonzero">
            <g id="bili-icon_dingdao_tougaoguanli1" transform="translate(4620.000000, 0.000000)">
                <path d="M658.571429,428.856 L693.606857,428.856 C729.556571,428.856 762.726857,448.019429 780.72,479.141714 L831.773714,567.571429 C849.730285,598.657143 849.730285,637.057143 831.773714,668.142857 L780.72,756.572571 C762.751835,787.694347 729.543188,806.858287 693.606857,806.858287 L591.536,806.858287 C555.599669,806.858287 522.391022,787.694347 504.422857,756.572571 L453.369143,668.142857 C435.403788,637.025949 435.403788,598.688337 453.369143,567.571429 L504.422857,479.141714 C521.303253,449.902563 551.728538,431.084215 585.428571,429.038857 L585.428571,256.714286 C585.428571,236.516443 601.802157,220.142857 622,220.142857 C642.197843,220.142857 658.571429,236.516443 658.571429,256.714286 L658.571429,428.856 L658.571429,428.856 Z M402.571429,732.142857 C422.76691,732.146197 439.136811,748.518805 439.136811,768.714286 C439.136811,788.909766 422.76691,805.285748 402.571429,805.285748 L78.658286,805.285748 C57.8856515,805.305121 37.9566339,797.069329 23.2578719,782.391144 C8.55910989,767.712959 0.295407395,747.795498 0.285714,727.022857 L0.285714,78.977143 C0.285714,35.749714 35.394286,0.714286 78.658286,0.714286 L402.571429,0.714286 C422.76691,0.714286 439.136811,17.0902336 439.136811,37.2857145 C439.136811,57.4811954 422.76691,73.8538035 402.571429,73.857143 L78.658286,73.857143 C75.8042856,73.8367615 73.4686965,76.1233519 73.428571,78.977143 L73.428571,727.022857 C73.428571,729.838857 75.732571,732.142857 78.658286,732.142857 L402.571429,732.142857 L402.571429,732.142857 Z M439.142857,125.569143 L439.142857,192.714286 C439.142857,207.854857 451.430857,220.142857 466.571429,220.142857 L533.716571,220.142857 L439.142857,125.569143 L439.142857,125.569143 Z M622,293.285714 L466.571429,293.285714 C411.027363,293.285714 366,248.258352 366,192.714286 L366,37.285714 C366,4.737143 405.387429,-11.610286 428.427429,11.429714 L647.856,230.858286 C670.896,253.898286 654.585143,293.285714 622,293.285714 L622,293.285714 Z M279.142857,472.339429 L394.708571,403 L279.142857,333.660571 L279.142857,472.339429 Z M431.865143,371.950857 C442.773336,378.493384 449.448171,390.280199 449.448171,403 C449.448171,415.719801 442.773336,427.506616 431.865143,434.049143 L288.249143,520.211429 C277.064329,526.916035 263.138143,527.087866 251.791307,520.661272 C240.44447,514.234678 233.428571,502.202677 233.428571,489.162286 L233.428571,316.837714 C233.428571,303.797323 240.44447,291.765322 251.791307,285.338728 C263.138143,278.912134 277.064329,279.083965 288.249143,285.788571 L431.865143,371.950857 L431.865143,371.950857 Z M768.432,604.142857 L717.378286,515.713143 C712.475503,507.221269 703.412425,501.99257 693.606857,501.998851 L591.536,501.998851 C581.730432,501.99257 572.667354,507.221269 567.764571,515.713143 L516.710857,604.142857 C511.811214,612.629287 511.811214,623.084999 516.710857,631.571429 L567.764571,720.001143 C572.667354,728.493017 581.730432,733.721716 591.536,733.715435 L693.606857,733.715435 C703.412425,733.721716 712.475503,728.493017 717.378286,720.001143 L768.432,631.571429 C773.331643,623.084999 773.331643,612.629287 768.432,604.142857 L768.432,604.142857 Z M640.285714,677.285715 C620.685381,677.28836 602.572793,666.833227 592.771862,649.859281 C582.970932,632.885335 582.970932,611.971808 592.771862,594.997862 C602.572793,578.023916 620.685381,567.568783 640.285714,567.571428 C670.579585,567.575519 695.13545,592.1347 695.13545,622.428572 C695.13545,652.722443 670.579585,677.281624 640.285714,677.285715 L640.285714,677.285715 Z" id="Shape"></path>
            </g>
        </g>
    </g>
</svg>