<?xml version="1.0" encoding="UTF-8"?>
<svg width="692px" height="692px" viewBox="0 0 692 692" version="1.1" xmlns="http://www.w3.org/2000/svg" xmlns:xlink="http://www.w3.org/1999/xlink">
    <!-- Generator: Sketch 61.2 (89653) - https://sketch.com -->
    <title>bili-douga</title>
    <desc>Created with Sketch.</desc>
    <g id="icons" stroke="none" stroke-width="1" fill="none" fill-rule="evenodd">
        <g id="Artboard" transform="translate(-8018.000000, -3087.000000)" fill-rule="nonzero">
            <g id="bili-douga" transform="translate(8018.000000, 3087.000000)">
                <path d="M107.408,0.912 L585.104,0.912 C643.472,0.912 691.088,48.528 691.088,106.896 L691.088,584.592 C691.088,642.96 643.472,690.576 585.104,690.576 L107.408,690.576 C49.04,690.576 1.41995228,642.96 1.41995228,584.592 L1.41995228,107.408 C0.912,49.04 49.04,0.912 107.408,0.912 Z" id="Path" fill="#FFCC80"></path>
                <path d="M346,359.312 L346,458.128 C379.28,443.28 418.704,458.64 433.552,491.92 C448.4,525.2 433.04,564.624 399.76,579.472 C382.864,587.152 363.92,587.152 346.512,579.472 L346.512,691.088 L107.408,691.088 C49.04,691.088 1.424,643.472 1.424,585.104 L1.424,346 L138.64,346 C117.136,365.456 114.576,399.248 134.032,420.752 C153.488,442.256 187.28,444.816 208.784,425.36 C230.288,406.416 232.848,372.112 213.392,350.608 L208.784,346 L346,346 L346,305.04 C341.904,305.552 336.784,305.552 332.688,305.04 C281.488,305.04 246.672,257.424 246.672,199.056 C246.672,140.688 267.664,91.024 332.688,91.024 L346,91.024 L346,0.912 L584.592,0.912 C642.96,0.912 690.576,48.528 690.576,106.896 L690.576,358.8 L569.744,358.8 C590.736,335.248 589.2,299.408 566.16,277.904 C542.608,256.912 506.768,258.448 485.264,281.488 C465.296,302.992 465.296,336.784 485.264,358.288 L346,358.288 L346,359.312 Z" id="Path" fill="#FFE6C0"></path>
                <path d="M346,359.312 L346,458.128 L359.312,454.032 C395.152,446.352 432.016,469.904 439.184,506.256 C446.864,542.096 420.752,578.448 384.912,585.104 C380.816,586.128 376.208,586.128 371.6,586.128 C362.384,586.128 355.216,583.056 346.512,579.984 L346.512,691.6 L332.176,691.6 L332.176,558.992 L350.608,567.184 C377.744,578.96 408.976,566.672 420.752,539.536 C432.528,512.4 420.24,481.168 393.104,469.392 C379.792,463.76 364.432,463.76 350.608,469.392 L332.176,477.584 L332.176,359.824 L233.872,359.824 C248.72,393.104 233.36,432.528 200.08,447.376 C166.8,462.224 127.376,446.864 112.528,413.584 C104.848,396.688 104.848,377.744 112.528,360.336 L0.912,360.336 L0.912,346 L138.128,346 C116.624,365.456 114.064,399.248 133.52,420.752 C152.976,442.256 186.768,444.816 208.272,425.36 C229.776,405.904 232.336,372.112 212.88,350.608 L208.272,346 L346,346 L346,306.064 L332.688,306.064 C281.488,306.064 246.672,258.96 246.672,200.08 C246.672,141.2 267.664,90.512 332.688,90.512 L346,90.512 L346,0.912 L359.312,0.912 L359.312,106.896 L332.688,106.896 C283.024,106.896 259.472,140.176 259.472,201.104 C259.472,254.352 290.192,293.776 332.688,293.776 C336.272,294.288 340.368,294.288 343.952,293.776 L359.312,291.728 L359.312,346 L462.224,346 C448.4,310.16 466.32,269.2 502.672,255.376 C538.512,241.552 579.472,259.472 593.296,295.824 C599.44,311.696 599.44,329.616 593.296,346 L691.088,346 L691.088,359.312 L570.256,359.312 C591.248,335.76 589.712,299.92 566.672,278.416 C543.12,257.424 507.28,258.96 485.776,282 C465.808,303.504 465.808,337.296 485.776,358.8 L346,358.8 L346,359.312 Z" id="Path" fill="#FFB340"></path>
                <path d="M278.928,527.248 C255.888,540.56 226.704,532.368 213.904,509.84 C209.808,502.16 207.76,494.48 207.76,485.776 L207.76,226.192 C207.76,199.568 228.752,178.576 255.376,178.576 C264.08,178.576 272.272,180.624 279.952,185.232 L501.648,317.84 C524.688,331.152 531.856,360.336 518.544,382.864 C514.448,389.52 508.304,395.664 501.648,399.76" id="Path" fill="#FF9900"></path>
            </g>
        </g>
    </g>
</svg>