<?xml version="1.0" encoding="UTF-8"?>
<svg width="782px" height="778px" viewBox="0 0 782 778" version="1.1" xmlns="http://www.w3.org/2000/svg" xmlns:xlink="http://www.w3.org/1999/xlink">
    <!-- Generator: Sketch 61.2 (89653) - https://sketch.com -->
    <title>bili-ent</title>
    <desc>Created with Sketch.</desc>
    <g id="icons" stroke="none" stroke-width="1" fill="none" fill-rule="evenodd">
        <g id="Artboard" transform="translate(-9048.000000, -8475.000000)" fill-rule="nonzero">
            <g id="bili-ent" transform="translate(9048.000000, 8475.000000)">
                <path d="M451.646663,296.186042 L482.238931,326.77831 C506.374842,350.914221 506.374842,375.050133 482.238931,399.186044 L121.648413,759.776562 C97.5125017,783.912473 73.3765903,783.912473 49.240679,759.776562 L18.648411,729.184294 C-5.48750033,705.048383 -5.48750033,680.912471 18.648411,656.776559 L379.238929,296.186042 C403.37484,272.050131 427.510752,272.050131 451.646663,296.186042 Z" id="Path" fill="#FFCC80"></path>
                <path d="M250.92,424.744 L388.392,287.272 C403.528911,272.40748 427.783089,272.40748 442.92,287.272 L491.304,335.912 C498.573606,343.122237 502.662656,352.937119 502.662656,363.176 C502.662656,373.414881 498.573606,383.229763 491.304,390.44 L353.32,528.424 L250.92,424.744 Z" id="Path" fill="#FF9900"></path>
                <path d="M179.988557,524.871931 L252.589979,597.448014 C261.159723,606.014767 261.161218,614.583015 252.594465,623.15276 L250.965575,624.782218 C242.398822,633.351962 233.830574,633.353457 225.26083,624.786704 L152.659408,552.210621 C144.089664,543.643868 144.088169,535.07562 152.654922,526.505876 L154.283812,524.876417 C162.850565,516.306673 171.418813,516.305178 179.988557,524.871931 Z" id="Path" fill="#FFE6C0"></path>
                <path d="M618.024,428.584 C627.916611,398.985126 651.145126,375.756611 680.744,365.864 L731.944,352.296 C743.515807,351.455762 753.27324,343.351535 756.223093,332.130524 C759.172946,320.909514 754.66254,309.054463 745,302.632 L707.624,265 C686.899541,241.622268 678.450858,209.821046 684.84,179.24 L701.736,116.008 C708.904,88.872 692.776,72.488 665.64,79.912 L602.408,96.808 C571.78613,103.128626 539.979547,94.583574 516.648,73.768 L479.272,36.904 C472.750505,27.431014 460.965761,23.0978574 449.861006,26.0898119 C438.756252,29.0817664 430.743615,38.7489325 429.864,50.216 L416.04,101.416 C406.414117,131.088834 383.209216,154.388836 353.576,164.136 L302.376,177.96 C290.908933,178.839615 281.241766,186.852252 278.249812,197.957006 C275.257857,209.061761 279.591014,220.846505 289.064,227.368 L326.44,265 C347.36133,288.171591 355.926489,319.957847 349.48,350.504 L332.584,413.736 C325.16,441.128 341.544,457.256 368.68,450.088 L431.912,433.192 C462.49737,426.63359 494.374525,435.102446 517.672,455.976 L555.048,493.352 C561.392993,503.146069 573.332593,507.727348 584.60051,504.691433 C595.868427,501.655517 603.890304,491.696017 604.456,480.04 L618.024,428.584 Z" id="Path" fill="#FFCC80"></path>
                <path d="M767.272,298.536 L692.52,223.528 L722.984,109.096 C727.95543,94.7248345 724.609781,78.7838003 714.28,67.624 C702.81185,57.8398799 686.958157,55.0018733 672.808,60.2 L558.376,90.92 L483.624,14.888 C473.790323,3.74759079 458.774187,-1.32279258 444.2,1.576 C429.639853,6.01894437 418.714206,18.1257429 415.784,33.064 L388.392,135.464 L285.48,162.6 C270.609428,165.604882 258.492484,176.353783 253.736,190.76 C250.555667,205.656673 255.642176,221.111835 267.048,231.208 L341.8,306.216 L311.08,420.648 C306.291267,435.072167 309.723666,450.959273 320.04,462.12 C327.349085,469.248216 337.22562,473.124987 347.432,472.872 C352.192594,472.781848 356.922989,472.09379 361.512,470.824 L475.944,440.104 L550.696,515.112 C558.852802,523.761205 570.051815,528.901736 581.928,529.448 C584.901822,529.839727 587.914178,529.839727 590.888,529.448 C605.448147,525.005056 616.373794,512.898257 619.304,497.96 L646.696,395.56 L749.096,368.168 C763.956676,365.083795 775.9958,354.21922 780.584,339.752 C784.367491,324.598969 779.204355,308.613106 767.272,298.536 L767.272,298.536 Z M682.536,95.016 L687.656,95.016 C687.916087,96.7127577 687.916087,98.4392423 687.656,100.136 L662.056,193.832 L589.096,120.104 L682.536,95.016 Z M650.536,234.792 L615.976,362.792 L487.976,397.352 L385.576,294.952 L420.136,166.952 L548.136,132.392 L650.536,234.792 Z M451.112,42.792 C451.112,40.232 452.904,38.696 452.904,38.184 C454.51315,38.8345549 455.924905,39.8933712 457,41.256 L516.648,100.904 L429.352,124.2 L451.112,42.792 Z M293.416,204.84 L290.6,201 C292.061467,199.98687 293.718006,199.28938 295.464,198.952 L376.616,177.192 L353.064,265 L293.416,204.84 Z M351.784,435.24 C350.085197,435.471693 348.362803,435.471693 346.664,435.24 C346.418934,433.542131 346.418934,431.817869 346.664,430.12 L372.264,336.424 L444.2,409.64 L351.784,435.24 Z M582.184,486.44 C582.184,489.256 580.648,490.536 580.648,491.304 C579.05818,490.389545 577.595055,489.270686 576.296,487.976 L516.904,428.584 L604.2,405.032 L582.184,486.44 Z M738.344,330.28 L657.192,352.04 L680.488,265 L739.88,324.392 C741.067738,325.601889 742.17921,326.884356 743.208,328.232 C742.017505,329.337545 740.627426,330.206345 739.112,330.792 L738.344,330.28 Z" id="Shape" fill="#FFB340"></path>
            </g>
        </g>
    </g>
</svg>