<?xml version="1.0" encoding="UTF-8"?>
<svg width="806px" height="660px" viewBox="0 0 806 660" version="1.1" xmlns="http://www.w3.org/2000/svg" xmlns:xlink="http://www.w3.org/1999/xlink">
    <!-- Generator: Sketch 61.2 (89653) - https://sketch.com -->
    <title>bili-icon_dingdao_xiaoxi</title>
    <desc>Created with Sketch.</desc>
    <g id="icons" stroke="none" stroke-width="1" fill="none" fill-rule="evenodd">
        <g id="Artboard" transform="translate(-11218.000000, -3003.000000)" fill="#6A6A6A" fill-rule="nonzero">
            <g id="bili-icon_dingdao_xiaoxi" transform="translate(11218.000000, 3003.000000)">
                <path d="M74.771429,102.379429 L400.696,325.867429 C402.083168,326.823685 403.916832,326.823685 405.304,325.867429 L731.228571,102.416 C727.424573,85.7872657 712.629717,73.9969036 695.571429,73.9999969 L110.428571,73.9999969 C93.3811823,73.9929969 78.5900429,85.7652273 74.771429,102.379429 Z M73.857143,190.443429 L73.857143,549.428571 C73.857143,569.626413 90.2307289,586 110.428571,586 L695.571429,586 C715.769271,586 732.142857,569.626413 732.142857,549.428571 L732.142857,190.443429 L446.666286,386.210286 C420.352585,404.257737 385.647415,404.257737 359.333714,386.210286 L73.857143,190.443429 Z M805.285714,120.445714 L805.285714,549.428571 C805.285714,610.022098 756.164956,659.142857 695.571429,659.142857 L110.428571,659.142857 C49.8350444,659.142857 0.714286,610.022098 0.714286,549.428571 L0.714286,121.506286 L0.714286,110.571429 C0.714286,49.9779024 49.8350444,0.857143 110.428571,0.857143 L695.571429,0.857143 C756.164956,0.857143 805.285714,49.9779024 805.285714,110.571429 L805.285714,120.482286 L805.285714,120.445714 Z" id="Shape"></path>
            </g>
        </g>
    </g>
</svg>