<?xml version="1.0" encoding="UTF-8"?>
<svg width="792px" height="746px" viewBox="0 0 792 746" version="1.1" xmlns="http://www.w3.org/2000/svg" xmlns:xlink="http://www.w3.org/1999/xlink">
    <!-- Generator: Sketch 61.2 (89653) - https://sketch.com -->
    <title>bili-cinema</title>
    <desc>Created with Sketch.</desc>
    <g id="icons" stroke="none" stroke-width="1" fill="none" fill-rule="evenodd">
        <g id="Artboard" transform="translate(-11225.000000, 0.000000)" fill-rule="nonzero">
            <g id="bili-cinema" transform="translate(11225.000000, 0.000000)">
                <path d="M544.24,588.8 C578.8,588.8 616.176,586.24 650.736,588.8 C711.92,588.8 725.488,628.736 727.536,681.984 C727.536,699.657112 741.862888,713.984 759.536,713.984 C777.209112,713.984 791.536,699.657112 791.536,681.984 C791.536,610.048 765.936,538.112 684.784,524.8 C638.703927,520.832101 592.368073,520.832101 546.288,524.8 C528.614888,524.093076 513.714924,537.846888 513.008,555.52 C512.301076,573.193112 526.054888,588.093076 543.728,588.8" id="Path" fill="#FF9900"></path>
                <path d="M722.672,361.472 C722.106846,165.929599 563.230161,7.81615946 367.687306,8.19198574 C172.144451,8.569154 13.8778029,167.29322 14.0654762,362.836347 C14.2534836,558.379475 172.824782,716.8 368.368,716.8 C563.514714,714.576668 721.01187,556.624318 722.672,361.472" id="Path" fill="#FF9900"></path>
                <path d="M557.552,438.528 C513.473287,438.528 477.727397,402.819748 477.680409,358.74106 C477.633514,314.662372 513.303268,278.878292 557.38188,278.783996 C601.460493,278.690072 637.282722,314.321513 637.424,358.4 C637.424,402.512088 601.664088,438.272 557.552,438.272 M370.928,256 C349.744629,256 329.428873,247.584938 314.449967,232.606033 C299.471062,217.627127 291.056,197.311371 291.056,176.128 C293.456983,133.701192 328.561309,100.527293 371.056,100.527293 C413.550691,100.527293 448.655017,133.701192 451.056,176.128 C450.914934,220.281465 415.081691,256 370.928,256 M370.928,628.992 C349.744629,628.992 329.428873,620.576938 314.449967,605.598033 C299.471062,590.619127 291.056,570.303371 291.056,549.12 C292.134454,505.462424 327.270424,470.326454 370.928,469.248 C414.488891,469.379172 449.965161,504.286912 450.8,547.84 C451.151636,569.17386 442.814109,589.733795 427.702622,604.797002 C412.591135,619.860209 392.004626,628.131903 370.672,627.712 M184.56,438.528 C140.481287,438.528 104.735397,402.819748 104.688409,358.74106 C104.641514,314.662372 140.311268,278.878292 184.38988,278.783996 C228.468493,278.690072 264.290722,314.321513 264.432,358.4 C264.432,402.512088 228.672088,438.272 184.56,438.272 M374,-8.75109231e-05 C223.0225,-0.103053327 86.87313,90.8190124 29.1208491,230.314139 C-28.6314317,369.809265 3.40508947,530.361855 110.272369,637.008941 C217.139648,743.656027 377.757974,775.36133 517.133686,717.321455 C656.509398,659.281579 747.150454,522.944967 746.737415,371.968 C745.613206,166.703186 579.266693,0.699420244 374,-8.75109231e-05" id="Shape" fill="#FFCC80"></path>
                <path d="M429.552,361.472 C429.552,329.094859 403.305141,302.848 370.928,302.848 C338.550859,302.848 312.304,329.094859 312.304,361.472 C312.304,393.849141 338.550859,420.096 370.928,420.096 C403.189234,419.81787 429.27387,393.733234 429.552,361.472" id="Path" fill="#FF9900"></path>
            </g>
        </g>
    </g>
</svg>