<?xml version="1.0" encoding="UTF-8"?>
<svg width="1024px" height="1024px" viewBox="0 0 1024 1024" version="1.1" xmlns="http://www.w3.org/2000/svg" xmlns:xlink="http://www.w3.org/1999/xlink">
    <!-- Generator: Sketch 61.2 (89653) - https://sketch.com -->
    <title>bili-icon_foot_weibo</title>
    <desc>Created with Sketch.</desc>
    <g id="icons" stroke="none" stroke-width="1" fill="none" fill-rule="evenodd">
        <g id="Artboard" transform="translate(-13095.000000, -8242.000000)" fill-rule="nonzero">
            <g id="bili-icon_foot_weibo" transform="translate(13095.000000, 8242.000000)">
                <path d="M0,512 C0,794.769792 229.230208,1024 512,1024 C794.769792,1024 1024,794.769792 1024,512 C1024,229.230208 794.769792,0 512,0 C229.230208,0 0,229.230208 0,512 Z" id="Path" fill="#FF9900"></path>
                <path d="M647.785931,516.360828 C641.341793,515.107311 637.139862,513.218207 635.215448,510.711172 C633.291034,508.221793 632.973241,505.908965 634.244414,503.825655 L636.186483,500.683034 C636.716346,500.124114 637.157002,499.48695 637.492966,498.793931 C637.934345,497.946483 638.781794,496.16331 640.070621,493.462069 C641.314324,490.848403 642.290331,488.115584 642.983724,485.305379 C643.733757,481.995375 644.264565,478.639488 644.57269,475.259586 C644.995468,471.496812 644.888496,467.69334 644.254897,463.960276 C643.46909,459.941607 642.163403,456.042352 640.370759,452.360828 C638.383096,448.139584 635.649805,444.311781 632.302345,441.061517 C626.281931,435.182345 618.425379,431.421793 608.750345,429.744552 C599.161698,428.07398 589.365843,427.966661 579.742897,429.426759 C570.50531,430.797834 561.351549,432.683992 552.324414,435.076414 C543.726345,437.371586 536.646621,439.560828 531.049931,441.644138 L522.681379,445.422345 C519.185598,446.490857 515.623339,447.328342 512.017655,447.929379 C509.228138,448.353103 507.074207,448.247172 505.573517,447.611586 C504.315114,447.12316 503.118192,446.489147 502.007172,445.722483 C501.159724,445.104552 500.841931,443.639173 501.053793,441.326345 C501.248,439.031173 501.459862,437.036138 501.689379,435.376552 C501.901241,433.699311 502.448551,431.086345 503.278345,427.52 C504.161104,423.953655 504.79669,421.128828 505.220414,419.045517 C505.220414,414.031448 504.902621,409.335172 504.267034,404.921379 C503.435,399.870484 502.031221,394.930603 500.082759,390.196966 C498.154663,385.071645 494.930697,380.533761 490.725517,377.026207 C486.101634,373.390898 480.855038,370.627013 475.241931,368.869517 C469.009655,366.786207 460.941241,366.15062 451.054345,366.980414 C441.167449,367.810208 429.991724,370.334897 417.509517,374.519172 C402.46731,379.533241 387.195586,386.948413 371.729655,396.76469 C357.366637,405.740349 343.87255,416.036757 331.422897,427.52 C320.669514,437.551134 310.230274,447.913831 300.120276,458.593103 C292.549781,466.511855 285.236736,474.67279 278.192552,483.063172 L271.095172,493.09131 C256.900413,511.099586 246.377931,529.072551 239.492414,547.063172 C232.606897,565.071448 229.393655,578.648275 229.817379,587.846621 L229.817379,601.017379 C232.395034,621.09131 238.750896,639.081931 248.849655,654.989241 C258.948414,670.878896 270.971586,683.767172 284.954483,693.583448 C298.93738,703.399724 315.392,711.768276 334.30069,718.671448 C353.227035,725.57462 371.376552,730.606345 388.819862,733.73131 C406.227862,736.873931 424.606896,739.063172 443.956966,740.31669 C475.789242,742.84138 508.786759,740.440276 542.967172,733.113379 C576.704708,725.96632 608.980023,713.130226 638.411034,695.154759 C667.877517,677.146483 688.622344,655.607173 700.663172,630.519172 C707.972413,615.865379 711.732965,602.059034 711.962483,589.082483 C712.174345,576.123586 709.914483,565.565793 705.182897,557.409103 C700.371444,549.168189 694.143759,541.840799 686.786207,535.763862 C679.265104,529.478621 672.167724,524.870621 665.511724,521.939862 C659.862721,519.322567 653.907598,517.424519 647.785931,516.290207 L647.785931,516.360828 L647.785931,516.360828 Z M451.072,711.503448 C404.638897,713.586758 365.197241,704.794482 332.747034,685.144276 C300.279172,665.476414 284.054069,640.582621 284.054069,610.462897 C284.054069,580.766897 300.173241,555.149242 332.429241,533.609931 C364.685241,512.070621 404.232827,500.241655 451.10731,498.158345 C497.964138,496.039724 537.529379,503.578483 569.767724,520.73931 C602.023724,537.900138 618.142897,561.328551 618.142897,591.006897 C618.142897,621.126621 601.705931,648.209656 568.79669,672.273655 C535.905104,696.32 496.675311,709.402483 451.10731,711.468138 L451.072,711.503448 L451.072,711.503448 Z M432.375172,537.688276 C420.814507,538.713959 409.491024,541.574629 398.830345,546.162759 C388.943448,550.541242 381.210483,555.572966 375.631448,561.222621 C370.034758,566.872276 365.303172,572.928 361.43669,579.407448 C357.552552,585.886896 354.851311,592.260414 353.350621,598.545655 C351.849931,604.813241 350.878897,610.568827 350.455172,615.794759 C350.067087,619.856323 349.849149,623.932349 349.801931,628.012138 L350.455172,633.043862 L350.455172,635.550897 C350.455172,636.804414 350.878896,639.311449 351.744,643.072 C352.626759,646.832552 353.792,650.292966 355.29269,653.435586 C356.79338,656.578206 359.265104,660.03862 362.707862,663.799172 C366.150621,667.559724 370.228965,670.684689 374.960552,673.209379 C403.350069,686.592 429.797518,690.688 454.302897,685.444414 C478.808276,680.200828 498.582069,668.177655 513.624276,649.357241 C519.662345,642.259862 523.634759,633.467586 525.559172,622.998069 C527.488267,612.469753 527.047997,601.643933 524.270345,591.307034 C521.492226,580.689536 516.551547,570.760093 509.757793,562.14069 C502.872276,553.348414 492.667586,546.551173 479.126069,541.748966 C465.584552,536.929104 449.995035,535.569656 432.357517,537.670621 L432.375172,537.670621 L432.375172,537.688276 Z M409.158621,656.295724 C404.527185,657.05182 399.783587,656.725509 395.29931,655.342345 C393.33267,654.696112 391.3947,653.965692 389.490759,653.153103 C387.645086,652.383649 385.997355,651.206699 384.670897,649.710345 C383.423486,648.292136 382.239432,646.819431 381.122207,645.296552 C378.823848,642.095288 377.583147,638.255904 377.573517,634.315034 C377.573517,629.724689 378.862345,625.22262 381.457655,620.826483 C384.03531,616.448 387.584,612.669793 392.103724,609.527172 C396.605793,606.384551 401.655172,604.583724 407.251862,604.177655 C411.118345,603.771586 414.878896,603.877517 418.533517,604.513103 C424.642178,605.421614 430.294993,608.275883 434.65269,612.652138 C436.594759,614.541241 438.007173,616.748138 438.836966,619.237517 C439.702069,621.744551 440.125794,624.463448 440.143448,627.394207 C440.143448,631.984552 438.731034,636.398345 435.959172,640.564966 C433.006081,644.893019 429.151447,648.53083 424.659862,651.22869 C419.985457,654.139152 414.669439,655.860645 409.176276,656.242759 L409.176276,656.295724 L409.158621,656.295724 Z M463.977931,611.098483 C461.280972,613.098683 457.974509,614.103099 454.62069,613.940966 C451.407449,613.746759 449.147587,612.387311 447.858759,609.880276 L446.552276,607.355586 C446.145084,606.58195 445.927256,605.722741 445.91669,604.848552 L445.91669,602.341517 C445.91669,601.070345 446.128552,600.046345 446.552276,599.198897 L447.858759,596.691862 C448.273086,595.860096 448.957926,595.193934 449.800828,594.802759 L451.742897,592.295724 C455.185656,589.771034 458.504828,588.729379 461.735724,589.170759 C464.747611,589.452352 467.353391,591.384575 468.497655,594.184828 C469.769527,595.776204 470.348451,597.811981 470.104276,599.834483 C469.877138,601.931096 469.215732,603.957403 468.162207,605.784276 C467.102897,607.673379 465.690483,609.456552 463.977931,611.133793 L463.977931,611.116138 L463.977931,611.098483 Z M692.947862,479.956522 C695.441047,479.980278 697.894086,479.327354 700.045241,478.066759 C704.033857,475.795161 706.851365,471.916263 707.778207,467.42069 C708.201931,466.996966 708.431448,466.36138 708.431448,465.531586 C713.586758,417.82731 696.39062,390.638345 656.825379,383.947034 C645.208276,381.863724 634.456276,381.651862 624.569379,383.329103 C621.82873,383.252749 619.130319,384.016683 616.836414,385.518345 C614.682483,386.966069 612.846345,388.855173 611.345655,391.168 C609.885306,393.2873 609.097757,395.797615 609.085793,398.37131 C609.085793,402.555586 610.604138,406.104276 613.605517,409.017379 C616.624551,411.948138 620.279172,413.413517 624.569379,413.431172 C658.114207,405.892413 676.175448,416.344275 678.753103,444.804414 C679.618206,451.919448 679.176827,458.610759 677.446621,464.878345 C677.446621,469.080276 678.947311,472.628966 681.966345,475.542069 C684.967724,478.455172 688.64,479.920552 692.912552,479.956522 L692.947862,479.956522 L692.947862,479.956522 Z M681.984,303.033379 C663.057655,298.849103 637.687172,299.678896 605.872552,305.540414 C605.448828,305.540414 605.007449,305.752276 604.566069,306.158345 L603.930483,307.429517 L603.294897,308.047448 C598.563311,309.300965 594.679173,311.931586 591.677793,315.904 C588.658759,319.876414 587.158069,324.166621 587.158069,328.774621 C587.158069,335.042207 589.312,340.268138 593.602207,344.452414 C597.910069,348.619035 603.083035,350.72 609.085793,350.737655 L611.027862,350.737655 C611.451586,350.737655 612.440276,350.525793 613.940966,350.119724 C615.459311,349.696 617.065932,349.378207 618.760828,349.166345 C620.47338,348.954483 622.291862,348.530759 624.251586,347.912828 C626.21131,347.277242 627.923862,346.641656 629.424552,346.023724 C630.907586,345.388138 633.803035,345.070345 638.128552,345.070345 C642.454069,345.070345 647.715311,345.388138 653.929931,346.023724 C660.965871,346.832552 667.892446,348.407312 674.586483,350.72 C682.107586,353.227034 689.646345,356.369655 697.149793,360.130207 C704.670896,363.908414 712.192,369.134345 719.748414,375.808 C727.269517,382.49931 733.837242,390.232276 739.398621,399.024552 C750.592,423.706483 752.745931,447.558621 745.860414,470.56331 C745.85285,471.0079 745.737755,471.444049 745.524966,471.834483 C745.313104,472.258207 744.995311,473.299862 744.553931,474.959448 C744.15462,476.533031 743.72493,478.098749 743.265103,479.655724 C742.823724,481.138758 742.382344,483.010207 741.958621,485.305379 C741.534897,487.600551 741.323035,489.577931 741.323034,491.255172 C741.323034,495.033379 742.382344,498.158344 744.536276,500.683034 C746.668816,503.185981 749.466024,505.034465 752.60469,506.014897 C755.835587,507.074207 759.613793,507.586207 763.904,507.586207 C775.944828,507.586207 783.024552,500.471173 785.178483,486.241103 C790.333793,469.927724 793.246897,454.338206 793.882483,439.507862 C794.535724,424.659862 793.458759,411.577379 790.669241,400.295724 C787.958299,389.203625 783.728161,378.53916 778.098759,368.60469 C772.935671,359.318753 766.413591,350.85671 758.74869,343.499034 C751.208728,336.432092 742.988514,330.127957 734.208,324.678621 C725.919627,319.404059 717.174677,314.883865 708.078345,311.172414 C699.709793,307.835586 690.988138,305.11669 681.966345,303.033379 L681.984,303.033379 L681.984,303.033379 Z" id="Shape" fill="#FFFFFF"></path>
            </g>
        </g>
    </g>
</svg>